<?xml version="1.0" encoding="UTF-8" standalone="no"?>
<svg
   xmlns:dc="http://purl.org/dc/elements/1.1/"
   xmlns:cc="http://creativecommons.org/ns#"
   xmlns:rdf="http://www.w3.org/1999/02/22-rdf-syntax-ns#"
   xmlns:svg="http://www.w3.org/2000/svg"
   xmlns="http://www.w3.org/2000/svg"
   xmlns:sodipodi="http://sodipodi.sourceforge.net/DTD/sodipodi-0.dtd"
   xmlns:inkscape="http://www.inkscape.org/namespaces/inkscape"
   id="svg"
   version="1.1"
   width="687"
   height="500"
   style="display: block;"
   inkscape:version="0.91 r13725"
   sodipodi:docname="fsl.svg">
  <metadata
     id="metadata13">
    <rdf:RDF>
      <cc:Work
         rdf:about="">
        <dc:format>image/svg+xml</dc:format>
        <dc:type
           rdf:resource="http://purl.org/dc/dcmitype/StillImage" />
      </cc:Work>
    </rdf:RDF>
  </metadata>
  <defs
     id="defs11" />
  <sodipodi:namedview
     pagecolor="#ffffff"
     bordercolor="#666666"
     borderopacity="1"
     objecttolerance="10"
     gridtolerance="10"
     guidetolerance="10"
     inkscape:pageopacity="0"
     inkscape:pageshadow="2"
     inkscape:window-width="640"
     inkscape:window-height="480"
     id="namedview9"
     showgrid="false"
     inkscape:zoom="0.472"
     inkscape:cx="343.5"
     inkscape:cy="250"
     inkscape:window-x="0"
     inkscape:window-y="0"
     inkscape:window-maximized="0"
     inkscape:current-layer="svg" />
  <g
     id="svgg"
     transform="scale(1.7204762,1.7204762)">
    <path
       id="path0"
       d="m 30.277,0.582 c 0,0.32 0.393,0.582 0.873,0.582 0.48,0 0.873,-0.262 0.873,-0.582 C 32.023,0.262 31.63,0 31.15,0 30.67,0 30.277,0.262 30.277,0.582 m -7.198,1.456 c -0.45,1.172 1.742,1.172 2.914,0 0.776,-0.776 0.682,-0.874 -0.853,-0.874 -0.997,0 -1.867,0.369 -2.061,0.874 m 350.138,0 c 0.399,0.48 1.208,0.873 1.8,0.873 0.716,0 0.963,-0.291 0.739,-0.873 -0.184,-0.481 -0.994,-0.874 -1.799,-0.874 -1.236,0 -1.352,0.137 -0.74,0.874 M 15.931,5.531 c -0.184,0.481 -0.672,0.874 -1.084,0.874 -0.412,0 -0.899,0.393 -1.084,0.873 -0.184,0.48 -0.803,0.873 -1.375,0.873 -0.573,0 -1.805,0.917 -2.74,2.038 -0.934,1.121 -2.047,2.038 -2.471,2.038 -0.425,0 -0.772,0.393 -0.772,0.873 0,0.481 -0.393,0.874 -0.874,0.874 -0.48,0 -0.873,0.393 -0.873,0.873 0,0.481 0.234,0.874 0.52,0.874 0.286,0 0.671,-0.393 0.855,-0.874 0.184,-0.48 0.594,-0.873 0.91,-0.873 0.316,0 1.97,-1.376 3.674,-3.057 1.705,-1.681 3.878,-3.45 4.829,-3.93 2.692,-1.359 3.543,-2.329 2.045,-2.329 -0.674,0 -1.376,0.393 -1.56,0.873 m 366.076,0.281 c 2.298,1.894 2.498,2.027 4.165,2.768 0.88,0.391 1.601,0.979 1.601,1.306 0,0.327 0.273,0.594 0.608,0.594 0.334,0 2.037,1.441 3.784,3.203 2.923,2.946 3.177,3.086 3.177,1.747 0,-0.801 -0.257,-1.456 -0.572,-1.456 -0.314,0 -1.559,-0.906 -2.765,-2.013 -3.868,-3.549 -4.217,-3.81 -5.105,-3.81 -0.481,0 -0.874,-0.393 -0.874,-0.873 0,-0.48 -0.281,-0.873 -0.624,-0.873 -0.343,0 -1.016,-0.393 -1.497,-0.874 -0.48,-0.48 -1.419,-0.873 -2.085,-0.873 -1.165,0 -1.158,0.045 0.187,1.154 M 2.723,17.942 c -1.744,1.821 -1.992,2.566 -0.685,2.065 0.48,-0.185 0.873,-0.687 0.873,-1.118 0,-0.43 0.457,-1.037 1.014,-1.349 C 4.483,17.228 4.791,16.824 4.611,16.644 4.43,16.463 3.58,17.047 2.723,17.942 m 394.366,2.074 c 0,0.441 0.393,1.128 0.873,1.527 0.739,0.613 0.874,0.489 0.874,-0.802 0,-0.969 -0.32,-1.527 -0.874,-1.527 -0.48,0 -0.873,0.361 -0.873,0.802 M 0,22.416 c 0,0.801 0.262,1.456 0.582,1.456 0.32,0 0.582,-0.655 0.582,-1.456 0,-0.8 -0.262,-1.455 -0.582,-1.455 C 0.262,20.961 0,21.616 0,22.416 m 398.836,2.329 c 0,0.801 0.262,1.456 0.582,1.456 0.32,0 0.582,-0.655 0.582,-1.456 0,-0.8 -0.262,-1.455 -0.582,-1.455 -0.32,0 -0.582,0.655 -0.582,1.455 m 0,241.631 c 0,0.8 0.262,1.455 0.582,1.455 0.32,0 0.582,-0.655 0.582,-1.455 0,-0.801 -0.262,-1.456 -0.582,-1.456 -0.32,0 -0.582,0.655 -0.582,1.456 M 0,268.413 c 0,0.641 0.262,1.165 0.582,1.165 0.32,0 0.582,-0.524 0.582,-1.165 0,-0.64 -0.262,-1.164 -0.582,-1.164 -0.32,0 -0.582,0.524 -0.582,1.164 m 397.817,0.871 c -0.401,0.455 -0.728,1.145 -0.728,1.533 0,0.389 -0.434,1.186 -0.964,1.772 -0.896,0.991 -0.896,1.065 0,1.065 0.53,0 0.964,-0.393 0.964,-0.874 0,-0.48 0.393,-0.873 0.873,-0.873 0.582,0 0.874,-0.582 0.874,-1.747 0,-1.983 -0.025,-2.005 -1.019,-0.876 M 1.164,270.853 c 0,0.46 0.787,1.589 1.747,2.509 0.961,0.921 1.751,1.952 1.757,2.293 0.012,0.757 2.155,2.817 3.881,3.73 0.698,0.369 1.429,1.172 1.623,1.783 0.331,1.042 1.948,2.102 2.447,1.604 0.395,-0.395 -2.95,-3.878 -3.724,-3.878 -0.409,0 -0.744,-0.409 -0.744,-0.908 0,-0.499 -0.263,-0.745 -0.586,-0.545 -0.322,0.199 -0.767,-0.113 -0.987,-0.694 -0.221,-0.58 -1.136,-1.703 -2.034,-2.495 -0.898,-0.792 -1.633,-1.743 -1.633,-2.112 0,-0.37 -0.393,-0.999 -0.873,-1.398 -0.707,-0.587 -0.874,-0.566 -0.874,0.111 m 391.962,5.566 c -1.012,1.201 -2.63,2.708 -3.595,3.348 -0.965,0.641 -1.755,1.47 -1.756,1.844 -10e-4,0.373 -0.33,0.811 -0.73,0.973 -0.57,0.23 -0.566,0.303 0.018,0.339 0.411,0.026 0.897,-0.347 1.082,-0.827 0.184,-0.48 0.569,-0.873 0.855,-0.873 1.103,0 6.342,-5.067 6.342,-6.134 0,-1.208 -0.154,-1.115 -2.216,1.33 m -379.55,6.774 c 0.219,0.57 0.398,1.146 0.398,1.28 0,0.134 0.281,0.243 0.624,0.243 0.343,0 1.016,0.393 1.497,0.874 0.48,0.48 1.397,0.873 2.038,0.873 1.035,0 1.067,-0.097 0.291,-0.873 -0.481,-0.481 -1.048,-0.874 -1.262,-0.874 -0.214,0 -1.197,-0.576 -2.186,-1.28 -1.55,-1.104 -1.743,-1.137 -1.4,-0.243 m 370.295,0.526 c -1.277,1.287 -2.475,2.187 -2.831,2.125 -0.193,-0.033 -0.504,0.092 -0.691,0.279 -0.186,0.187 0.087,0.34 0.607,0.34 1.469,0 5.04,-1.953 5.056,-2.766 0.018,-0.919 -1.221,-0.906 -2.141,0.022 m -362.91,3.617 c 0,0.481 0.425,0.874 0.944,0.874 0.774,0 0.814,-0.158 0.22,-0.874 -0.398,-0.48 -0.824,-0.873 -0.944,-0.873 -0.121,0 -0.22,0.393 -0.22,0.873 m 3.283,1.747 c 0.184,0.48 0.994,0.873 1.799,0.873 1.236,0 1.352,-0.136 0.74,-0.873 -0.399,-0.48 -1.208,-0.873 -1.8,-0.873 -0.716,0 -0.963,0.291 -0.739,0.873 m 348.716,0.018 c -1.088,0.823 -1.074,0.855 0.374,0.855 0.828,0 1.656,-0.393 1.84,-0.873 0.425,-1.108 -0.738,-1.098 -2.214,0.018 m -342.683,1.438 c 0,0.32 0.393,0.582 0.873,0.582 0.48,0 0.873,-0.262 0.873,-0.582 0,-0.321 -0.393,-0.583 -0.873,-0.583 -0.48,0 -0.873,0.262 -0.873,0.583"
       inkscape:connector-curvature="0"
       style="fill:#000000;fill-rule:evenodd;stroke:none" />
    <path
       id="path1"
       d="m 121.611,48.186 c -15.815,13.309 -20.232,16.962 -22.291,18.436 -3.756,2.689 -5.485,4.396 -9.19,9.069 -1.904,2.402 -6.259,7.26 -9.678,10.796 -6.184,6.397 -9.536,11.229 -12.286,17.716 -1.333,3.145 -2.337,5.327 -8.131,17.685 -4.676,9.973 -10.861,15.7 -20.611,19.082 -3.753,1.302 -3.978,1.865 -4.33,10.809 -0.38,9.643 0.798,18.088 3.393,24.338 0.928,2.236 1.688,4.242 1.688,4.458 0,0.618 5.712,8.914 7.804,11.335 l 1.889,2.185 2.868,-0.776 c 1.578,-0.427 4.542,-1.522 6.588,-2.434 2.045,-0.911 4.22,-1.656 4.832,-1.656 0.612,0 1.82,-0.363 2.685,-0.807 2.327,-1.194 9.381,-2.543 17.347,-3.319 7.122,-0.694 9.471,-0.616 19.451,0.64 5.931,0.746 15.861,0.375 18.526,-0.693 0.859,-0.344 3.002,-0.967 4.764,-1.384 1.761,-0.417 4.774,-1.183 6.695,-1.704 1.922,-0.52 4.935,-1.301 6.696,-1.735 1.762,-0.434 5.037,-1.312 7.278,-1.95 2.242,-0.638 5.255,-1.333 6.696,-1.543 2.722,-0.397 6.21,-1.118 15.912,-3.289 6.94,-1.553 9.284,-3.426 12.057,-9.64 0.976,-2.189 2.028,-4.373 2.336,-4.853 0.309,-0.48 0.732,-1.266 0.941,-1.747 0.21,-0.48 1.535,-2.615 2.945,-4.743 2.747,-4.146 3.32,-6.904 1.758,-8.465 -0.805,-0.805 -0.815,-1.184 -0.089,-3.241 0.543,-1.541 0.821,-4.856 0.821,-9.802 0,-8.525 -0.066,-8.661 -5.531,-11.421 -1.601,-0.809 -3.304,-1.8 -3.785,-2.203 -2.328,-1.953 -16.708,-9.288 -21.145,-10.787 -4.771,-1.612 -31.27,-0.187 -33.265,1.789 -0.656,0.649 -3.821,0.741 -3.798,0.111 0.024,-0.681 8.639,-5.721 18.718,-10.953 l 5.429,-2.817 11.354,-0.428 c 12.778,-0.482 11.384,-0.788 20.347,4.471 8.483,4.977 20.406,3.771 20.408,-2.064 0.001,-1.532 -0.251,-1.708 -9.605,-6.686 -2.242,-1.194 -5.328,-3.065 -6.859,-4.158 -6.129,-4.379 -27.474,-7.02 -36.227,-4.483 -1.281,0.372 -4.556,1.119 -7.278,1.662 -2.722,0.542 -5.937,1.35 -7.144,1.794 -1.208,0.445 -2.961,0.809 -3.896,0.809 -0.935,0 -1.863,0.262 -2.06,0.582 -0.198,0.32 -1.196,0.564 -2.218,0.543 l -1.858,-0.04 1.455,-0.672 c 0.801,-0.369 1.666,-1.006 1.922,-1.416 0.256,-0.409 0.7,-0.744 0.987,-0.744 0.813,0 7.542,-4.04 10.783,-6.475 1.606,-1.206 4.096,-2.471 5.532,-2.81 1.436,-0.34 4.445,-1.159 6.686,-1.821 2.242,-0.662 5.124,-1.413 6.405,-1.668 1.281,-0.256 3.508,-0.755 4.949,-1.109 4.167,-1.024 12.357,-2.42 14.265,-2.431 2.284,-0.014 7.162,-3.103 7.88,-4.989 2.087,-5.489 -3.652,-7.429 -15.355,-5.189 -2.51,0.48 -6.178,0.878 -8.151,0.883 -2.044,0.006 -5.843,0.645 -8.828,1.485 -2.882,0.812 -6.211,1.723 -7.398,2.025 -1.187,0.303 -3.152,0.981 -4.367,1.507 -3.487,1.511 -4.421,1.844 -6.285,2.246 -1.536,0.331 -15.441,6.941 -17.758,8.442 -5.068,3.283 -9.316,4.952 -9.316,3.661 0,-0.466 6.093,-6.309 12.809,-12.285 12.288,-10.933 13.238,-12.144 12.271,-15.645 -1.357,-4.914 -4.732,-5.444 -9.437,-1.484 m 5.927,-0.86 c 1.13,0.89 2.884,3.408 2.884,4.14 0,0.804 -16.701,16.604 -18.119,17.141 -0.282,0.107 -0.513,0.435 -0.513,0.728 0,0.676 -2.162,2.863 -2.831,2.863 -0.974,0 -5.979,5.869 -5.796,6.796 0.485,2.465 2.877,2.315 7.463,-0.467 0.48,-0.292 1.725,-0.921 2.766,-1.4 1.04,-0.478 1.894,-1.062 1.898,-1.298 0.003,-0.236 1.444,-1.068 3.202,-1.85 1.758,-0.782 3.197,-1.633 3.197,-1.892 0,-0.259 0.532,-0.471 1.182,-0.471 0.651,0 1.334,-0.393 1.518,-0.874 0.188,-0.49 1.055,-0.873 1.978,-0.873 0.904,0 2.004,-0.361 2.445,-0.802 0.442,-0.442 1.636,-0.986 2.655,-1.21 1.019,-0.223 2.002,-0.648 2.185,-0.944 0.183,-0.296 1.053,-0.537 1.933,-0.537 0.881,0 2.11,-0.385 2.732,-0.855 0.621,-0.47 1.654,-0.865 2.294,-0.877 0.641,-0.012 1.915,-0.414 2.833,-0.892 0.917,-0.479 2.096,-0.879 2.62,-0.89 0.523,-0.011 2,-0.526 3.281,-1.144 1.328,-0.642 3.593,-1.134 5.269,-1.145 1.617,-0.011 3.2,-0.279 3.516,-0.596 0.317,-0.316 5.196,-0.861 10.843,-1.209 11.828,-0.73 13.053,-0.484 12.455,2.504 -0.6,2.999 -4.498,4.713 -12.262,5.39 -2.227,0.194 -4.379,0.626 -4.781,0.96 -0.403,0.334 -2.311,0.75 -4.242,0.925 -1.931,0.175 -3.807,0.675 -4.169,1.111 -0.367,0.442 -1.755,0.793 -3.136,0.793 -1.491,0 -2.765,0.348 -3.202,0.874 -0.454,0.547 -1.736,0.873 -3.435,0.873 -1.491,0 -3.227,0.354 -3.859,0.786 -0.632,0.433 -1.824,0.951 -2.649,1.151 -0.826,0.2 -2.215,1.025 -3.087,1.833 -0.872,0.809 -1.794,1.47 -2.048,1.47 -0.254,0 -0.936,0.524 -1.516,1.165 -0.579,0.64 -1.406,1.164 -1.837,1.164 -0.43,0 -0.783,0.241 -0.783,0.536 0,0.295 -0.768,0.705 -1.706,0.911 -0.939,0.206 -2.019,0.751 -2.401,1.211 -0.381,0.459 -1.063,0.836 -1.514,0.836 -0.451,0 -0.971,0.393 -1.155,0.873 -0.185,0.48 -0.816,0.873 -1.403,0.873 -0.587,0 -1.24,0.278 -1.45,0.618 -0.21,0.34 -1.03,0.865 -1.822,1.166 -1.044,0.397 -1.388,0.906 -1.253,1.856 0.218,1.536 4.406,1.595 6.552,0.092 0.644,-0.451 1.998,-0.821 3.008,-0.821 1.01,0 2.163,-0.393 2.562,-0.873 0.399,-0.48 1.675,-0.883 2.837,-0.894 1.161,-0.011 2.767,-0.395 3.568,-0.853 0.8,-0.457 2.781,-0.841 4.401,-0.852 1.658,-0.012 3.439,-0.395 4.075,-0.876 1.667,-1.26 28.542,-1.26 30.208,0 0.622,0.47 1.838,0.855 2.704,0.855 0.865,0 1.724,0.393 1.908,0.873 0.184,0.481 0.708,0.874 1.164,0.874 0.457,0 0.981,0.393 1.165,0.873 0.184,0.48 0.854,0.873 1.489,0.873 0.635,0 1.363,0.328 1.619,0.728 0.256,0.401 1.514,1.241 2.795,1.868 1.281,0.627 3.024,1.61 3.874,2.184 0.85,0.573 2.067,1.043 2.704,1.043 0.637,0 1.308,0.393 1.493,0.873 0.184,0.481 0.736,0.874 1.227,0.874 0.49,0 0.882,0.327 0.872,0.727 -0.034,1.252 -2.151,3.348 -3.38,3.348 -0.647,0 -1.569,0.393 -2.049,0.874 -1.105,1.105 -3.816,1.095 -5.289,-0.019 -0.622,-0.47 -1.969,-0.855 -2.995,-0.855 -1.025,0 -1.993,-0.335 -2.15,-0.746 -0.158,-0.41 -1.692,-1.463 -3.41,-2.339 -3.67,-1.872 -5.089,-2.738 -6.265,-3.823 -2.151,-1.986 -24.706,0.023 -29.756,2.65 -0.8,0.417 -1.783,0.759 -2.183,0.761 -0.4,0.002 -0.728,0.24 -0.728,0.529 0,0.289 -0.786,0.799 -1.747,1.134 -0.96,0.335 -1.746,0.885 -1.746,1.222 0,0.337 -0.492,0.612 -1.094,0.612 -0.601,0 -1.419,0.393 -1.818,0.874 -0.398,0.48 -1.188,0.873 -1.755,0.873 -0.567,0 -1.182,0.393 -1.366,0.873 -0.185,0.481 -0.836,0.874 -1.447,0.874 -0.611,0 -1.438,0.393 -1.836,0.873 -0.399,0.48 -1.051,0.873 -1.448,0.873 -1.701,0 -4.478,3.236 -4.278,4.985 0.226,1.986 2.27,2.649 3.881,1.258 1.51,-1.302 6.634,-2.227 15.527,-2.802 4.484,-0.29 9.978,-0.774 12.21,-1.076 2.737,-0.369 4.295,-0.351 4.787,0.057 0.401,0.333 1.588,0.818 2.638,1.078 3.134,0.778 5.954,1.984 6.45,2.76 0.256,0.4 1.107,0.727 1.892,0.727 0.785,0 1.427,0.236 1.427,0.524 0,0.569 4.301,2.97 5.319,2.97 0.345,0 1.581,0.751 2.748,1.669 1.167,0.918 2.711,1.852 3.432,2.077 0.72,0.224 1.31,0.632 1.31,0.905 0,0.273 0.764,0.664 1.698,0.869 0.934,0.206 1.843,0.75 2.02,1.211 0.176,0.461 0.71,0.838 1.186,0.838 1.339,0 1.713,3.489 1.245,11.6 -0.233,4.028 -0.404,7.781 -0.381,8.342 0.279,6.822 0.399,6.343 -2.755,10.969 -1.657,2.43 -3.013,4.691 -3.013,5.023 0,0.333 -0.393,0.931 -0.873,1.329 -0.481,0.399 -0.874,1.316 -0.874,2.038 0,0.722 -0.393,1.639 -0.873,2.038 -0.481,0.399 -0.874,1.077 -0.874,1.508 0,1.029 -3.688,4.696 -5.211,5.179 -0.656,0.208 -1.193,0.623 -1.193,0.922 0,0.298 -1.816,0.543 -4.034,0.543 -2.81,0 -4.3,0.265 -4.908,0.873 -0.549,0.549 -2.023,0.883 -3.972,0.899 -1.704,0.014 -4.146,0.403 -5.427,0.864 -1.281,0.462 -3.279,0.843 -4.441,0.848 -1.162,0.005 -2.408,0.366 -2.77,0.802 -0.362,0.436 -2.258,0.938 -4.214,1.115 -1.956,0.178 -3.841,0.607 -4.188,0.954 -0.347,0.347 -1.346,0.631 -2.22,0.631 -0.874,0 -1.941,0.353 -2.372,0.784 -0.431,0.43 -2.444,0.971 -4.475,1.201 -2.03,0.229 -4.12,0.645 -4.644,0.924 -4.23,2.248 -14.818,3.307 -20.458,2.047 -5.742,-1.283 -17.248,-1.761 -22.416,-0.931 -10.127,1.627 -12.511,2.136 -13.19,2.817 -0.399,0.4 -1.82,0.728 -3.158,0.728 -1.452,0 -2.724,0.352 -3.157,0.873 -0.399,0.48 -1.329,0.873 -2.067,0.873 -0.739,0 -1.736,0.393 -2.217,0.874 -0.48,0.48 -1.481,0.881 -2.225,0.892 -0.743,0.01 -1.86,0.403 -2.481,0.873 -2.361,1.785 -5.166,0.124 -7.652,-4.531 -0.47,-0.881 -1.08,-1.601 -1.354,-1.601 -0.275,0 -0.654,-0.459 -0.842,-1.019 -0.188,-0.56 -0.574,-1.412 -0.859,-1.892 -1.378,-2.331 -2.331,-4.54 -2.697,-6.253 -0.222,-1.037 -0.645,-2.035 -0.94,-2.218 -0.296,-0.182 -0.539,-1.168 -0.541,-2.19 -0.002,-1.021 -0.353,-2.526 -0.779,-3.342 -1.015,-1.945 -1.612,-12.104 -1.152,-19.622 l 0.364,-5.968 1.878,0 c 1.033,0 2.205,-0.393 2.603,-0.873 0.399,-0.481 1.316,-0.874 2.038,-0.874 0.722,0 1.639,-0.393 2.038,-0.873 0.399,-0.48 1.151,-0.874 1.673,-0.874 1.152,-0.001 5.896,-4.111 5.896,-5.108 0,-0.393 0.393,-0.714 0.874,-0.714 0.48,0 0.884,-0.327 0.898,-0.727 0.013,-0.401 0.799,-1.371 1.746,-2.157 0.947,-0.785 1.722,-1.886 1.722,-2.445 0,-0.56 0.348,-1.227 0.772,-1.483 0.425,-0.256 0.947,-0.859 1.161,-1.339 0.214,-0.48 0.635,-1.266 0.935,-1.747 0.3,-0.48 1.144,-2.445 1.874,-4.367 0.731,-1.921 1.666,-4.01 2.078,-4.642 0.412,-0.631 0.75,-1.713 0.75,-2.403 0,-0.69 0.393,-1.581 0.873,-1.979 0.48,-0.399 0.873,-1.316 0.873,-2.038 0,-0.722 0.393,-1.639 0.874,-2.038 0.48,-0.399 0.873,-1.225 0.873,-1.836 0,-0.612 0.393,-1.263 0.873,-1.447 0.481,-0.184 0.874,-0.779 0.874,-1.321 0,-0.542 0.292,-1.278 0.649,-1.635 0.724,-0.724 1.907,-2.695 2.8,-4.665 0.323,-0.713 2.892,-3.595 5.708,-6.404 4.341,-4.331 6.74,-7.044 10.339,-11.694 1.629,-2.105 8.504,-8.844 9.021,-8.844 0.327,0 0.595,-0.267 0.595,-0.594 0,-0.328 0.72,-0.917 1.601,-1.31 1.476,-0.66 3.435,-2.293 8.716,-7.266 1.106,-1.041 2.191,-1.892 2.412,-1.892 0.222,0 1.263,-0.786 2.315,-1.747 1.052,-0.961 2.137,-1.747 2.41,-1.747 0.274,0 0.586,-0.23 0.692,-0.51 0.225,-0.591 7.036,-6.473 7.472,-6.453 0.161,0.007 0.697,0.333 1.192,0.723 m 213.073,52.381 c -5.877,2.715 -10.388,4.165 -18.922,6.085 -6.106,1.373 -24.896,1.692 -29.637,0.503 -5.713,-1.433 -16.035,-0.458 -21.601,2.041 -1.188,0.533 -3.903,1.246 -9.607,2.522 -1.761,0.394 -3.94,1.027 -4.841,1.407 -0.902,0.379 -2.118,0.69 -2.703,0.69 -0.585,0 -4.091,0.786 -7.791,1.747 -3.7,0.96 -7.757,1.746 -9.014,1.746 -1.258,0 -3.401,0.393 -4.763,0.874 -1.361,0.48 -3.088,0.873 -3.837,0.873 -5.202,0 -11.02,4.179 -13.65,9.803 -2.491,5.329 -3.293,6.793 -6.114,11.158 -3.073,4.754 -3.546,6.743 -2.117,8.893 1.045,1.574 1.044,1.704 -0.054,4.95 -0.908,2.683 -1.085,4.512 -0.906,9.383 l 0.222,6.05 2.113,1.81 c 2.258,1.934 14.262,8.821 22.888,13.132 l 5.24,2.618 7.278,0.218 c 8.076,0.241 20.145,-0.638 23.289,-1.696 1.121,-0.377 3.146,-1.061 4.499,-1.522 4.908,-1.668 3.673,0.864 -1.892,3.878 -1.273,0.69 -2.708,1.495 -3.189,1.79 -12.015,7.363 -17.662,9.168 -29.694,9.487 -10.088,0.268 -10.216,0.247 -14.847,-2.536 -11.726,-7.046 -18.255,-7.388 -23.784,-1.247 -1.563,1.737 0.662,3.837 7.481,7.064 1.601,0.757 5.101,2.79 7.779,4.516 7.431,4.791 8.055,4.922 23.9,5.027 13.789,0.092 16.255,-0.16 22.469,-2.294 1.281,-0.44 3.508,-1.048 4.949,-1.351 1.442,-0.303 3.743,-0.865 5.116,-1.249 2.795,-0.782 3.932,-0.289 2.162,0.938 -0.64,0.443 -1.495,1.09 -1.9,1.438 -0.405,0.348 -1.992,1.215 -3.527,1.926 -1.534,0.711 -4.106,2.259 -5.714,3.439 -4.989,3.663 -15.977,6.968 -32.527,9.784 -12.881,2.192 -17.725,5.887 -13.395,10.217 l 1.563,1.564 9.856,-0.417 c 13.962,-0.591 20.53,-2.049 39.531,-8.777 4.3,-1.523 13.636,-6.315 19.527,-10.023 0.628,-0.396 2.026,-1.116 3.106,-1.601 5.834,-2.621 3.294,0.639 -9.217,11.828 -14.223,12.72 -15.267,14.482 -11.19,18.876 2.739,2.953 2.565,3.045 16.439,-8.588 4.202,-3.522 9.758,-8.028 12.347,-10.013 5.293,-4.058 5.067,-3.826 12.717,-12.986 3.076,-3.682 7.204,-8.134 9.174,-9.892 5.152,-4.598 7.185,-8.19 16.939,-29.93 0.975,-2.175 1.774,-4.213 1.774,-4.529 0,-3.503 11.512,-15.121 16.302,-16.452 0.801,-0.223 1.98,-0.645 2.621,-0.939 0.64,-0.293 1.889,-0.796 2.776,-1.117 6.795,-2.462 3.413,-31.296 -5.221,-44.521 -5.375,-8.231 -6.995,-9.093 -12.403,-6.595 m 6.568,1.749 c 0.483,0.72 1.823,2.358 2.978,3.639 1.154,1.281 2.098,2.664 2.099,3.075 0,0.41 0.393,0.897 0.874,1.081 0.48,0.184 0.873,0.719 0.873,1.188 0,0.469 0.393,1.245 0.873,1.726 0.481,0.48 0.874,1.721 0.874,2.758 0,1.037 0.384,2.394 0.854,3.015 0.471,0.622 0.864,2.055 0.874,3.184 0.01,1.13 0.441,2.658 0.958,3.396 0.783,1.117 0.944,3.186 0.963,12.336 0.025,11.941 -0.37,13.285 -3.925,13.345 -2.692,0.045 -9.55,4.225 -12.645,7.707 -1.7,1.913 -3.55,3.979 -4.11,4.591 -0.56,0.612 -1.019,1.375 -1.019,1.695 0,0.32 -0.238,0.582 -0.53,0.582 -0.572,0 -2.614,4.035 -3.241,6.405 -0.386,1.462 -1.553,4.202 -3.013,7.077 -0.432,0.85 -0.785,1.963 -0.785,2.474 0,0.511 -0.244,0.929 -0.543,0.929 -0.299,0 -0.716,0.59 -0.927,1.31 -0.604,2.057 -2.651,6.219 -3.238,6.582 -0.293,0.181 -0.532,0.809 -0.532,1.396 0,0.588 -0.393,1.219 -0.874,1.403 -0.48,0.185 -0.873,0.849 -0.873,1.477 0,0.627 -0.393,1.534 -0.873,2.014 -0.481,0.48 -0.882,1.22 -0.892,1.643 -0.019,0.773 -2.56,3.972 -3.156,3.972 -0.175,0 -0.813,0.458 -1.417,1.019 -4.293,3.985 -6.471,6.228 -6.471,6.664 0,0.279 -0.786,1.276 -1.747,2.215 -0.961,0.939 -1.747,1.978 -1.747,2.309 0,0.331 -0.393,0.602 -0.873,0.602 -0.48,0 -0.873,0.262 -0.873,0.582 0,0.32 -0.459,1.062 -1.019,1.649 -2.343,2.453 -4.804,5.482 -4.804,5.913 0,0.255 -0.589,0.622 -1.31,0.817 -1.349,0.364 -2.795,1.457 -8.552,6.468 -5.645,4.914 -7.126,6.114 -7.551,6.114 -0.224,0 -1.297,0.917 -2.383,2.038 -1.086,1.121 -2.179,2.038 -2.428,2.038 -0.249,0 -1.632,1.179 -3.073,2.62 -2.685,2.685 -6.144,3.703 -6.144,1.809 0,-0.446 -0.393,-0.962 -0.873,-1.147 -1.713,-0.657 -0.991,-3.263 1.526,-5.508 1.32,-1.178 3.78,-3.451 5.467,-5.052 1.687,-1.602 4.431,-4.091 6.098,-5.532 9.733,-8.412 13.622,-12.734 12.894,-14.331 -0.818,-1.797 -3.274,-1.648 -6.02,0.365 -0.868,0.636 -1.989,1.157 -2.493,1.157 -0.503,0 -1.066,0.393 -1.25,0.873 -0.184,0.481 -0.816,0.874 -1.403,0.874 -0.587,0 -1.24,0.278 -1.45,0.618 -0.21,0.34 -0.946,0.863 -1.635,1.163 -0.69,0.3 -1.647,0.789 -2.127,1.086 -0.481,0.298 -1.267,0.69 -1.747,0.872 -0.48,0.181 -1.266,0.574 -1.747,0.873 -0.48,0.299 -1.266,0.692 -1.746,0.873 -0.481,0.181 -1.267,0.555 -1.747,0.83 -1.862,1.068 -5.021,2.395 -6.55,2.752 -0.881,0.206 -1.602,0.608 -1.602,0.894 0,0.285 -0.72,0.528 -1.601,0.539 -0.88,0.011 -2.649,0.526 -3.93,1.144 -1.281,0.619 -2.984,1.143 -3.784,1.164 -0.801,0.021 -1.965,0.423 -2.586,0.893 -0.622,0.47 -2.137,0.855 -3.366,0.855 -1.451,0 -2.354,0.307 -2.571,0.873 -0.267,0.694 -1.551,0.881 -6.241,0.908 -3.248,0.019 -7.216,0.31 -8.817,0.646 -5.714,1.198 -11.752,1.259 -13.245,0.133 -2.675,-2.018 1.65,-6.636 6.215,-6.636 0.888,0 2.439,-0.372 3.448,-0.826 1.009,-0.455 3.931,-0.933 6.493,-1.064 2.562,-0.13 5.182,-0.508 5.822,-0.838 1.859,-0.96 6.761,-2.419 9.607,-2.86 1.441,-0.224 3.137,-0.761 3.769,-1.194 0.632,-0.433 2.146,-0.787 3.366,-0.787 1.434,0 2.336,-0.309 2.553,-0.874 0.184,-0.48 0.831,-0.873 1.437,-0.873 0.607,0 1.103,-0.27 1.103,-0.6 0,-0.331 0.458,-0.767 1.018,-0.97 0.561,-0.204 1.974,-1.113 3.141,-2.02 1.167,-0.908 2.551,-1.65 3.075,-1.65 0.524,0 1.104,-0.393 1.289,-0.873 0.184,-0.481 0.812,-0.874 1.395,-0.874 0.584,0 1.454,-0.393 1.934,-0.873 0.481,-0.48 1.089,-0.879 1.352,-0.886 0.263,-0.008 1.133,-0.526 1.934,-1.152 0.8,-0.626 1.848,-1.149 2.329,-1.162 1.294,-0.034 3.671,-2.776 3.282,-3.788 -0.43,-1.121 -3.299,-1.132 -4.772,-0.018 -0.622,0.471 -1.963,0.864 -2.981,0.874 -1.018,0.01 -2.199,0.367 -2.626,0.793 -0.426,0.427 -2.072,0.953 -3.657,1.17 -1.585,0.218 -3.141,0.655 -3.459,0.972 -0.317,0.317 -1.409,0.577 -2.426,0.577 -1.018,0 -2.146,0.355 -2.506,0.79 -0.402,0.484 -2.432,0.912 -5.238,1.104 -2.519,0.173 -5.188,0.639 -5.929,1.036 -1.414,0.757 -3.57,0.684 -19.448,-0.66 -5.267,-0.445 -8.408,-0.966 -8.921,-1.479 -0.435,-0.435 -1.018,-0.791 -1.296,-0.791 -0.277,0 -1.365,-0.786 -2.417,-1.747 -1.052,-0.961 -2.386,-1.747 -2.965,-1.747 -0.579,0 -1.204,-0.393 -1.388,-0.873 -0.185,-0.48 -0.971,-0.873 -1.747,-0.873 -0.777,0 -1.563,-0.393 -1.747,-0.874 -0.184,-0.48 -0.812,-0.873 -1.396,-0.873 -0.583,0 -1.453,-0.393 -1.934,-0.873 -0.48,-0.481 -1.088,-0.883 -1.351,-0.893 -2.655,-0.108 -3.521,-3.782 -1.039,-4.405 0.742,-0.186 1.491,-0.708 1.665,-1.16 0.226,-0.59 1.38,-0.821 4.103,-0.821 3.908,0 4.57,0.266 14.006,5.614 5.35,3.031 6.025,3.255 8.579,2.848 1.366,-0.218 6.414,-0.527 11.218,-0.687 5.957,-0.199 9.011,-0.532 9.607,-1.048 0.48,-0.416 1.836,-0.929 3.014,-1.14 1.178,-0.211 2.226,-0.571 2.329,-0.801 0.103,-0.23 1.629,-1.152 3.39,-2.048 6.671,-3.393 9.04,-4.763 9.491,-5.485 0.256,-0.41 0.944,-0.746 1.53,-0.746 0.585,0 1.39,-0.393 1.789,-0.873 0.398,-0.481 0.999,-0.874 1.335,-0.874 1.211,0 2.74,-1.96 2.74,-3.512 0,-1.666 -1.391,-3.356 -1.979,-2.404 -0.185,0.299 -1.322,0.728 -2.527,0.953 -1.204,0.225 -2.451,0.621 -2.772,0.879 -2.595,2.091 -27.552,3.407 -32.444,1.71 -2.17,-0.752 -3.946,-1.574 -3.946,-1.826 0,-0.252 -0.245,-0.458 -0.544,-0.458 -0.807,0 -3.008,-1.028 -4.987,-2.331 -0.961,-0.632 -2.14,-1.302 -2.62,-1.489 -0.481,-0.187 -1.267,-0.578 -1.747,-0.869 -0.48,-0.291 -2.249,-1.208 -3.93,-2.038 -1.681,-0.83 -3.057,-1.752 -3.057,-2.049 0,-0.296 -0.786,-0.539 -1.747,-0.539 -1.164,0 -1.746,-0.292 -1.746,-0.874 0,-0.48 -0.262,-0.873 -0.583,-0.873 -3.006,0 -4.308,-7.428 -2.928,-16.704 0.561,-3.768 0.57,-5.253 0.039,-6.534 -0.697,-1.683 0.062,-6.457 1.027,-6.457 0.419,0 0.786,-0.577 2.433,-3.829 0.474,-0.936 1.012,-1.833 1.196,-1.993 0.667,-0.581 2.891,-5.298 2.891,-6.131 0,-0.471 0.245,-0.856 0.543,-0.856 0.299,0 0.704,-0.505 0.899,-1.121 0.671,-2.115 4.864,-5.718 7.151,-6.145 1.198,-0.224 2.51,-0.681 2.915,-1.016 0.405,-0.334 2.632,-0.731 4.949,-0.88 2.317,-0.15 5.336,-0.638 6.708,-1.086 1.372,-0.448 3.371,-0.814 4.441,-0.814 1.07,0 2.272,-0.393 2.671,-0.874 0.474,-0.571 1.771,-0.873 3.745,-0.873 1.753,0 3.493,-0.359 4.15,-0.855 0.621,-0.47 2.062,-0.863 3.202,-0.873 1.14,-0.011 2.581,-0.404 3.202,-0.874 0.622,-0.47 2.356,-0.863 3.854,-0.873 1.499,-0.01 3.073,-0.367 3.5,-0.794 0.426,-0.426 2.071,-0.952 3.657,-1.17 1.585,-0.217 3.141,-0.654 3.458,-0.971 0.317,-0.318 1.581,-0.577 2.808,-0.577 1.227,0 3.172,-0.393 4.322,-0.873 2.659,-1.111 5.432,-1.113 7.558,-0.004 0.917,0.478 2.978,0.878 4.579,0.887 1.601,0.01 3.959,0.261 5.24,0.559 2.976,0.692 20.878,-0.431 23.29,-1.461 0.96,-0.41 2.888,-0.909 4.282,-1.108 1.395,-0.199 3.281,-0.748 4.192,-1.219 0.912,-0.471 2.26,-0.865 2.996,-0.875 0.737,-0.01 1.848,-0.403 2.469,-0.874 0.622,-0.47 1.722,-0.854 2.446,-0.854 0.723,0 1.525,-0.371 1.781,-0.823 0.412,-0.729 1.819,-1.136 4.911,-1.419 0.523,-0.048 1.347,0.502 1.831,1.223 m -197.688,18.305 c -0.561,0.146 -1.019,0.509 -1.019,0.806 0,0.296 -0.768,0.539 -1.706,0.539 -0.937,0 -2.051,0.342 -2.474,0.76 -0.423,0.418 -2.472,1.055 -4.554,1.414 -6.38,1.101 -8.502,1.674 -9.94,2.681 -0.76,0.532 -1.946,0.968 -2.636,0.968 -0.691,0 -1.581,0.393 -1.98,0.873 -0.399,0.48 -0.955,0.873 -1.236,0.873 -0.668,0 -2.84,2.179 -2.84,2.849 0,0.286 -0.393,0.671 -0.873,0.855 -0.48,0.185 -0.873,0.971 -0.873,1.747 0,0.777 -0.393,1.563 -0.874,1.747 -0.48,0.184 -0.873,1.006 -0.873,1.827 0,0.821 -0.393,1.643 -0.874,1.827 -0.626,0.241 -0.873,1.222 -0.873,3.476 0,2.403 0.205,3.14 0.873,3.14 0.481,0 0.874,0.393 0.874,0.873 0,0.48 0.38,0.873 0.844,0.873 0.465,0 1.054,0.328 1.31,0.728 0.256,0.4 1.423,1.386 2.593,2.19 3.106,2.136 7.509,5.818 9.559,7.994 2.059,2.186 8.159,2.793 10.473,1.043 0.9,-0.681 3.391,-0.859 12.209,-0.874 l 11.079,-0.018 2.895,-3.285 c 4.099,-4.652 6.787,-7.242 8.135,-7.84 5.831,-2.587 6.579,-4.734 2.912,-8.35 -1.442,-1.42 -2.621,-2.828 -2.621,-3.127 0,-0.3 -0.361,-0.845 -0.803,-1.212 -0.441,-0.366 -0.951,-1.407 -1.132,-2.312 -0.681,-3.404 -2.586,-5.727 -5.018,-6.116 -1.245,-0.199 -2.352,-0.572 -2.459,-0.83 -0.107,-0.257 -2.015,-1.077 -4.241,-1.822 -2.225,-0.745 -4.405,-1.714 -4.845,-2.153 -0.439,-0.439 -1.141,-0.799 -1.559,-0.799 -0.418,0 -1.087,-0.393 -1.485,-0.873 -0.693,-0.835 -3.677,-1.071 -5.968,-0.472 m 7.487,3.186 c 3.746,2.011 8.162,3.812 11.187,4.563 2.431,0.603 3.963,1.969 4.458,3.974 0.52,2.105 3.583,6.933 5.946,9.371 2.302,2.377 1.967,3.015 -3.113,5.922 -2.796,1.599 -8.326,7.184 -8.371,8.453 -0.078,2.21 -3.049,2.861 -10.462,2.291 -5.052,-0.388 -15.906,0.555 -20.106,1.747 -0.866,0.246 -1.958,-0.384 -4.075,-2.35 -1.592,-1.477 -5.464,-4.659 -8.607,-7.071 -7.525,-5.775 -7.602,-6.066 -3.706,-13.894 2.603,-5.229 9.228,-9.383 16.664,-10.45 2.5,-0.358 4.916,-1.039 11.679,-3.291 4.262,-1.42 4.535,-1.396 8.506,0.735 M 258.79,131.2 c -1.507,1.021 -15.011,2.079 -20.653,1.617 -5.555,-0.454 -6.601,-0.289 -8.086,1.277 -3.997,4.216 -7.052,7.884 -7.052,8.466 0,0.369 -0.365,0.671 -0.812,0.671 -0.446,0 -0.961,0.393 -1.146,0.874 -0.184,0.48 -0.998,0.873 -1.809,0.873 -0.81,0 -1.474,0.248 -1.474,0.551 0,0.302 -0.72,0.894 -1.601,1.314 -2.586,1.234 -2.42,3.338 0.445,5.641 1.316,1.057 2.632,2.552 2.924,3.322 0.293,0.77 0.801,1.399 1.129,1.399 0.328,0 0.597,0.474 0.597,1.053 0,0.58 0.384,1.562 0.855,2.184 0.47,0.621 0.863,1.72 0.873,2.44 0.01,0.721 0.262,1.31 0.559,1.31 0.298,0 0.949,0.408 1.448,0.907 0.499,0.499 2.237,1.118 3.861,1.375 1.625,0.256 3.253,0.765 3.618,1.13 0.365,0.365 1.103,0.664 1.64,0.664 0.537,0 1.303,0.393 1.702,0.873 0.399,0.481 1.348,0.874 2.109,0.874 0.842,0 1.384,0.341 1.384,0.873 0,0.48 0.509,0.873 1.13,0.873 0.622,0 1.292,0.262 1.49,0.583 0.198,0.32 1.115,0.582 2.038,0.582 0.923,0 1.84,-0.262 2.038,-0.582 0.198,-0.321 1.098,-0.583 2.001,-0.583 0.903,0 1.967,-0.393 2.366,-0.873 0.402,-0.485 1.671,-0.873 2.853,-0.873 1.17,0 2.645,-0.355 3.276,-0.789 0.632,-0.433 2.197,-0.95 3.478,-1.149 10.109,-1.567 18.923,-8.093 18.923,-14.011 0,-0.437 0.393,-1.12 0.873,-1.519 1.192,-0.989 1.162,-5.539 -0.042,-6.527 -0.503,-0.413 -1.42,-1.209 -2.037,-1.77 -0.618,-0.56 -1.385,-1.019 -1.705,-1.019 -0.321,0 -0.583,-0.393 -0.583,-0.873 0,-0.48 -0.279,-0.873 -0.62,-0.873 -0.985,0 -8.628,-6.036 -8.664,-6.842 -0.017,-0.4 -0.425,-0.727 -0.905,-0.727 -0.48,0 -0.873,-0.393 -0.873,-0.874 0,-0.48 -0.365,-0.873 -0.811,-0.873 -0.446,0 -0.962,-0.393 -1.147,-0.874 -0.415,-1.082 -2.068,-1.126 -3.59,-0.095 m 7.202,5.664 c 2.452,2.262 5.769,4.99 7.37,6.062 6.208,4.156 6.614,5.406 3.793,11.678 -2.986,6.639 -7.365,9.666 -17.184,11.875 -3.202,0.721 -7.81,2.073 -10.239,3.005 -4.962,1.905 -6.712,2.079 -8.475,0.844 -2.377,-1.665 -9.253,-4.966 -10.398,-4.993 -2.685,-0.061 -6.37,-2.525 -6.934,-4.636 -0.669,-2.505 -4.046,-7.773 -5.935,-9.259 -2.016,-1.585 -1.764,-3.088 0.744,-4.437 3.298,-1.775 5.526,-3.725 9.451,-8.274 l 3.606,-4.18 10.306,-0.026 c 7.126,-0.018 11.203,-0.283 13.216,-0.86 5.205,-1.49 5.779,-1.318 10.679,3.201"
       inkscape:connector-curvature="0"
       style="fill:#e7e7e7;fill-rule:evenodd;stroke:none" />
    <path
       id="path2"
       d="m 122.562,49.567 c -1.922,1.638 -3.581,3.208 -3.688,3.489 -0.106,0.28 -0.418,0.51 -0.692,0.51 -0.273,0 -1.358,0.786 -2.41,1.747 -1.052,0.961 -2.093,1.747 -2.315,1.747 -0.221,0 -1.306,0.851 -2.412,1.892 -5.281,4.973 -7.24,6.606 -8.716,7.266 -0.881,0.393 -1.601,0.982 -1.601,1.31 0,0.327 -0.268,0.594 -0.595,0.594 -0.517,0 -7.392,6.739 -9.021,8.844 -3.599,4.65 -5.998,7.363 -10.339,11.694 -2.816,2.809 -5.385,5.691 -5.708,6.404 -0.893,1.97 -2.076,3.941 -2.8,4.665 -0.357,0.357 -0.649,1.093 -0.649,1.635 0,0.542 -0.393,1.137 -0.874,1.321 -0.48,0.184 -0.873,0.835 -0.873,1.447 0,0.611 -0.393,1.437 -0.873,1.836 -0.481,0.399 -0.874,1.316 -0.874,2.038 0,0.722 -0.393,1.639 -0.873,2.038 -0.48,0.398 -0.873,1.289 -0.873,1.979 0,0.69 -0.338,1.772 -0.75,2.403 -0.412,0.632 -1.347,2.721 -2.078,4.642 -0.73,1.922 -1.574,3.887 -1.874,4.367 -0.3,0.481 -0.721,1.267 -0.935,1.747 -0.214,0.48 -0.736,1.083 -1.161,1.339 -0.424,0.256 -0.772,0.923 -0.772,1.483 0,0.559 -0.775,1.66 -1.722,2.445 -0.947,0.786 -1.733,1.756 -1.746,2.157 -0.014,0.4 -0.418,0.727 -0.898,0.727 -0.481,0 -0.874,0.321 -0.874,0.714 0,0.997 -4.744,5.107 -5.896,5.108 -0.522,0 -1.274,0.394 -1.673,0.874 -0.399,0.48 -1.316,0.873 -2.038,0.873 -0.722,0 -1.639,0.393 -2.038,0.874 -0.398,0.48 -1.57,0.873 -2.603,0.873 l -1.878,0 -0.364,5.968 c -0.46,7.518 0.137,17.677 1.152,19.622 0.426,0.816 0.777,2.321 0.779,3.342 0.002,1.022 0.245,2.008 0.541,2.19 0.295,0.183 0.718,1.181 0.94,2.218 0.366,1.713 1.319,3.922 2.697,6.253 0.285,0.48 0.671,1.332 0.859,1.892 0.188,0.56 0.567,1.019 0.842,1.019 0.274,0 0.884,0.72 1.354,1.601 2.486,4.655 5.291,6.316 7.652,4.531 0.621,-0.47 1.738,-0.863 2.481,-0.873 0.744,-0.011 1.745,-0.412 2.225,-0.892 0.481,-0.481 1.478,-0.874 2.217,-0.874 0.738,0 1.668,-0.393 2.067,-0.873 0.433,-0.521 1.705,-0.873 3.157,-0.873 1.338,0 2.759,-0.328 3.158,-0.728 0.679,-0.681 3.063,-1.19 13.19,-2.817 5.168,-0.83 16.674,-0.352 22.416,0.931 5.64,1.26 16.228,0.201 20.458,-2.047 0.524,-0.279 2.614,-0.695 4.644,-0.924 2.031,-0.23 4.044,-0.771 4.475,-1.201 0.431,-0.431 1.498,-0.784 2.372,-0.784 0.874,0 1.873,-0.284 2.22,-0.631 0.347,-0.347 2.232,-0.776 4.188,-0.954 1.956,-0.177 3.852,-0.679 4.214,-1.115 0.362,-0.436 1.608,-0.797 2.77,-0.802 1.162,-0.005 3.16,-0.386 4.441,-0.848 1.281,-0.461 3.723,-0.85 5.427,-0.864 1.949,-0.016 3.423,-0.35 3.972,-0.899 0.608,-0.608 2.098,-0.873 4.908,-0.873 2.218,0 4.034,-0.245 4.034,-0.543 0,-0.299 0.537,-0.714 1.193,-0.922 1.523,-0.483 5.211,-4.15 5.211,-5.179 0,-0.431 0.393,-1.109 0.874,-1.508 0.48,-0.399 0.873,-1.316 0.873,-2.038 0,-0.722 0.393,-1.639 0.874,-2.038 0.48,-0.398 0.873,-0.996 0.873,-1.329 0,-0.332 1.356,-2.593 3.013,-5.023 3.154,-4.626 3.034,-4.147 2.755,-10.969 -0.023,-0.561 0.148,-4.314 0.381,-8.342 0.468,-8.111 0.094,-11.6 -1.245,-11.6 -0.476,0 -1.01,-0.377 -1.186,-0.838 -0.177,-0.461 -1.086,-1.005 -2.02,-1.211 -0.934,-0.205 -1.698,-0.596 -1.698,-0.869 0,-0.273 -0.59,-0.681 -1.31,-0.905 -0.721,-0.225 -2.265,-1.159 -3.432,-2.077 -1.167,-0.918 -2.403,-1.669 -2.748,-1.669 -1.018,0 -5.319,-2.401 -5.319,-2.97 0,-0.288 -0.642,-0.524 -1.427,-0.524 -0.785,0 -1.636,-0.327 -1.892,-0.727 -0.496,-0.776 -3.316,-1.982 -6.45,-2.76 -1.05,-0.26 -2.237,-0.745 -2.638,-1.078 -0.492,-0.408 -2.05,-0.426 -4.787,-0.057 -2.232,0.302 -7.726,0.786 -12.21,1.076 -8.893,0.575 -14.017,1.5 -15.527,2.802 -1.611,1.391 -3.655,0.728 -3.881,-1.258 -0.2,-1.749 2.577,-4.985 4.278,-4.985 0.397,0 1.049,-0.393 1.448,-0.873 0.398,-0.48 1.225,-0.873 1.836,-0.873 0.611,0 1.262,-0.393 1.447,-0.874 0.184,-0.48 0.799,-0.873 1.366,-0.873 0.567,0 1.357,-0.393 1.755,-0.873 0.399,-0.481 1.217,-0.874 1.818,-0.874 0.602,0 1.094,-0.275 1.094,-0.612 0,-0.337 0.786,-0.887 1.746,-1.222 0.961,-0.335 1.747,-0.845 1.747,-1.134 0,-0.289 0.328,-0.527 0.728,-0.529 0.4,-0.002 1.383,-0.344 2.183,-0.761 5.05,-2.627 27.605,-4.636 29.756,-2.65 1.176,1.085 2.595,1.951 6.265,3.823 1.718,0.876 3.252,1.929 3.41,2.339 0.157,0.411 1.125,0.746 2.15,0.746 1.026,0 2.373,0.385 2.995,0.855 1.473,1.114 4.184,1.124 5.289,0.019 0.48,-0.481 1.402,-0.874 2.049,-0.874 1.229,0 3.346,-2.096 3.38,-3.348 0.01,-0.4 -0.382,-0.727 -0.872,-0.727 -0.491,0 -1.043,-0.393 -1.227,-0.874 -0.185,-0.48 -0.856,-0.873 -1.493,-0.873 -0.637,0 -1.854,-0.47 -2.704,-1.043 -0.85,-0.574 -2.593,-1.557 -3.874,-2.184 -1.281,-0.627 -2.539,-1.467 -2.795,-1.868 -0.256,-0.4 -0.984,-0.728 -1.619,-0.728 -0.635,0 -1.305,-0.393 -1.489,-0.873 -0.184,-0.48 -0.708,-0.873 -1.165,-0.873 -0.456,0 -0.98,-0.393 -1.164,-0.874 -0.184,-0.48 -1.043,-0.873 -1.908,-0.873 -0.866,0 -2.082,-0.385 -2.704,-0.855 -1.666,-1.26 -28.541,-1.26 -30.208,0 -0.636,0.481 -2.417,0.864 -4.075,0.876 -1.62,0.011 -3.601,0.395 -4.401,0.852 -0.801,0.458 -2.407,0.842 -3.568,0.853 -1.162,0.011 -2.438,0.414 -2.837,0.894 -0.399,0.48 -1.552,0.873 -2.562,0.873 -1.01,0 -2.364,0.37 -3.008,0.821 -2.146,1.503 -6.334,1.444 -6.552,-0.092 -0.135,-0.95 0.209,-1.459 1.253,-1.856 0.792,-0.301 1.612,-0.826 1.822,-1.166 0.21,-0.34 0.863,-0.618 1.45,-0.618 0.587,0 1.218,-0.393 1.403,-0.873 0.184,-0.48 0.704,-0.873 1.155,-0.873 0.451,0 1.133,-0.377 1.514,-0.836 0.382,-0.46 1.462,-1.005 2.401,-1.211 0.938,-0.206 1.706,-0.616 1.706,-0.911 0,-0.295 0.353,-0.536 0.783,-0.536 0.431,0 1.258,-0.524 1.837,-1.164 0.58,-0.641 1.262,-1.165 1.516,-1.165 0.254,0 1.176,-0.661 2.048,-1.47 0.872,-0.808 2.261,-1.633 3.087,-1.833 0.825,-0.2 2.017,-0.718 2.649,-1.151 0.632,-0.432 2.368,-0.786 3.859,-0.786 1.699,0 2.981,-0.326 3.435,-0.873 0.437,-0.526 1.711,-0.874 3.202,-0.874 1.381,0 2.769,-0.351 3.136,-0.793 0.362,-0.436 2.238,-0.936 4.169,-1.111 1.931,-0.175 3.839,-0.591 4.242,-0.925 0.402,-0.334 2.554,-0.766 4.781,-0.96 7.764,-0.677 11.662,-2.391 12.262,-5.39 0.598,-2.988 -0.627,-3.234 -12.455,-2.504 -5.647,0.348 -10.526,0.893 -10.843,1.209 -0.316,0.317 -1.899,0.585 -3.516,0.596 -1.676,0.011 -3.941,0.503 -5.269,1.145 -1.281,0.618 -2.758,1.133 -3.281,1.144 -0.524,0.011 -1.703,0.411 -2.62,0.89 -0.918,0.478 -2.192,0.88 -2.833,0.892 -0.64,0.012 -1.673,0.407 -2.294,0.877 -0.622,0.47 -1.851,0.855 -2.732,0.855 -0.88,0 -1.75,0.241 -1.933,0.537 -0.183,0.296 -1.166,0.721 -2.185,0.944 -1.019,0.224 -2.213,0.768 -2.655,1.21 -0.441,0.441 -1.541,0.802 -2.445,0.802 -0.923,0 -1.79,0.383 -1.978,0.873 -0.184,0.481 -0.867,0.874 -1.518,0.874 -0.65,0 -1.182,0.212 -1.182,0.471 0,0.259 -1.439,1.11 -3.197,1.892 -1.758,0.782 -3.199,1.614 -3.202,1.85 -0.004,0.236 -0.858,0.82 -1.898,1.298 -1.041,0.479 -2.286,1.108 -2.766,1.4 -4.586,2.782 -6.978,2.932 -7.463,0.467 -0.183,-0.927 4.822,-6.796 5.796,-6.796 0.669,0 2.831,-2.187 2.831,-2.863 0,-0.293 0.231,-0.621 0.513,-0.728 1.418,-0.537 18.119,-16.337 18.119,-17.141 0,-1.142 -3.081,-4.817 -4.076,-4.863 -0.16,-0.007 -1.863,1.327 -3.784,2.964 m 220.087,51.007 c -0.96,0.14 -1.956,0.625 -2.212,1.078 -0.256,0.452 -1.058,0.823 -1.781,0.823 -0.724,0 -1.824,0.384 -2.446,0.854 -0.621,0.471 -1.732,0.864 -2.469,0.874 -0.736,0.01 -2.084,0.404 -2.996,0.875 -0.911,0.471 -2.797,1.02 -4.192,1.219 -1.394,0.199 -3.322,0.698 -4.282,1.108 -2.412,1.03 -20.314,2.153 -23.29,1.461 -1.281,-0.298 -3.639,-0.549 -5.24,-0.559 -1.601,-0.009 -3.662,-0.409 -4.579,-0.887 -2.126,-1.109 -4.899,-1.107 -7.558,0.004 -1.15,0.48 -3.095,0.873 -4.322,0.873 -1.227,0 -2.491,0.259 -2.808,0.577 -0.317,0.317 -1.873,0.754 -3.458,0.971 -1.586,0.218 -3.231,0.744 -3.657,1.17 -0.427,0.427 -2.001,0.784 -3.5,0.794 -1.498,0.01 -3.232,0.403 -3.854,0.873 -0.621,0.47 -2.062,0.863 -3.202,0.874 -1.14,0.01 -2.581,0.403 -3.202,0.873 -0.657,0.496 -2.397,0.855 -4.15,0.855 -1.974,0 -3.271,0.302 -3.745,0.873 -0.399,0.481 -1.601,0.874 -2.671,0.874 -1.07,0 -3.069,0.366 -4.441,0.814 -1.372,0.448 -4.391,0.936 -6.708,1.086 -2.317,0.149 -4.544,0.546 -4.949,0.88 -0.405,0.335 -1.717,0.792 -2.915,1.016 -2.287,0.427 -6.48,4.03 -7.151,6.145 -0.195,0.616 -0.6,1.121 -0.899,1.121 -0.298,0 -0.543,0.385 -0.543,0.856 0,0.833 -2.224,5.55 -2.891,6.131 -0.184,0.16 -0.722,1.057 -1.196,1.993 -1.647,3.252 -2.014,3.829 -2.433,3.829 -0.965,0 -1.724,4.774 -1.027,6.457 0.531,1.281 0.522,2.766 -0.039,6.534 -1.38,9.276 -0.078,16.704 2.928,16.704 0.321,0 0.583,0.393 0.583,0.873 0,0.582 0.582,0.874 1.746,0.874 0.961,0 1.747,0.243 1.747,0.539 0,0.297 1.376,1.219 3.057,2.049 1.681,0.83 3.45,1.747 3.93,2.038 0.48,0.291 1.266,0.682 1.747,0.869 0.48,0.187 1.659,0.857 2.62,1.489 1.979,1.303 4.18,2.331 4.987,2.331 0.299,0 0.544,0.206 0.544,0.458 0,0.252 1.776,1.074 3.946,1.826 4.892,1.697 29.849,0.381 32.444,-1.71 0.321,-0.258 1.568,-0.654 2.772,-0.879 1.205,-0.225 2.342,-0.654 2.527,-0.953 0.588,-0.952 1.979,0.738 1.979,2.404 0,1.552 -1.529,3.512 -2.74,3.512 -0.336,0 -0.937,0.393 -1.335,0.874 -0.399,0.48 -1.204,0.873 -1.789,0.873 -0.586,0 -1.274,0.336 -1.53,0.746 -0.451,0.722 -2.82,2.092 -9.491,5.485 -1.761,0.896 -3.287,1.818 -3.39,2.048 -0.103,0.23 -1.151,0.59 -2.329,0.801 -1.178,0.211 -2.534,0.724 -3.014,1.14 -0.596,0.516 -3.65,0.849 -9.607,1.048 -4.804,0.16 -9.852,0.469 -11.218,0.687 -2.554,0.407 -3.229,0.183 -8.579,-2.848 -9.436,-5.348 -10.098,-5.614 -14.006,-5.614 -2.723,0 -3.877,0.231 -4.103,0.821 -0.174,0.452 -0.923,0.974 -1.665,1.16 -2.482,0.623 -1.616,4.297 1.039,4.405 0.263,0.01 0.871,0.412 1.351,0.893 0.481,0.48 1.351,0.873 1.934,0.873 0.584,0 1.212,0.393 1.396,0.873 0.184,0.481 0.97,0.874 1.747,0.874 0.776,0 1.562,0.393 1.747,0.873 0.184,0.48 0.809,0.873 1.388,0.873 0.579,0 1.913,0.786 2.965,1.747 1.052,0.961 2.14,1.747 2.417,1.747 0.278,0 0.861,0.356 1.296,0.791 0.513,0.513 3.654,1.034 8.921,1.479 15.878,1.344 18.034,1.417 19.448,0.66 0.741,-0.397 3.41,-0.863 5.929,-1.036 2.806,-0.192 4.836,-0.62 5.238,-1.104 0.36,-0.435 1.488,-0.79 2.506,-0.79 1.017,0 2.109,-0.26 2.426,-0.577 0.318,-0.317 1.874,-0.754 3.459,-0.972 1.585,-0.217 3.231,-0.743 3.657,-1.17 0.427,-0.426 1.608,-0.783 2.626,-0.793 1.018,-0.01 2.359,-0.403 2.981,-0.874 1.473,-1.114 4.342,-1.103 4.772,0.018 0.389,1.012 -1.988,3.754 -3.282,3.788 -0.481,0.013 -1.529,0.536 -2.329,1.162 -0.801,0.626 -1.671,1.144 -1.934,1.152 -0.263,0.007 -0.871,0.406 -1.352,0.886 -0.48,0.48 -1.35,0.873 -1.934,0.873 -0.583,0 -1.211,0.393 -1.395,0.874 -0.185,0.48 -0.765,0.873 -1.289,0.873 -0.524,0 -1.908,0.742 -3.075,1.65 -1.167,0.907 -2.58,1.816 -3.141,2.02 -0.56,0.203 -1.018,0.639 -1.018,0.97 0,0.33 -0.496,0.6 -1.103,0.6 -0.606,0 -1.253,0.393 -1.437,0.873 -0.217,0.565 -1.119,0.874 -2.553,0.874 -1.22,0 -2.734,0.354 -3.366,0.787 -0.632,0.433 -2.328,0.97 -3.769,1.194 -2.846,0.441 -7.748,1.9 -9.607,2.86 -0.64,0.33 -3.26,0.708 -5.822,0.838 -2.562,0.131 -5.484,0.609 -6.493,1.064 -1.009,0.454 -2.56,0.826 -3.448,0.826 -4.565,0 -8.89,4.618 -6.215,6.636 1.493,1.126 7.531,1.065 13.245,-0.133 1.601,-0.336 5.569,-0.627 8.817,-0.646 4.69,-0.027 5.974,-0.214 6.241,-0.908 0.217,-0.566 1.12,-0.873 2.571,-0.873 1.229,0 2.744,-0.385 3.366,-0.855 0.621,-0.47 1.785,-0.872 2.586,-0.893 0.8,-0.021 2.503,-0.545 3.784,-1.164 1.281,-0.618 3.05,-1.133 3.93,-1.144 0.881,-0.011 1.601,-0.254 1.601,-0.539 0,-0.286 0.721,-0.688 1.602,-0.894 1.529,-0.357 4.688,-1.684 6.55,-2.752 0.48,-0.275 1.266,-0.649 1.747,-0.83 0.48,-0.181 1.266,-0.574 1.746,-0.873 0.481,-0.299 1.267,-0.692 1.747,-0.873 0.48,-0.182 1.266,-0.574 1.747,-0.872 0.48,-0.297 1.437,-0.786 2.127,-1.086 0.689,-0.3 1.425,-0.823 1.635,-1.163 0.21,-0.34 0.863,-0.618 1.45,-0.618 0.587,0 1.219,-0.393 1.403,-0.874 0.184,-0.48 0.747,-0.873 1.25,-0.873 0.504,0 1.625,-0.521 2.493,-1.157 2.746,-2.013 5.202,-2.162 6.02,-0.365 0.728,1.597 -3.161,5.919 -12.894,14.331 -1.667,1.441 -4.411,3.93 -6.098,5.532 -1.687,1.601 -4.147,3.874 -5.467,5.052 -2.517,2.245 -3.239,4.851 -1.526,5.508 0.48,0.185 0.873,0.701 0.873,1.147 0,1.894 3.459,0.876 6.144,-1.809 1.441,-1.441 2.824,-2.62 3.073,-2.62 0.249,0 1.342,-0.917 2.428,-2.038 1.086,-1.121 2.159,-2.038 2.383,-2.038 0.425,0 1.906,-1.2 7.551,-6.114 5.757,-5.011 7.203,-6.104 8.552,-6.468 0.721,-0.195 1.31,-0.562 1.31,-0.817 0,-0.431 2.461,-3.46 4.804,-5.913 0.56,-0.587 1.019,-1.329 1.019,-1.649 0,-0.32 0.393,-0.582 0.873,-0.582 0.48,0 0.873,-0.271 0.873,-0.602 0,-0.331 0.786,-1.37 1.747,-2.309 0.961,-0.939 1.747,-1.936 1.747,-2.215 0,-0.436 2.178,-2.679 6.471,-6.664 0.604,-0.561 1.242,-1.019 1.417,-1.019 0.596,0 3.137,-3.199 3.156,-3.972 0.01,-0.423 0.411,-1.163 0.892,-1.643 0.48,-0.48 0.873,-1.387 0.873,-2.014 0,-0.628 0.393,-1.292 0.873,-1.477 0.481,-0.184 0.874,-0.815 0.874,-1.403 0,-0.587 0.239,-1.215 0.532,-1.396 0.587,-0.363 2.634,-4.525 3.238,-6.582 0.211,-0.72 0.628,-1.31 0.927,-1.31 0.299,0 0.543,-0.418 0.543,-0.929 0,-0.511 0.353,-1.624 0.785,-2.474 1.46,-2.875 2.627,-5.615 3.013,-7.077 0.627,-2.37 2.669,-6.405 3.241,-6.405 0.292,0 0.53,-0.262 0.53,-0.582 0,-0.32 0.459,-1.083 1.019,-1.695 0.56,-0.612 2.41,-2.678 4.11,-4.591 3.095,-3.482 9.953,-7.662 12.645,-7.707 3.555,-0.06 3.95,-1.404 3.925,-13.345 -0.019,-9.15 -0.18,-11.219 -0.963,-12.336 -0.517,-0.738 -0.948,-2.266 -0.958,-3.396 -0.01,-1.129 -0.403,-2.562 -0.874,-3.184 -0.47,-0.621 -0.854,-1.978 -0.854,-3.015 0,-1.037 -0.393,-2.278 -0.874,-2.758 -0.48,-0.481 -0.873,-1.257 -0.873,-1.726 0,-0.469 -0.393,-1.004 -0.873,-1.188 -0.481,-0.184 -0.874,-0.671 -0.874,-1.081 -10e-4,-0.411 -0.945,-1.794 -2.099,-3.075 -1.155,-1.281 -2.495,-2.919 -2.978,-3.639 -0.875,-1.304 -1.198,-1.367 -4.53,-0.882 m -187.19,19.659 c 0.398,0.48 1.067,0.873 1.485,0.873 0.418,0 1.12,0.36 1.559,0.799 0.44,0.439 2.62,1.408 4.845,2.153 2.226,0.745 4.134,1.565 4.241,1.822 0.107,0.258 1.214,0.631 2.459,0.83 2.432,0.389 4.337,2.712 5.018,6.116 0.181,0.905 0.691,1.946 1.132,2.312 0.442,0.367 0.803,0.912 0.803,1.212 0,0.299 1.179,1.707 2.621,3.127 3.667,3.616 2.919,5.763 -2.912,8.35 -1.348,0.598 -4.036,3.188 -8.135,7.84 l -2.895,3.285 -11.079,0.018 c -8.818,0.015 -11.309,0.193 -12.209,0.874 -2.314,1.75 -8.414,1.143 -10.473,-1.043 -2.05,-2.176 -6.453,-5.858 -9.559,-7.994 -1.17,-0.804 -2.337,-1.79 -2.593,-2.19 -0.256,-0.4 -0.845,-0.728 -1.31,-0.728 -0.464,0 -0.844,-0.393 -0.844,-0.873 0,-0.48 -0.393,-0.873 -0.874,-0.873 -0.668,0 -0.873,-0.737 -0.873,-3.14 0,-2.254 0.247,-3.235 0.873,-3.476 0.481,-0.184 0.874,-1.006 0.874,-1.827 0,-0.821 0.393,-1.643 0.873,-1.827 0.481,-0.184 0.874,-0.97 0.874,-1.747 0,-0.776 0.393,-1.562 0.873,-1.747 0.48,-0.184 0.873,-0.569 0.873,-0.855 0,-0.67 2.172,-2.849 2.84,-2.849 0.281,0 0.837,-0.393 1.236,-0.873 0.399,-0.48 1.289,-0.873 1.98,-0.873 0.69,0 1.876,-0.436 2.636,-0.968 1.438,-1.007 3.56,-1.58 9.94,-2.681 2.082,-0.359 4.131,-0.996 4.554,-1.414 0.423,-0.418 1.537,-0.76 2.474,-0.76 0.938,0 1.706,-0.243 1.706,-0.539 0,-1.3 5.949,-1.584 6.987,-0.334 m 106.921,11.062 c 0.185,0.481 0.701,0.874 1.147,0.874 0.446,0 0.811,0.393 0.811,0.873 0,0.481 0.393,0.874 0.873,0.874 0.48,0 0.888,0.327 0.905,0.727 0.036,0.806 7.679,6.842 8.664,6.842 0.341,0 0.62,0.393 0.62,0.873 0,0.48 0.262,0.873 0.583,0.873 0.32,0 1.087,0.459 1.705,1.019 0.617,0.561 1.534,1.357 2.037,1.77 1.204,0.988 1.234,5.538 0.042,6.527 -0.48,0.399 -0.873,1.082 -0.873,1.519 0,5.918 -8.814,12.444 -18.923,14.011 -1.281,0.199 -2.846,0.716 -3.478,1.149 -0.631,0.434 -2.106,0.789 -3.276,0.789 -1.182,0 -2.451,0.388 -2.853,0.873 -0.399,0.48 -1.463,0.873 -2.366,0.873 -0.903,0 -1.803,0.262 -2.001,0.583 -0.198,0.32 -1.115,0.582 -2.038,0.582 -0.923,0 -1.84,-0.262 -2.038,-0.582 -0.198,-0.321 -0.868,-0.583 -1.49,-0.583 -0.621,0 -1.13,-0.393 -1.13,-0.873 0,-0.532 -0.542,-0.873 -1.384,-0.873 -0.761,0 -1.71,-0.393 -2.109,-0.874 -0.399,-0.48 -1.165,-0.873 -1.702,-0.873 -0.537,0 -1.275,-0.299 -1.64,-0.664 -0.365,-0.365 -1.993,-0.874 -3.618,-1.13 -1.624,-0.257 -3.362,-0.876 -3.861,-1.375 -0.499,-0.499 -1.15,-0.907 -1.448,-0.907 -0.297,0 -0.549,-0.589 -0.559,-1.31 -0.01,-0.72 -0.403,-1.819 -0.873,-2.44 -0.471,-0.622 -0.855,-1.604 -0.855,-2.184 0,-0.579 -0.269,-1.053 -0.597,-1.053 -0.328,0 -0.836,-0.629 -1.129,-1.399 -0.292,-0.77 -1.608,-2.265 -2.924,-3.322 -2.865,-2.303 -3.031,-4.407 -0.445,-5.641 0.881,-0.42 1.601,-1.012 1.601,-1.314 0,-0.303 0.664,-0.551 1.474,-0.551 0.811,0 1.625,-0.393 1.809,-0.873 0.185,-0.481 0.7,-0.874 1.146,-0.874 0.447,0 0.812,-0.302 0.812,-0.671 0,-0.582 3.055,-4.25 7.052,-8.466 1.485,-1.566 2.531,-1.731 8.086,-1.277 5.642,0.462 19.146,-0.596 20.653,-1.617 1.522,-1.031 3.175,-0.987 3.59,0.095"
       inkscape:connector-curvature="0"
       style="fill:#ffffff;fill-rule:evenodd;stroke:none" />
    <path
       id="path3"
       d="m 32.023,0.582 c 0,0.32 -1.16,0.582 -2.578,0.582 -1.516,0 -2.939,0.36 -3.452,0.874 -0.48,0.48 -1.555,0.873 -2.389,0.873 -0.833,0 -1.666,0.393 -1.851,0.874 -0.184,0.48 -0.943,0.873 -1.686,0.873 -0.744,0 -1.698,0.327 -2.121,0.728 -0.424,0.4 -1.548,1.121 -2.5,1.601 -0.951,0.48 -3.124,2.249 -4.829,3.93 -1.704,1.681 -3.291,3.057 -3.526,3.057 -0.562,0 -2.433,2.197 -2.433,2.855 0,0.283 -0.393,0.664 -0.873,0.849 -0.481,0.184 -0.874,0.708 -0.874,1.164 0,0.456 -0.393,0.98 -0.873,1.165 -0.511,0.196 -0.874,1.068 -0.874,2.1 0,0.971 -0.262,1.765 -0.582,1.765 C 0.196,23.872 0,64.823 0,145.56 c 0,80.738 0.196,121.689 0.582,121.689 0.32,0 0.582,0.623 0.582,1.384 0,0.762 0.393,1.711 0.874,2.109 0.48,0.399 0.873,1.028 0.873,1.398 0,0.369 0.735,1.32 1.633,2.112 0.898,0.792 1.813,1.915 2.034,2.495 0.22,0.581 0.665,0.893 0.987,0.694 0.323,-0.2 0.586,0.046 0.586,0.545 0,0.499 0.335,0.908 0.744,0.908 0.409,0 1.491,0.851 2.404,1.892 0.913,1.041 1.692,1.762 1.731,1.603 0.039,-0.158 0.897,0.3 1.907,1.019 1.01,0.72 2.011,1.308 2.225,1.308 0.214,0 0.781,0.393 1.262,0.874 0.48,0.48 1.346,0.873 1.925,0.873 0.578,0 1.378,0.393 1.776,0.873 0.399,0.481 1.447,0.874 2.329,0.874 0.882,0 1.93,0.393 2.329,0.873 0.416,0.502 1.686,0.873 2.983,0.873 1.241,0 2.257,0.262 2.257,0.583 0,0.386 56.478,0.582 168.268,0.582 111.791,0 168.268,-0.196 168.268,-0.582 0,-0.321 0.728,-0.583 1.617,-0.583 0.89,0 2.169,-0.386 2.844,-0.859 0.674,-0.472 2.042,-0.921 3.04,-0.997 0.998,-0.076 1.815,-0.351 1.815,-0.611 0,-0.462 2.292,-1.543 2.953,-1.393 0.183,0.042 0.763,-0.317 1.289,-0.798 1.976,-1.802 2.533,-2.149 4.074,-2.536 0.87,-0.218 1.582,-0.785 1.582,-1.259 0,-0.475 0.196,-0.863 0.437,-0.863 1.331,-0.003 8.879,-8.399 8.879,-9.877 0,-0.378 0.393,-1.079 0.873,-1.559 0.481,-0.481 0.874,-1.641 0.874,-2.579 0,-0.938 0.262,-1.705 0.582,-1.705 0.386,0 0.582,-40.175 0.582,-119.36 0,-79.184 -0.196,-119.359 -0.582,-119.359 -0.32,0 -0.582,-0.885 -0.582,-1.967 0,-1.081 -0.393,-2.292 -0.874,-2.691 -0.48,-0.399 -0.873,-1.086 -0.873,-1.527 0,-0.906 -0.46,-1.484 -4.924,-6.188 -1.747,-1.841 -3.45,-3.348 -3.784,-3.348 -0.335,0 -0.608,-0.267 -0.608,-0.594 0,-0.327 -0.721,-0.914 -1.601,-1.304 -0.881,-0.389 -1.897,-0.973 -2.258,-1.297 -2.133,-1.914 -7.032,-4.374 -8.711,-4.374 -0.694,0 -1.587,-0.393 -1.986,-0.873 -0.399,-0.481 -1.61,-0.874 -2.691,-0.874 -1.082,0 -1.967,-0.262 -1.967,-0.582 C 368.559,0.195 312.082,0 200.291,0 88.501,0 32.023,0.195 32.023,0.582 m 95.592,43.238 c 0.423,0.404 1.49,1.054 2.37,1.444 0.881,0.389 1.602,1.125 1.602,1.636 0,0.51 0.393,1.32 0.873,1.8 0.48,0.481 0.873,1.74 0.873,2.799 0,1.058 -0.393,2.251 -0.873,2.649 -0.48,0.399 -0.873,0.976 -0.873,1.282 0,0.47 -4.455,5.123 -4.906,5.123 -0.234,0 -4.338,3.557 -6.55,5.677 -1.086,1.041 -2.228,1.892 -2.538,1.892 -0.309,0 -0.562,0.393 -0.562,0.874 0,0.48 -0.393,0.873 -0.874,0.873 -0.48,0 -0.873,0.374 -0.873,0.831 0,0.457 -0.459,0.95 -1.019,1.097 -0.744,0.194 -0.654,0.284 0.333,0.333 0.743,0.038 1.744,-0.325 2.225,-0.805 0.48,-0.481 1.35,-0.874 1.934,-0.874 0.583,0 1.211,-0.393 1.395,-0.873 0.185,-0.48 0.761,-0.873 1.281,-0.873 0.52,0 1.611,-0.525 2.426,-1.165 0.814,-0.64 1.808,-1.164 2.208,-1.164 0.401,0 1.479,-0.392 2.396,-0.87 0.918,-0.479 2.061,-0.88 2.541,-0.892 0.481,-0.012 1.382,-0.407 2.004,-0.877 0.622,-0.47 1.885,-0.855 2.807,-0.855 0.923,0 2.07,-0.393 2.551,-0.873 0.48,-0.481 1.444,-0.883 2.141,-0.894 0.698,-0.012 1.924,-0.395 2.724,-0.853 0.801,-0.458 2.275,-0.841 3.277,-0.853 1.002,-0.011 2.128,-0.39 2.502,-0.841 0.375,-0.452 2.045,-0.944 3.711,-1.093 1.666,-0.149 4.077,-0.56 5.358,-0.912 1.281,-0.352 5.673,-0.646 9.76,-0.654 4.727,-0.009 7.837,-0.267 8.545,-0.709 0.863,-0.539 1.457,-0.539 2.64,0 0.839,0.382 2.192,0.695 3.006,0.695 3.211,0 5.011,5.743 2.647,8.443 -1.662,1.897 -4.627,3.784 -5.947,3.784 -0.676,0 -1.622,0.393 -2.103,0.874 -0.653,0.653 -2.295,0.878 -6.508,0.892 -4.03,0.013 -5.958,0.262 -6.766,0.873 -0.622,0.47 -1.875,0.855 -2.786,0.855 -0.911,0 -2.236,0.362 -2.946,0.804 -0.709,0.442 -2.71,0.959 -4.448,1.149 -1.737,0.19 -3.309,0.574 -3.493,0.853 -0.184,0.279 -1.514,0.666 -2.955,0.859 -3.539,0.474 -9.634,3.759 -11.645,6.276 -0.16,0.2 -1.077,0.645 -2.038,0.988 -1.271,0.454 -1.43,0.635 -0.582,0.666 0.64,0.023 1.945,-0.364 2.898,-0.862 0.954,-0.497 3.443,-1.055 5.532,-1.24 2.088,-0.185 4.165,-0.629 4.615,-0.985 1.221,-0.966 26.537,-0.893 27.509,0.08 0.4,0.4 1.759,0.728 3.021,0.728 2.422,0 7.319,2.098 7.796,3.341 0.155,0.404 0.655,0.734 1.111,0.734 0.456,0 0.98,0.393 1.165,0.874 0.184,0.48 0.799,0.873 1.366,0.873 0.567,0 1.336,0.367 1.708,0.816 0.373,0.449 1.322,0.978 2.109,1.176 0.788,0.197 1.432,0.616 1.432,0.93 0,0.314 0.623,0.571 1.384,0.571 0.762,0 1.711,0.393 2.109,0.874 0.399,0.48 1.028,0.873 1.398,0.873 0.37,0 1.084,0.459 1.587,1.019 0.502,0.561 1.388,1.295 1.969,1.632 1.339,0.777 -0.354,5.256 -2.21,5.845 -0.611,0.194 -1.61,0.851 -2.219,1.46 -0.609,0.609 -1.615,1.107 -2.237,1.107 -0.621,0 -1.292,0.262 -1.49,0.582 -0.759,1.229 -10.413,-0.513 -11.709,-2.113 -0.355,-0.439 -1.215,-0.798 -1.91,-0.798 -0.696,0 -1.415,-0.393 -1.6,-0.874 -0.184,-0.48 -0.681,-0.873 -1.104,-0.873 -0.424,0 -1.119,-0.349 -1.545,-0.775 -0.426,-0.426 -1.493,-0.955 -2.371,-1.176 -0.877,-0.22 -1.595,-0.657 -1.595,-0.971 0,-1.002 -21.032,-0.7 -22.382,0.321 -0.622,0.47 -1.838,0.854 -2.703,0.854 -0.866,0 -1.724,0.393 -1.909,0.874 -0.184,0.48 -0.852,0.873 -1.483,0.873 -0.632,0 -1.32,0.278 -1.531,0.618 -0.21,0.34 -0.946,0.875 -1.635,1.188 -0.69,0.313 -2.695,1.341 -4.456,2.283 l -3.202,1.714 15.172,0.01 c 12.429,0.008 15.377,0.164 16.303,0.864 0.622,0.471 1.557,0.864 2.078,0.874 0.521,0.01 1.252,0.386 1.625,0.834 0.373,0.449 1.343,0.984 2.157,1.188 0.815,0.204 2.572,1.076 3.907,1.938 4.44,2.866 4.751,3.043 6.793,3.869 0.48,0.194 1.659,0.874 2.62,1.51 0.96,0.636 2.467,1.445 3.348,1.797 0.88,0.353 1.601,0.877 1.601,1.166 0,0.289 0.401,0.526 0.891,0.526 0.491,0 1.043,0.393 1.227,0.873 0.185,0.48 0.7,0.873 1.146,0.873 0.447,0 0.811,0.496 0.811,1.102 0,0.607 0.394,1.253 0.874,1.438 0.709,0.272 0.873,1.642 0.873,7.269 0,5.453 -0.186,7.088 -0.873,7.659 -0.48,0.398 -0.874,1.581 -0.874,2.629 0,1.155 0.344,2.036 0.874,2.239 0.543,0.209 0.873,1.096 0.873,2.35 0,1.108 -0.393,2.407 -0.873,2.888 -0.48,0.48 -0.874,1.293 -0.874,1.806 0,0.513 -0.393,1.084 -0.873,1.269 -0.48,0.184 -0.873,0.815 -0.873,1.402 0,0.588 -0.278,1.24 -0.618,1.45 -0.34,0.21 -0.864,0.946 -1.163,1.636 -0.3,0.689 -0.77,1.646 -1.044,2.127 -0.274,0.48 -0.922,1.859 -1.441,3.065 -2.118,4.924 -3.11,6.586 -5.107,8.553 -3.069,3.023 -3.821,3.52 -5.333,3.52 -0.75,0 -1.69,0.325 -2.087,0.723 -0.736,0.735 -5.047,1.671 -12.88,2.793 -2.39,0.343 -4.617,0.842 -4.949,1.108 -0.332,0.267 -2.045,0.677 -3.806,0.91 -1.761,0.234 -3.91,0.787 -4.775,1.23 -0.864,0.443 -2.319,0.805 -3.231,0.805 -0.913,0 -1.936,0.277 -2.275,0.616 -0.339,0.339 -2.092,0.768 -3.897,0.954 -1.805,0.187 -3.577,0.695 -3.939,1.131 -0.386,0.465 -1.801,0.793 -3.426,0.793 -1.751,0 -3.035,0.321 -3.494,0.873 -0.409,0.493 -1.678,0.873 -2.916,0.873 -1.205,0 -2.941,0.392 -3.858,0.87 -2.349,1.225 -14.961,1.225 -17.31,0 -2.348,-1.225 -20.934,-1.222 -23.077,0.004 -0.846,0.483 -3.075,0.84 -5.324,0.852 -2.887,0.016 -3.952,0.242 -4.203,0.894 -0.184,0.481 -0.932,0.875 -1.663,0.877 -0.731,0.002 -1.996,0.353 -2.813,0.779 -0.816,0.426 -2.456,0.932 -3.645,1.125 -1.188,0.193 -2.569,0.76 -3.069,1.259 -0.5,0.5 -1.48,0.918 -2.178,0.928 -0.697,0.01 -1.777,0.403 -2.398,0.873 -2.707,2.048 -9.059,-0.903 -9.059,-4.208 0,-0.417 -0.237,-0.759 -0.526,-0.759 -0.289,0 -0.799,-0.786 -1.134,-1.747 -0.335,-0.961 -0.854,-1.747 -1.153,-1.747 -0.3,0 -0.704,-0.458 -0.897,-1.019 -0.194,-0.56 -0.876,-1.805 -1.515,-2.765 -0.64,-0.961 -1.43,-2.402 -1.758,-3.203 -0.327,-0.8 -0.986,-2.151 -1.464,-3.001 -0.478,-0.85 -0.869,-2.173 -0.869,-2.94 0,-0.767 -0.276,-1.671 -0.614,-2.008 -0.968,-0.969 -1.806,-14.362 -1.378,-22.036 0.427,-7.648 1.144,-9.139 4.782,-9.948 1.496,-0.333 2.808,-0.847 7.821,-3.066 1.192,-0.528 2.175,-1.287 2.183,-1.688 0.008,-0.4 0.26,-0.727 0.558,-0.727 1.056,0 6.395,-5.716 6.783,-7.261 0.216,-0.862 0.752,-1.705 1.191,-1.873 0.44,-0.169 0.799,-0.942 0.799,-1.718 0,-0.777 0.393,-1.563 0.873,-1.747 0.481,-0.185 0.874,-0.971 0.874,-1.747 0,-0.776 0.393,-1.562 0.873,-1.747 0.48,-0.184 0.873,-0.97 0.873,-1.746 0,-0.777 0.393,-1.563 0.874,-1.747 0.48,-0.184 0.873,-0.944 0.873,-1.687 0,-0.743 0.393,-1.745 0.873,-2.225 0.481,-0.48 0.874,-1.366 0.874,-1.968 0,-0.602 0.385,-1.604 0.855,-2.225 0.47,-0.622 0.863,-1.499 0.873,-1.951 0.029,-1.301 4.295,-9.482 5.107,-9.794 0.404,-0.155 0.734,-0.655 0.734,-1.111 0,-0.456 0.393,-0.98 0.873,-1.164 0.481,-0.185 0.874,-0.7 0.874,-1.146 0,-0.447 0.393,-0.812 0.873,-0.812 0.48,0 0.873,-0.287 0.873,-0.638 0,-0.351 2.031,-2.675 4.513,-5.164 4.522,-4.535 6.744,-7.12 9.461,-11.005 2.044,-2.923 3.156,-3.935 10.626,-9.674 2.482,-1.907 4.512,-3.672 4.512,-3.922 0,-0.251 0.271,-0.455 0.602,-0.455 0.331,0 1.371,-0.786 2.31,-1.747 0.939,-0.961 1.838,-1.747 1.999,-1.747 0.16,0 1.174,-0.883 2.253,-1.962 1.079,-1.079 2.725,-2.452 3.658,-3.051 0.933,-0.599 2.681,-1.987 3.884,-3.085 4.206,-3.836 6.88,-5.147 8.106,-3.977 m 221.283,54.155 c 2.195,2.198 4.523,5.369 4.523,6.16 0,0.299 0.393,0.695 0.873,0.879 0.48,0.184 0.873,0.97 0.873,1.747 0,0.776 0.393,1.562 0.874,1.746 0.48,0.185 0.873,0.705 0.873,1.156 0,0.451 0.386,1.141 0.858,1.532 0.472,0.392 1.025,1.603 1.229,2.692 0.205,1.088 0.575,1.979 0.824,1.979 0.249,0 0.631,0.949 0.849,2.11 0.217,1.16 0.628,2.535 0.912,3.056 4.065,7.459 2.32,30.857 -2.309,30.952 -0.499,0.01 -1.416,0.403 -2.037,0.873 -0.622,0.47 -1.623,0.855 -2.225,0.855 -0.603,0 -1.488,0.393 -1.969,0.873 -0.48,0.481 -1.35,0.874 -1.934,0.874 -0.583,0 -1.211,0.393 -1.395,0.873 -0.185,0.48 -0.632,0.873 -0.994,0.873 -0.775,0 -6.365,5.585 -6.365,6.359 0,0.292 -0.196,0.618 -0.437,0.725 -0.816,0.363 -2.863,3.681 -3.263,5.289 -0.219,0.881 -0.655,1.601 -0.969,1.601 -0.314,0 -0.571,0.466 -0.571,1.035 0,0.569 -0.354,1.552 -0.787,2.183 -0.432,0.632 -0.961,1.869 -1.175,2.75 -0.214,0.881 -0.646,1.601 -0.96,1.601 -0.315,0 -0.572,0.623 -0.572,1.384 0,0.762 -0.393,1.711 -0.873,2.11 -0.48,0.398 -0.873,1.217 -0.873,1.82 0,0.602 -0.524,2.073 -1.165,3.268 -0.64,1.195 -1.164,2.472 -1.164,2.838 0,0.365 -0.393,0.991 -0.874,1.389 -0.48,0.399 -0.873,1.159 -0.873,1.689 0,0.53 -0.786,1.824 -1.747,2.876 -0.96,1.051 -1.746,2.283 -1.746,2.735 0,0.453 -2.883,3.695 -6.405,7.205 -3.523,3.509 -6.405,6.66 -6.405,7.001 0,0.341 -0.393,0.62 -0.873,0.62 -0.48,0 -0.873,0.365 -0.873,0.811 0,0.446 -0.393,0.962 -0.874,1.146 -0.48,0.184 -0.873,0.708 -0.873,1.164 0,1.659 -10.434,11.435 -12.204,11.435 -0.333,0 -0.605,0.393 -0.605,0.873 0,0.48 -0.271,0.873 -0.602,0.873 -0.331,0 -1.371,0.786 -2.31,1.747 -0.939,0.961 -1.926,1.747 -2.194,1.747 -0.268,0 -1.825,1.31 -3.46,2.911 -1.635,1.601 -3.139,2.911 -3.342,2.911 -0.203,0 -0.685,0.267 -1.072,0.593 -2.807,2.368 -3.595,2.901 -4.286,2.901 -0.431,0 -0.784,0.262 -0.784,0.582 0,0.755 -2.156,2.911 -2.911,2.911 -0.32,0 -0.582,0.269 -0.582,0.597 0,0.979 -2.913,1.785 -5.021,1.389 -1.113,-0.209 -1.966,-0.72 -1.966,-1.177 0,-0.445 -0.393,-0.809 -0.874,-0.809 -0.546,0 -0.873,-0.552 -0.873,-1.474 0,-0.81 -0.393,-1.624 -0.873,-1.809 -0.541,-0.207 -0.874,-1.093 -0.874,-2.329 0,-1.235 0.333,-2.121 0.874,-2.329 0.48,-0.184 0.873,-0.708 0.873,-1.164 0,-0.456 0.393,-0.98 0.873,-1.165 0.481,-0.184 0.874,-0.7 0.874,-1.146 0,-0.446 0.393,-0.811 0.873,-0.811 0.48,0 0.873,-0.393 0.873,-0.873 0,-0.481 0.227,-0.874 0.503,-0.874 0.537,0 4.626,-3.588 9.785,-8.588 3.835,-3.715 2.552,-4.284 -2.297,-1.019 -1.664,1.121 -3.423,2.047 -3.907,2.057 -0.485,0.01 -1.39,0.403 -2.011,0.873 -0.622,0.47 -1.492,0.855 -1.934,0.855 -0.442,0 -1.197,0.393 -1.677,0.873 -0.481,0.481 -1.74,0.874 -2.799,0.874 -1.058,0 -2.251,0.393 -2.65,0.873 -0.398,0.48 -1.544,0.882 -2.545,0.892 -1.002,0.01 -2.33,0.403 -2.952,0.873 -0.621,0.47 -1.744,0.855 -2.495,0.855 -0.75,0 -1.945,0.368 -2.654,0.818 -0.709,0.45 -2.731,1.003 -4.492,1.23 -1.761,0.226 -3.464,0.611 -3.784,0.855 -0.321,0.244 -2.743,0.626 -5.383,0.848 -2.64,0.222 -5.652,0.648 -6.692,0.947 -3.68,1.055 -15.365,0.757 -16.989,-0.434 -6.067,-4.447 -0.238,-12.886 8.976,-12.996 1.859,-0.022 3.677,-0.397 4.333,-0.893 0.666,-0.504 2.407,-0.855 4.24,-0.855 1.71,0 4.05,-0.393 5.2,-0.874 1.149,-0.48 2.943,-0.873 3.985,-0.873 1.043,0 2.222,-0.393 2.621,-0.873 0.491,-0.592 1.808,-0.874 4.084,-0.874 2.45,0 3.451,-0.236 3.695,-0.873 0.212,-0.55 1.103,-0.873 2.41,-0.873 1.307,0 2.198,-0.324 2.41,-0.874 0.184,-0.48 0.7,-0.873 1.146,-0.873 0.446,0 0.811,-0.24 0.811,-0.534 0,-0.294 1.337,-1.306 2.97,-2.249 l 2.971,-1.715 -3.116,0.292 c -1.714,0.161 -3.281,0.547 -3.482,0.859 -1.481,2.293 -36.336,2.37 -38.621,0.085 -0.448,-0.448 -1.291,-0.814 -1.874,-0.814 -0.583,0 -2.091,-0.918 -3.35,-2.038 -1.259,-1.121 -2.602,-2.037 -2.985,-2.037 -0.383,0 -1.023,-0.393 -1.421,-0.874 -0.399,-0.48 -1.225,-0.873 -1.837,-0.873 -0.611,0 -1.262,-0.393 -1.446,-0.874 -0.185,-0.48 -0.971,-0.873 -1.747,-0.873 -0.776,0 -1.563,-0.393 -1.747,-0.873 -0.184,-0.481 -0.799,-0.874 -1.366,-0.874 -0.567,0 -1.357,-0.393 -1.756,-0.873 -0.398,-0.48 -1.066,-0.873 -1.484,-0.873 -1.429,0 -2.612,-3.32 -1.765,-4.953 0.896,-1.727 3.389,-3.781 4.589,-3.781 0.476,0 1.016,-0.393 1.2,-0.873 0.472,-1.23 9.556,-1.245 11.177,-0.019 0.622,0.47 1.701,0.863 2.399,0.873 0.698,0.011 1.619,0.347 2.047,0.747 0.428,0.4 1.822,1.246 3.098,1.88 1.276,0.634 3.023,1.653 3.882,2.264 2.155,1.533 23.851,1.19 26.139,-0.413 0.759,-0.531 1.948,-0.966 2.643,-0.966 0.695,0 1.415,-0.393 1.599,-0.873 0.184,-0.48 0.835,-0.873 1.447,-0.873 0.611,0 1.437,-0.393 1.836,-0.874 0.398,-0.48 1.32,-0.873 2.047,-0.873 0.727,0 1.472,-0.393 1.657,-0.873 0.184,-0.481 0.704,-0.874 1.155,-0.874 0.451,0 1.134,-0.377 1.516,-0.838 0.383,-0.461 1.267,-0.95 1.964,-1.085 0.697,-0.136 -0.078,-0.283 -1.722,-0.326 -1.674,-0.045 -3.725,0.303 -4.658,0.79 -2.304,1.201 -22.659,1.277 -24.392,0.091 -0.631,-0.433 -1.869,-0.962 -2.749,-1.176 -0.881,-0.214 -1.601,-0.646 -1.601,-0.96 0,-0.314 -0.623,-0.571 -1.385,-0.571 -0.761,0 -1.71,-0.393 -2.109,-0.874 -0.398,-0.48 -1.046,-0.873 -1.439,-0.873 -0.393,0 -1.8,-0.786 -3.126,-1.747 -1.327,-0.961 -2.772,-1.747 -3.211,-1.747 -0.44,0 -1.425,-0.467 -2.189,-1.037 -0.764,-0.571 -2.437,-1.554 -3.717,-2.184 -1.281,-0.63 -2.523,-1.444 -2.759,-1.808 -0.236,-0.365 -1.087,-0.828 -1.892,-1.03 -0.805,-0.202 -1.463,-0.624 -1.463,-0.939 0,-0.314 -0.399,-0.571 -0.888,-0.571 -0.488,0 -1.127,-0.629 -1.419,-1.399 -0.293,-0.769 -0.811,-1.571 -1.151,-1.781 -1.011,-0.625 -0.805,-13.816 0.237,-15.195 1.134,-1.498 1.145,-4.693 0.019,-5.125 -0.577,-0.221 -0.874,-1.133 -0.874,-2.682 0,-1.699 0.242,-2.348 0.874,-2.348 0.582,0 0.873,-0.582 0.873,-1.746 0,-1.165 0.291,-1.747 0.873,-1.747 0.486,0 0.874,-0.518 0.874,-1.164 0,-0.641 0.275,-1.165 0.612,-1.165 0.337,0 0.887,-0.786 1.222,-1.747 0.335,-0.96 0.845,-1.746 1.134,-1.746 0.289,0 0.525,-0.419 0.525,-0.93 0,-0.511 0.376,-1.624 0.835,-2.474 0.46,-0.85 0.976,-2.201 1.149,-3.001 0.303,-1.407 6.072,-8.151 6.972,-8.151 0.244,0 0.836,-0.393 1.317,-0.874 0.517,-0.517 1.94,-0.873 3.493,-0.873 1.553,0 2.976,-0.356 3.494,-0.874 0.545,-0.545 2.006,-0.88 3.888,-0.891 1.723,-0.011 3.5,-0.385 4.145,-0.874 0.751,-0.567 2.537,-0.855 5.315,-0.855 3.009,0 4.388,-0.245 4.909,-0.873 0.399,-0.48 1.282,-0.882 1.964,-0.893 1.386,-0.023 10.813,-2.432 11.719,-2.995 0.32,-0.2 2.154,-0.547 4.075,-0.773 1.922,-0.226 4.074,-0.777 4.783,-1.223 0.71,-0.447 1.783,-0.812 2.385,-0.812 0.603,0 1.867,-0.385 2.81,-0.855 1.437,-0.717 5.54,-0.835 25.313,-0.728 21.799,0.118 23.676,0.05 24.618,-0.891 0.56,-0.561 1.756,-1.019 2.657,-1.019 0.902,0 2.389,-0.392 3.307,-0.87 0.917,-0.478 2.356,-0.871 3.197,-0.873 0.842,-0.002 1.856,-0.397 2.255,-0.877 0.399,-0.481 1.582,-0.874 2.629,-0.874 1.156,0 2.036,-0.343 2.239,-0.873 0.185,-0.48 0.818,-0.873 1.407,-0.873 0.589,0 1.58,-0.385 2.202,-0.855 1.797,-1.36 3.583,-1.038 5.632,1.013 m -199.519,25.77 c -0.621,0.47 -1.965,0.855 -2.985,0.855 -1.021,0 -2.182,0.393 -2.58,0.873 -0.41,0.493 -1.679,0.873 -2.916,0.873 -1.205,0 -2.942,0.392 -3.859,0.87 -0.917,0.479 -2.79,0.872 -4.161,0.874 -1.676,0.002 -2.602,0.289 -2.828,0.877 -0.184,0.48 -0.97,0.873 -1.746,0.873 -0.777,0 -1.563,0.393 -1.747,0.873 -0.184,0.481 -0.569,0.874 -0.855,0.874 -0.932,0 -2.661,2.111 -3.866,4.722 -3.244,7.028 -3.259,7.952 -0.163,9.862 1.272,0.785 2.32,1.624 2.329,1.864 0.008,0.24 0.417,0.437 0.907,0.437 0.491,0 1.043,0.393 1.227,0.873 0.184,0.48 0.636,0.873 1.003,0.873 0.367,0 2.431,1.703 4.585,3.785 4.277,4.132 5.273,4.44 9.47,2.928 1.691,-0.609 5.208,-0.846 12.838,-0.865 l 10.51,-0.025 1.682,-2.661 c 1.962,-3.104 5.461,-6.655 6.558,-6.655 0.419,0 0.913,-0.393 1.098,-0.873 0.184,-0.481 0.745,-0.874 1.246,-0.874 1.442,0 2.946,-1.691 2.618,-2.944 -0.163,-0.622 -0.659,-1.132 -1.102,-1.132 -0.443,0 -0.805,-0.365 -0.805,-0.811 0,-0.446 -0.368,-0.952 -0.818,-1.125 -0.45,-0.172 -1.785,-2.296 -2.966,-4.72 -1.182,-2.423 -2.484,-4.406 -2.895,-4.406 -0.411,0 -1.074,-0.393 -1.472,-0.873 -0.409,-0.493 -1.678,-0.874 -2.912,-0.874 -1.233,0 -2.502,-0.381 -2.911,-0.873 -0.398,-0.481 -1.198,-0.874 -1.776,-0.874 -0.579,0 -1.41,-0.327 -1.848,-0.727 -2.807,-2.567 -6.821,-3.416 -8.86,-1.874 m 108.804,10.736 c -1.563,1.563 -18.282,2.732 -22.731,1.59 -1.587,-0.408 -2.037,-0.228 -3.641,1.455 -1.007,1.057 -3.205,3.362 -4.885,5.123 -1.68,1.761 -4.065,3.727 -5.301,4.367 -3.368,1.745 -3.143,2.774 1.924,8.829 0.312,0.373 0.737,1.356 0.945,2.184 0.207,0.828 0.59,1.505 0.85,1.505 0.26,0 0.646,0.786 0.857,1.747 0.337,1.537 0.629,1.747 2.431,1.747 1.126,0 2.743,0.36 3.593,0.801 3.209,1.663 6.937,3.274 7.577,3.274 0.365,0 0.664,0.21 0.664,0.466 0,2.001 4.939,1.883 9.695,-0.232 1.009,-0.449 2.352,-0.816 2.985,-0.816 0.633,0 2.092,-0.393 3.242,-0.873 1.149,-0.481 3.081,-0.882 4.292,-0.892 1.211,-0.01 2.711,-0.403 3.332,-0.873 0.622,-0.471 1.866,-0.855 2.766,-0.855 0.899,0 1.635,-0.271 1.635,-0.601 0,-0.33 0.459,-0.776 1.019,-0.991 1.537,-0.59 4.804,-3.729 4.804,-4.615 0,-0.429 0.262,-0.78 0.582,-0.78 0.32,0 0.582,-0.466 0.582,-1.035 0,-0.569 0.354,-1.552 0.787,-2.184 1.826,-2.667 1.035,-6.679 -1.317,-6.679 -0.349,0 -0.634,-0.269 -0.634,-0.597 0,-0.328 -0.59,-0.863 -1.31,-1.189 -2.752,-1.246 -3.933,-2.172 -7.965,-6.243 -3.984,-4.025 -5.548,-4.863 -6.778,-3.633"
       inkscape:connector-curvature="0"
       style="fill:#231f20;fill-rule:evenodd;stroke:none" />
    <path
       id="path4"
       d="m 123.876,44.462 c -1.198,0.737 -3.163,2.238 -4.367,3.335 -1.203,1.098 -2.951,2.486 -3.884,3.085 -0.933,0.599 -2.579,1.972 -3.658,3.051 -1.079,1.079 -2.093,1.962 -2.253,1.962 -0.161,0 -1.06,0.786 -1.999,1.747 -0.939,0.961 -1.979,1.747 -2.31,1.747 -0.331,0 -0.602,0.204 -0.602,0.455 0,0.25 -2.03,2.015 -4.512,3.922 -7.47,5.739 -8.582,6.751 -10.626,9.674 -2.717,3.885 -4.939,6.47 -9.461,11.005 -2.482,2.489 -4.513,4.813 -4.513,5.164 0,0.351 -0.393,0.638 -0.873,0.638 -0.48,0 -0.873,0.365 -0.873,0.812 0,0.446 -0.393,0.961 -0.874,1.146 -0.48,0.184 -0.873,0.708 -0.873,1.164 0,0.456 -0.33,0.956 -0.734,1.111 -0.812,0.312 -5.078,8.493 -5.107,9.794 -0.01,0.452 -0.403,1.329 -0.873,1.951 -0.47,0.621 -0.855,1.623 -0.855,2.225 0,0.602 -0.393,1.488 -0.874,1.968 -0.48,0.48 -0.873,1.482 -0.873,2.225 0,0.743 -0.393,1.503 -0.873,1.687 -0.481,0.184 -0.874,0.97 -0.874,1.747 0,0.776 -0.393,1.562 -0.873,1.746 -0.48,0.185 -0.873,0.971 -0.873,1.747 0,0.776 -0.393,1.562 -0.874,1.747 -0.48,0.184 -0.873,0.97 -0.873,1.747 0,0.776 -0.359,1.549 -0.799,1.718 -0.439,0.168 -0.975,1.011 -1.191,1.873 -0.388,1.545 -5.727,7.261 -6.783,7.261 -0.298,0 -0.55,0.327 -0.558,0.727 -0.008,0.401 -0.991,1.16 -2.183,1.688 -5.013,2.219 -6.325,2.733 -7.821,3.066 -3.638,0.809 -4.355,2.3 -4.782,9.948 -0.428,7.674 0.41,21.067 1.378,22.036 0.338,0.337 0.614,1.241 0.614,2.008 0,0.767 0.391,2.09 0.869,2.94 0.478,0.85 1.137,2.201 1.464,3.001 0.328,0.801 1.118,2.242 1.758,3.203 0.639,0.96 1.321,2.205 1.515,2.765 0.193,0.561 0.597,1.019 0.897,1.019 0.299,0 0.818,0.786 1.153,1.747 0.335,0.961 0.845,1.747 1.134,1.747 0.289,0 0.526,0.342 0.526,0.759 0,3.305 6.352,6.256 9.059,4.208 0.621,-0.47 1.701,-0.863 2.398,-0.873 0.698,-0.01 1.678,-0.428 2.178,-0.928 0.5,-0.499 1.881,-1.066 3.069,-1.259 1.189,-0.193 2.829,-0.699 3.645,-1.125 0.817,-0.426 2.082,-0.777 2.813,-0.779 0.731,-0.002 1.479,-0.396 1.663,-0.877 0.251,-0.652 1.316,-0.878 4.203,-0.894 2.249,-0.012 4.478,-0.369 5.324,-0.852 2.143,-1.226 20.729,-1.229 23.077,-0.004 2.349,1.225 14.961,1.225 17.31,0 0.917,-0.478 2.653,-0.87 3.858,-0.87 1.238,0 2.507,-0.38 2.916,-0.873 0.459,-0.552 1.743,-0.873 3.494,-0.873 1.625,0 3.04,-0.328 3.426,-0.793 0.362,-0.436 2.134,-0.944 3.939,-1.131 1.805,-0.186 3.558,-0.615 3.897,-0.954 0.339,-0.339 1.362,-0.616 2.275,-0.616 0.912,0 2.367,-0.362 3.231,-0.805 0.865,-0.443 3.014,-0.996 4.775,-1.23 1.761,-0.233 3.474,-0.643 3.806,-0.91 0.332,-0.266 2.559,-0.765 4.949,-1.108 7.833,-1.122 12.144,-2.058 12.88,-2.793 0.397,-0.398 1.337,-0.723 2.087,-0.723 1.512,0 2.264,-0.497 5.333,-3.52 1.997,-1.967 2.989,-3.629 5.107,-8.553 0.519,-1.206 1.167,-2.585 1.441,-3.065 0.274,-0.481 0.744,-1.438 1.044,-2.127 0.299,-0.69 0.823,-1.426 1.163,-1.636 0.34,-0.21 0.618,-0.862 0.618,-1.45 0,-0.587 0.393,-1.218 0.873,-1.402 0.48,-0.185 0.873,-0.756 0.873,-1.269 0,-0.513 0.394,-1.326 0.874,-1.806 0.48,-0.481 0.873,-1.78 0.873,-2.888 0,-1.254 -0.33,-2.141 -0.873,-2.35 -0.53,-0.203 -0.874,-1.084 -0.874,-2.239 0,-1.048 0.394,-2.231 0.874,-2.629 0.687,-0.571 0.873,-2.206 0.873,-7.659 0,-5.627 -0.164,-6.997 -0.873,-7.269 -0.48,-0.185 -0.874,-0.831 -0.874,-1.438 0,-0.606 -0.364,-1.102 -0.811,-1.102 -0.446,0 -0.961,-0.393 -1.146,-0.873 -0.184,-0.48 -0.736,-0.873 -1.227,-0.873 -0.49,0 -0.891,-0.237 -0.891,-0.526 0,-0.289 -0.721,-0.813 -1.601,-1.166 -0.881,-0.352 -2.388,-1.161 -3.348,-1.797 -0.961,-0.636 -2.14,-1.316 -2.62,-1.51 -2.042,-0.826 -2.353,-1.003 -6.793,-3.869 -1.335,-0.862 -3.092,-1.734 -3.907,-1.938 -0.814,-0.204 -1.784,-0.739 -2.157,-1.188 -0.373,-0.448 -1.104,-0.824 -1.625,-0.834 -0.521,-0.01 -1.456,-0.403 -2.078,-0.874 -0.926,-0.7 -3.874,-0.856 -16.303,-0.864 l -15.172,-0.01 3.202,-1.714 c 1.761,-0.942 3.766,-1.97 4.456,-2.283 0.689,-0.313 1.425,-0.848 1.635,-1.188 0.211,-0.34 0.899,-0.618 1.531,-0.618 0.631,0 1.299,-0.393 1.483,-0.873 0.185,-0.481 1.043,-0.874 1.909,-0.874 0.865,0 2.081,-0.384 2.703,-0.854 1.35,-1.021 22.382,-1.323 22.382,-0.321 0,0.314 0.718,0.751 1.595,0.971 0.878,0.221 1.945,0.75 2.371,1.176 0.426,0.426 1.121,0.775 1.545,0.775 0.423,0 0.92,0.393 1.104,0.873 0.185,0.481 0.904,0.874 1.6,0.874 0.695,0 1.555,0.359 1.91,0.798 1.296,1.6 10.95,3.342 11.709,2.113 0.198,-0.32 0.869,-0.582 1.49,-0.582 0.622,0 1.628,-0.498 2.237,-1.107 0.609,-0.609 1.608,-1.266 2.219,-1.46 1.856,-0.589 3.549,-5.068 2.21,-5.845 -0.581,-0.337 -1.467,-1.071 -1.969,-1.632 -0.503,-0.56 -1.217,-1.019 -1.587,-1.019 -0.37,0 -0.999,-0.393 -1.398,-0.873 -0.398,-0.481 -1.347,-0.874 -2.109,-0.874 -0.761,0 -1.384,-0.257 -1.384,-0.571 0,-0.314 -0.644,-0.733 -1.432,-0.93 -0.787,-0.198 -1.736,-0.727 -2.109,-1.176 -0.372,-0.449 -1.141,-0.816 -1.708,-0.816 -0.567,0 -1.182,-0.393 -1.366,-0.873 -0.185,-0.481 -0.709,-0.874 -1.165,-0.874 -0.456,0 -0.956,-0.33 -1.111,-0.734 -0.477,-1.243 -5.374,-3.341 -7.796,-3.341 -1.262,0 -2.621,-0.328 -3.021,-0.728 -0.972,-0.973 -26.288,-1.046 -27.509,-0.08 -0.45,0.356 -2.527,0.8 -4.615,0.985 -2.089,0.185 -4.578,0.743 -5.532,1.24 -0.953,0.498 -2.258,0.885 -2.898,0.862 -0.848,-0.031 -0.689,-0.212 0.582,-0.666 0.961,-0.343 1.878,-0.788 2.038,-0.988 2.011,-2.517 8.106,-5.802 11.645,-6.276 1.441,-0.193 2.771,-0.58 2.955,-0.859 0.184,-0.279 1.756,-0.663 3.493,-0.853 1.738,-0.19 3.739,-0.707 4.448,-1.149 0.71,-0.442 2.035,-0.804 2.946,-0.804 0.911,0 2.164,-0.385 2.786,-0.855 0.808,-0.611 2.736,-0.86 6.766,-0.873 4.213,-0.014 5.855,-0.239 6.508,-0.892 0.481,-0.481 1.427,-0.874 2.103,-0.874 1.32,0 4.285,-1.887 5.947,-3.784 2.364,-2.7 0.564,-8.443 -2.647,-8.443 -0.814,0 -2.167,-0.313 -3.006,-0.695 -1.183,-0.539 -1.777,-0.539 -2.64,0 -0.708,0.442 -3.818,0.7 -8.545,0.709 -4.087,0.008 -8.479,0.302 -9.76,0.654 -1.281,0.352 -3.692,0.763 -5.358,0.912 -1.666,0.149 -3.336,0.641 -3.711,1.093 -0.374,0.451 -1.5,0.83 -2.502,0.841 -1.002,0.012 -2.476,0.395 -3.277,0.853 -0.8,0.458 -2.026,0.841 -2.724,0.853 -0.697,0.011 -1.661,0.413 -2.141,0.894 -0.481,0.48 -1.628,0.873 -2.551,0.873 -0.922,0 -2.185,0.385 -2.807,0.855 -0.622,0.47 -1.523,0.865 -2.004,0.877 -0.48,0.012 -1.623,0.413 -2.541,0.892 -0.917,0.478 -1.995,0.87 -2.396,0.87 -0.4,0 -1.394,0.524 -2.208,1.164 -0.815,0.64 -1.906,1.165 -2.426,1.165 -0.52,0 -1.096,0.393 -1.281,0.873 -0.184,0.48 -0.812,0.873 -1.395,0.873 -0.584,0 -1.454,0.393 -1.934,0.874 -0.481,0.48 -1.482,0.843 -2.225,0.805 -0.987,-0.049 -1.077,-0.139 -0.333,-0.333 0.56,-0.147 1.019,-0.64 1.019,-1.097 0,-0.457 0.393,-0.831 0.873,-0.831 0.481,0 0.874,-0.393 0.874,-0.873 0,-0.481 0.253,-0.874 0.562,-0.874 0.31,0 1.452,-0.851 2.538,-1.892 2.212,-2.12 6.316,-5.677 6.55,-5.677 0.451,0 4.906,-4.653 4.906,-5.123 0,-0.306 0.393,-0.883 0.873,-1.282 0.48,-0.398 0.873,-1.591 0.873,-2.649 0,-1.059 -0.393,-2.318 -0.873,-2.799 -0.48,-0.48 -0.873,-1.29 -0.873,-1.8 0,-0.511 -0.721,-1.247 -1.602,-1.636 -0.88,-0.39 -1.947,-1.04 -2.37,-1.444 -1.008,-0.962 -1.178,-0.933 -3.739,0.642 m 5.326,2.069 c 4.662,4.044 3.219,6.645 -10.425,18.784 -6.716,5.976 -12.809,11.819 -12.809,12.285 0,1.291 4.248,-0.378 9.316,-3.661 2.317,-1.501 16.222,-8.111 17.758,-8.442 1.864,-0.402 2.798,-0.735 6.285,-2.246 1.215,-0.526 3.18,-1.204 4.367,-1.507 1.187,-0.302 4.516,-1.213 7.398,-2.025 2.985,-0.84 6.784,-1.479 8.828,-1.485 1.973,-0.005 5.641,-0.403 8.151,-0.883 11.703,-2.24 17.442,-0.3 15.355,5.189 -0.718,1.886 -5.596,4.975 -7.88,4.989 -1.908,0.011 -10.098,1.407 -14.265,2.431 -1.441,0.354 -3.668,0.853 -4.949,1.109 -1.281,0.255 -4.163,1.006 -6.405,1.668 -2.241,0.662 -5.25,1.481 -6.686,1.821 -1.436,0.339 -3.926,1.604 -5.532,2.81 -3.241,2.435 -9.97,6.475 -10.783,6.475 -0.287,0 -0.731,0.335 -0.987,0.744 -0.256,0.41 -1.121,1.047 -1.922,1.416 l -1.455,0.672 1.858,0.04 c 1.022,0.021 2.02,-0.223 2.218,-0.543 0.197,-0.32 1.125,-0.582 2.06,-0.582 0.935,0 2.688,-0.364 3.896,-0.809 1.207,-0.444 4.422,-1.252 7.144,-1.794 2.722,-0.543 5.997,-1.29 7.278,-1.662 8.753,-2.537 30.098,0.104 36.227,4.483 1.531,1.093 4.617,2.964 6.859,4.158 9.354,4.978 9.606,5.154 9.605,6.686 -0.002,5.835 -11.925,7.041 -20.408,2.064 -8.963,-5.259 -7.569,-4.953 -20.347,-4.471 l -11.354,0.428 -5.429,2.817 c -10.079,5.232 -18.694,10.272 -18.718,10.953 -0.023,0.63 3.142,0.538 3.798,-0.111 1.995,-1.976 28.494,-3.401 33.265,-1.789 4.437,1.499 18.817,8.834 21.145,10.787 0.481,0.403 2.184,1.394 3.785,2.203 5.465,2.76 5.531,2.896 5.531,11.421 0,4.946 -0.278,8.261 -0.821,9.802 -0.726,2.057 -0.716,2.436 0.089,3.241 1.562,1.561 0.989,4.319 -1.758,8.465 -1.41,2.128 -2.735,4.263 -2.945,4.743 -0.209,0.481 -0.632,1.267 -0.941,1.747 -0.308,0.48 -1.36,2.664 -2.336,4.853 -2.773,6.214 -5.117,8.087 -12.057,9.64 -9.702,2.171 -13.19,2.892 -15.912,3.289 -1.441,0.21 -4.454,0.905 -6.696,1.543 -2.241,0.638 -5.516,1.516 -7.278,1.95 -1.761,0.434 -4.774,1.215 -6.696,1.735 -1.921,0.521 -4.934,1.287 -6.695,1.704 -1.762,0.417 -3.905,1.04 -4.764,1.384 -2.665,1.068 -12.595,1.439 -18.526,0.693 -9.98,-1.256 -12.329,-1.334 -19.451,-0.64 -7.966,0.776 -15.02,2.125 -17.347,3.319 -0.865,0.444 -2.073,0.807 -2.685,0.807 -0.612,0 -2.787,0.745 -4.832,1.656 -2.046,0.912 -5.01,2.007 -6.588,2.434 l -2.868,0.776 -1.889,-2.185 c -2.092,-2.421 -7.804,-10.717 -7.804,-11.335 0,-0.216 -0.76,-2.222 -1.688,-4.458 -2.595,-6.25 -3.773,-14.695 -3.393,-24.338 0.352,-8.944 0.577,-9.507 4.33,-10.809 9.75,-3.382 15.935,-9.109 20.611,-19.082 5.794,-12.358 6.798,-14.54 8.131,-17.685 2.75,-6.487 6.102,-11.319 12.286,-17.716 3.419,-3.536 7.774,-8.394 9.678,-10.796 3.705,-4.673 5.434,-6.38 9.19,-9.069 2.059,-1.474 6.476,-5.127 22.291,-18.436 3.61,-3.039 5.516,-3.454 7.591,-1.655 m 214.064,50.431 c -0.622,0.47 -1.613,0.855 -2.202,0.855 -0.589,0 -1.222,0.393 -1.407,0.873 -0.203,0.53 -1.083,0.873 -2.239,0.873 -1.047,0 -2.23,0.393 -2.629,0.874 -0.399,0.48 -1.413,0.875 -2.255,0.877 -0.841,0.002 -2.28,0.395 -3.197,0.873 -0.918,0.478 -2.405,0.87 -3.307,0.87 -0.901,0 -2.097,0.458 -2.657,1.019 -0.942,0.941 -2.819,1.009 -24.618,0.891 -19.773,-0.107 -23.876,0.011 -25.313,0.728 -0.943,0.47 -2.207,0.855 -2.81,0.855 -0.602,0 -1.675,0.365 -2.385,0.812 -0.709,0.446 -2.861,0.997 -4.783,1.223 -1.921,0.226 -3.755,0.573 -4.075,0.773 -0.906,0.563 -10.333,2.972 -11.719,2.995 -0.682,0.011 -1.565,0.413 -1.964,0.893 -0.521,0.628 -1.9,0.873 -4.909,0.873 -2.778,0 -4.564,0.288 -5.315,0.855 -0.645,0.489 -2.422,0.863 -4.145,0.874 -1.882,0.011 -3.343,0.346 -3.888,0.891 -0.518,0.518 -1.941,0.874 -3.494,0.874 -1.553,0 -2.976,0.356 -3.493,0.873 -0.481,0.481 -1.073,0.874 -1.317,0.874 -0.9,0 -6.669,6.744 -6.972,8.151 -0.173,0.8 -0.689,2.151 -1.149,3.001 -0.459,0.85 -0.835,1.963 -0.835,2.474 0,0.511 -0.236,0.93 -0.525,0.93 -0.289,0 -0.799,0.786 -1.134,1.746 -0.335,0.961 -0.885,1.747 -1.222,1.747 -0.337,0 -0.612,0.524 -0.612,1.165 0,0.646 -0.388,1.164 -0.874,1.164 -0.582,0 -0.873,0.582 -0.873,1.747 0,1.164 -0.291,1.746 -0.873,1.746 -0.632,0 -0.874,0.649 -0.874,2.348 0,1.549 0.297,2.461 0.874,2.682 1.126,0.432 1.115,3.627 -0.019,5.125 -1.042,1.379 -1.248,14.57 -0.237,15.195 0.34,0.21 0.858,1.012 1.151,1.781 0.292,0.77 0.931,1.399 1.419,1.399 0.489,0 0.888,0.257 0.888,0.571 0,0.315 0.658,0.737 1.463,0.939 0.805,0.202 1.656,0.665 1.892,1.03 0.236,0.364 1.478,1.178 2.759,1.808 1.28,0.63 2.953,1.613 3.717,2.184 0.764,0.57 1.749,1.037 2.189,1.037 0.439,0 1.884,0.786 3.211,1.747 1.326,0.961 2.733,1.747 3.126,1.747 0.393,0 1.041,0.393 1.439,0.873 0.399,0.481 1.348,0.874 2.109,0.874 0.762,0 1.385,0.257 1.385,0.571 0,0.314 0.72,0.746 1.601,0.96 0.88,0.214 2.118,0.743 2.749,1.176 1.733,1.186 22.088,1.11 24.392,-0.091 0.933,-0.487 2.984,-0.835 4.658,-0.79 1.644,0.043 2.419,0.19 1.722,0.326 -0.697,0.135 -1.581,0.624 -1.964,1.085 -0.382,0.461 -1.065,0.838 -1.516,0.838 -0.451,0 -0.971,0.393 -1.155,0.874 -0.185,0.48 -0.93,0.873 -1.657,0.873 -0.727,0 -1.649,0.393 -2.047,0.873 -0.399,0.481 -1.225,0.874 -1.836,0.874 -0.612,0 -1.263,0.393 -1.447,0.873 -0.184,0.48 -0.904,0.873 -1.599,0.873 -0.695,0 -1.884,0.435 -2.643,0.966 -2.288,1.603 -23.984,1.946 -26.139,0.413 -0.859,-0.611 -2.606,-1.63 -3.882,-2.264 -1.276,-0.634 -2.67,-1.48 -3.098,-1.88 -0.428,-0.4 -1.349,-0.736 -2.047,-0.747 -0.698,-0.01 -1.777,-0.403 -2.399,-0.873 -1.621,-1.226 -10.705,-1.211 -11.177,0.019 -0.184,0.48 -0.724,0.873 -1.2,0.873 -1.2,0 -3.693,2.054 -4.589,3.781 -0.847,1.633 0.336,4.953 1.765,4.953 0.418,0 1.086,0.393 1.484,0.873 0.399,0.48 1.189,0.873 1.756,0.873 0.567,0 1.182,0.393 1.366,0.874 0.184,0.48 0.971,0.873 1.747,0.873 0.776,0 1.562,0.393 1.747,0.873 0.184,0.481 0.835,0.874 1.446,0.874 0.612,0 1.438,0.393 1.837,0.873 0.398,0.481 1.038,0.874 1.421,0.874 0.383,0 1.726,0.916 2.985,2.037 1.259,1.12 2.767,2.038 3.35,2.038 0.583,0 1.426,0.366 1.874,0.814 2.285,2.285 37.14,2.208 38.621,-0.085 0.201,-0.312 1.768,-0.698 3.482,-0.859 l 3.116,-0.292 -2.971,1.715 c -1.633,0.943 -2.97,1.955 -2.97,2.249 0,0.294 -0.365,0.534 -0.811,0.534 -0.446,0 -0.962,0.393 -1.146,0.873 -0.212,0.55 -1.103,0.874 -2.41,0.874 -1.307,0 -2.198,0.323 -2.41,0.873 -0.244,0.637 -1.245,0.873 -3.695,0.873 -2.276,0 -3.593,0.282 -4.084,0.874 -0.399,0.48 -1.578,0.873 -2.621,0.873 -1.042,0 -2.836,0.393 -3.985,0.873 -1.15,0.481 -3.49,0.874 -5.2,0.874 -1.833,0 -3.574,0.351 -4.24,0.855 -0.656,0.496 -2.474,0.871 -4.333,0.893 -9.214,0.11 -15.043,8.549 -8.976,12.996 1.624,1.191 13.309,1.489 16.989,0.434 1.04,-0.299 4.052,-0.725 6.692,-0.947 2.64,-0.222 5.062,-0.604 5.383,-0.848 0.32,-0.244 2.023,-0.629 3.784,-0.855 1.761,-0.227 3.783,-0.78 4.492,-1.23 0.709,-0.45 1.904,-0.818 2.654,-0.818 0.751,0 1.874,-0.385 2.495,-0.855 0.622,-0.47 1.95,-0.863 2.952,-0.873 1.001,-0.01 2.147,-0.412 2.545,-0.892 0.399,-0.48 1.592,-0.873 2.65,-0.873 1.059,0 2.318,-0.393 2.799,-0.874 0.48,-0.48 1.235,-0.873 1.677,-0.873 0.442,0 1.312,-0.385 1.934,-0.855 0.621,-0.47 1.526,-0.863 2.011,-0.873 0.484,-0.01 2.243,-0.936 3.907,-2.057 4.849,-3.265 6.132,-2.696 2.297,1.019 -5.159,5 -9.248,8.588 -9.785,8.588 -0.276,0 -0.503,0.393 -0.503,0.874 0,0.48 -0.393,0.873 -0.873,0.873 -0.48,0 -0.873,0.365 -0.873,0.811 0,0.446 -0.393,0.962 -0.874,1.146 -0.48,0.185 -0.873,0.709 -0.873,1.165 0,0.456 -0.393,0.98 -0.873,1.164 -0.541,0.208 -0.874,1.094 -0.874,2.329 0,1.236 0.333,2.122 0.874,2.329 0.48,0.185 0.873,0.999 0.873,1.809 0,0.922 0.327,1.474 0.873,1.474 0.481,0 0.874,0.364 0.874,0.809 0,0.457 0.853,0.968 1.966,1.177 2.108,0.396 5.021,-0.41 5.021,-1.389 0,-0.328 0.262,-0.597 0.582,-0.597 0.755,0 2.911,-2.156 2.911,-2.911 0,-0.32 0.353,-0.582 0.784,-0.582 0.691,0 1.479,-0.533 4.286,-2.901 0.387,-0.326 0.869,-0.593 1.072,-0.593 0.203,0 1.707,-1.31 3.342,-2.911 1.635,-1.601 3.192,-2.911 3.46,-2.911 0.268,0 1.255,-0.786 2.194,-1.747 0.939,-0.961 1.979,-1.747 2.31,-1.747 0.331,0 0.602,-0.393 0.602,-0.873 0,-0.48 0.272,-0.873 0.605,-0.873 1.77,0 12.204,-9.776 12.204,-11.435 0,-0.456 0.393,-0.98 0.873,-1.164 0.481,-0.184 0.874,-0.7 0.874,-1.146 0,-0.446 0.393,-0.811 0.873,-0.811 0.48,0 0.873,-0.279 0.873,-0.62 0,-0.341 2.882,-3.492 6.405,-7.001 3.522,-3.51 6.405,-6.752 6.405,-7.205 0,-0.452 0.786,-1.684 1.746,-2.735 0.961,-1.052 1.747,-2.346 1.747,-2.876 0,-0.53 0.393,-1.29 0.873,-1.689 0.481,-0.398 0.874,-1.024 0.874,-1.389 0,-0.366 0.524,-1.643 1.164,-2.838 0.641,-1.195 1.165,-2.666 1.165,-3.268 0,-0.603 0.393,-1.422 0.873,-1.82 0.48,-0.399 0.873,-1.348 0.873,-2.11 0,-0.761 0.257,-1.384 0.572,-1.384 0.314,0 0.746,-0.72 0.96,-1.601 0.214,-0.881 0.743,-2.118 1.175,-2.75 0.433,-0.631 0.787,-1.614 0.787,-2.183 0,-0.569 0.257,-1.035 0.571,-1.035 0.314,0 0.75,-0.72 0.969,-1.601 0.4,-1.608 2.447,-4.926 3.263,-5.289 0.241,-0.107 0.437,-0.433 0.437,-0.725 0,-0.774 5.59,-6.359 6.365,-6.359 0.362,0 0.809,-0.393 0.994,-0.873 0.184,-0.48 0.812,-0.873 1.395,-0.873 0.584,0 1.454,-0.393 1.934,-0.874 0.481,-0.48 1.366,-0.873 1.969,-0.873 0.602,0 1.603,-0.385 2.225,-0.855 0.621,-0.47 1.538,-0.863 2.037,-0.873 4.629,-0.095 6.374,-23.493 2.309,-30.952 -0.284,-0.521 -0.695,-1.896 -0.912,-3.056 -0.218,-1.161 -0.6,-2.11 -0.849,-2.11 -0.249,0 -0.619,-0.891 -0.824,-1.979 -0.204,-1.089 -0.757,-2.3 -1.229,-2.692 -0.472,-0.391 -0.858,-1.081 -0.858,-1.532 0,-0.451 -0.393,-0.971 -0.873,-1.156 -0.481,-0.184 -0.874,-0.97 -0.874,-1.746 0,-0.777 -0.393,-1.563 -0.873,-1.747 -0.48,-0.184 -0.873,-0.58 -0.873,-0.879 0,-0.791 -2.328,-3.962 -4.523,-6.16 -2.049,-2.051 -3.835,-2.373 -5.632,-1.013 m 5.29,3.329 c 8.574,9.175 13.437,23.993 12.85,39.156 -0.333,8.591 -0.878,10.545 -3.171,11.376 -0.887,0.321 -2.136,0.824 -2.776,1.117 -0.641,0.294 -1.82,0.716 -2.621,0.939 -4.79,1.331 -16.302,12.949 -16.302,16.452 0,0.316 -0.799,2.354 -1.774,4.529 -9.754,21.74 -11.787,25.332 -16.939,29.93 -1.97,1.758 -6.098,6.21 -9.174,9.892 -7.65,9.16 -7.424,8.928 -12.717,12.986 -2.589,1.985 -8.145,6.491 -12.347,10.013 -13.874,11.633 -13.7,11.541 -16.439,8.588 -4.077,-4.394 -3.033,-6.156 11.19,-18.876 12.511,-11.189 15.051,-14.449 9.217,-11.828 -1.08,0.485 -2.478,1.205 -3.106,1.601 -5.891,3.708 -15.227,8.5 -19.527,10.023 -19.001,6.728 -25.569,8.186 -39.531,8.777 l -9.856,0.417 -1.563,-1.564 c -4.33,-4.33 0.514,-8.025 13.395,-10.217 16.55,-2.816 27.538,-6.121 32.527,-9.784 1.608,-1.18 4.18,-2.728 5.714,-3.439 1.535,-0.711 3.122,-1.578 3.527,-1.926 0.405,-0.348 1.26,-0.995 1.9,-1.438 1.77,-1.227 0.633,-1.72 -2.162,-0.938 -1.373,0.384 -3.674,0.946 -5.116,1.249 -1.441,0.303 -3.668,0.911 -4.949,1.351 -6.214,2.134 -8.68,2.386 -22.469,2.294 -15.845,-0.105 -16.469,-0.236 -23.9,-5.027 -2.678,-1.726 -6.178,-3.759 -7.779,-4.516 -6.819,-3.227 -9.044,-5.327 -7.481,-7.064 5.529,-6.141 12.058,-5.799 23.784,1.247 4.631,2.783 4.759,2.804 14.847,2.536 12.032,-0.319 17.679,-2.124 29.694,-9.487 0.481,-0.295 1.916,-1.1 3.189,-1.79 5.565,-3.014 6.8,-5.546 1.892,-3.878 -1.353,0.461 -3.378,1.145 -4.499,1.522 -3.144,1.058 -15.213,1.937 -23.289,1.696 l -7.278,-0.218 -5.24,-2.618 c -8.626,-4.311 -20.63,-11.198 -22.888,-13.132 l -2.113,-1.81 -0.222,-6.05 c -0.179,-4.871 -0.002,-6.7 0.906,-9.383 1.098,-3.246 1.099,-3.376 0.054,-4.95 -1.429,-2.15 -0.956,-4.139 2.117,-8.893 2.821,-4.365 3.623,-5.829 6.114,-11.158 2.63,-5.624 8.448,-9.803 13.65,-9.803 0.749,0 2.476,-0.393 3.837,-0.873 1.362,-0.481 3.505,-0.874 4.763,-0.874 1.257,0 5.314,-0.786 9.014,-1.746 3.7,-0.961 7.206,-1.747 7.791,-1.747 0.585,0 1.801,-0.311 2.703,-0.69 0.901,-0.38 3.08,-1.013 4.841,-1.407 5.704,-1.276 8.419,-1.989 9.607,-2.522 5.566,-2.499 15.888,-3.474 21.601,-2.041 11.59,2.907 34.828,-0.246 48.559,-6.588 3.912,-1.807 5.843,-1.665 7.945,0.584 m -200.084,21.921 c -6.763,2.252 -9.179,2.933 -11.679,3.291 -7.436,1.067 -14.061,5.221 -16.664,10.45 -3.896,7.828 -3.819,8.119 3.706,13.894 3.143,2.412 7.015,5.594 8.607,7.071 2.117,1.966 3.209,2.596 4.075,2.35 4.2,-1.192 15.054,-2.135 20.106,-1.747 7.413,0.57 10.384,-0.081 10.462,-2.291 0.045,-1.269 5.575,-6.854 8.371,-8.453 5.08,-2.907 5.415,-3.545 3.113,-5.922 -2.363,-2.438 -5.426,-7.266 -5.946,-9.371 -0.495,-2.005 -2.027,-3.371 -4.458,-3.974 -3.025,-0.751 -7.441,-2.552 -11.187,-4.563 -3.971,-2.131 -4.244,-2.155 -8.506,-0.735 m 7.058,1.66 c 1.052,0.56 2.271,1.346 2.709,1.747 0.438,0.4 1.269,0.727 1.848,0.727 0.578,0 1.378,0.393 1.776,0.874 0.409,0.492 1.678,0.873 2.911,0.873 1.234,0 2.503,0.381 2.912,0.874 0.398,0.48 1.061,0.873 1.472,0.873 0.411,0 1.713,1.983 2.895,4.406 1.181,2.424 2.516,4.548 2.966,4.72 0.45,0.173 0.818,0.679 0.818,1.125 0,0.446 0.362,0.811 0.805,0.811 0.443,0 0.939,0.51 1.102,1.132 0.328,1.253 -1.176,2.944 -2.618,2.944 -0.501,0 -1.062,0.393 -1.246,0.874 -0.185,0.48 -0.679,0.873 -1.098,0.873 -1.097,0 -4.596,3.551 -6.558,6.655 l -1.682,2.661 -10.51,0.025 c -7.63,0.019 -11.147,0.256 -12.838,0.865 -4.197,1.512 -5.193,1.204 -9.47,-2.928 -2.154,-2.082 -4.218,-3.785 -4.585,-3.785 -0.367,0 -0.819,-0.393 -1.003,-0.873 -0.184,-0.48 -0.736,-0.873 -1.227,-0.873 -0.49,0 -0.899,-0.197 -0.907,-0.437 -0.009,-0.24 -1.057,-1.079 -2.329,-1.864 -3.096,-1.91 -3.081,-2.834 0.163,-9.862 1.205,-2.611 2.934,-4.722 3.866,-4.722 0.286,0 0.671,-0.393 0.855,-0.874 0.184,-0.48 0.97,-0.873 1.747,-0.873 0.776,0 1.562,-0.393 1.746,-0.873 0.226,-0.588 1.152,-0.875 2.828,-0.877 1.371,-0.002 3.244,-0.395 4.161,-0.874 0.917,-0.478 2.654,-0.87 3.859,-0.87 1.237,0 2.506,-0.38 2.916,-0.873 0.398,-0.48 1.559,-0.873 2.58,-0.873 1.02,0 2.364,-0.385 2.985,-0.855 1.525,-1.153 3.838,-1.105 6.151,0.127 m 99.783,9.791 c -2.013,0.577 -6.09,0.842 -13.216,0.86 l -10.306,0.026 -3.606,4.18 c -3.925,4.549 -6.153,6.499 -9.451,8.274 -2.508,1.349 -2.76,2.852 -0.744,4.437 1.889,1.486 5.266,6.754 5.935,9.259 0.564,2.111 4.249,4.575 6.934,4.636 1.145,0.027 8.021,3.328 10.398,4.993 1.763,1.235 3.513,1.061 8.475,-0.844 2.429,-0.932 7.037,-2.284 10.239,-3.005 9.819,-2.209 14.198,-5.236 17.184,-11.875 2.821,-6.272 2.415,-7.522 -3.793,-11.678 -1.601,-1.072 -4.918,-3.8 -7.37,-6.062 -4.9,-4.519 -5.474,-4.691 -10.679,-3.201 m 9.648,4.451 c 4.032,4.071 5.213,4.997 7.965,6.243 0.72,0.326 1.31,0.861 1.31,1.189 0,0.328 0.285,0.597 0.634,0.597 2.352,0 3.143,4.012 1.317,6.679 -0.433,0.632 -0.787,1.615 -0.787,2.184 0,0.569 -0.262,1.035 -0.582,1.035 -0.32,0 -0.582,0.351 -0.582,0.78 0,0.886 -3.267,4.025 -4.804,4.615 -0.56,0.215 -1.019,0.661 -1.019,0.991 0,0.33 -0.736,0.601 -1.635,0.601 -0.9,0 -2.144,0.384 -2.766,0.855 -0.621,0.47 -2.121,0.863 -3.332,0.873 -1.211,0.01 -3.143,0.411 -4.292,0.892 -1.15,0.48 -2.609,0.873 -3.242,0.873 -0.633,0 -1.976,0.367 -2.985,0.816 -4.756,2.115 -9.695,2.233 -9.695,0.232 0,-0.256 -0.299,-0.466 -0.664,-0.466 -0.64,0 -4.368,-1.611 -7.577,-3.274 -0.85,-0.441 -2.467,-0.801 -3.593,-0.801 -1.802,0 -2.094,-0.21 -2.431,-1.747 -0.211,-0.961 -0.597,-1.747 -0.857,-1.747 -0.26,0 -0.643,-0.677 -0.85,-1.505 -0.208,-0.828 -0.633,-1.811 -0.945,-2.184 -5.067,-6.055 -5.292,-7.084 -1.924,-8.829 1.236,-0.64 3.621,-2.606 5.301,-4.367 1.68,-1.761 3.878,-4.066 4.885,-5.123 1.604,-1.683 2.054,-1.863 3.641,-1.455 4.449,1.142 21.168,-0.027 22.731,-1.59 1.23,-1.23 2.794,-0.392 6.778,3.633"
       inkscape:connector-curvature="0"
       style="fill:#353132;fill-rule:evenodd;stroke:none" />
  </g>
</svg>
