<svg id="bg" xmlns="http://www.w3.org/2000/svg" xmlns:xlink="http://www.w3.org/1999/xlink" viewBox="0 0 526 526"><defs><style>.cls-1{fill:none;}.cls-2{fill:#102542;}.cls-3{clip-path:url(#clip-path);}.cls-4{opacity:0.9;}.cls-5{fill:#f87060;}.cls-6{fill:#fabc3c;}.cls-7{fill:#fff;}.cls-8{opacity:0.09;}.cls-9{fill:#1b998b;}</style><clipPath id="clip-path"><circle id="circle" class="cls-1" cx="263" cy="263" r="250"/></clipPath></defs><title>logo-shop</title><g id="slate"><circle id="bg-blue" class="cls-2" cx="263" cy="263" r="263"/><g id="bloc"><g class="cls-3"><g id="blocs"><g class="cls-4"><rect class="cls-5" x="277.39" y="151.88" width="138.96" height="99.26" rx="33" ry="33"/></g><g class="cls-4"><rect class="cls-6" x="277.39" y="276.18" width="138.96" height="99.26" rx="33" ry="33"/></g><g class="cls-4"><rect class="cls-7" x="112.03" y="151.88" width="138.96" height="99.26" rx="33" ry="33"/></g><g class="cls-8"><rect class="cls-7" x="276.23" y="24.95" width="138.96" height="99.26" rx="33" ry="33"/></g><g class="cls-8"><rect class="cls-7" x="110.88" y="24.95" width="138.96" height="99.26" rx="33" ry="33"/></g><g class="cls-4"><rect class="cls-9" x="110.88" y="274.86" width="138.96" height="99.26" rx="33" ry="33"/></g><g class="cls-8"><rect class="cls-7" x="-51" y="150.56" width="138.96" height="99.26" rx="33" ry="33"/></g><g class="cls-8"><rect class="cls-7" x="-51" y="24.95" width="138.96" height="99.26" rx="33" ry="33"/></g><g class="cls-8"><rect class="cls-7" x="-51" y="274.86" width="138.96" height="99.26" rx="33" ry="33"/></g><g class="cls-8"><rect class="cls-7" x="439.04" y="150.56" width="138.96" height="99.26" rx="33" ry="33"/></g><g class="cls-8"><rect class="cls-7" x="439.04" y="24.95" width="138.96" height="99.26" rx="33" ry="33"/></g><g class="cls-8"><rect class="cls-7" x="439.04" y="274.86" width="138.96" height="99.26" rx="33" ry="33"/></g><g class="cls-8"><rect class="cls-7" x="276.23" y="401.79" width="138.96" height="99.26" rx="33" ry="33"/></g><g class="cls-8"><rect class="cls-7" x="110.88" y="401.79" width="138.96" height="99.26" rx="33" ry="33"/></g><g class="cls-8"><rect class="cls-7" x="-51" y="401.79" width="138.96" height="99.26" rx="33" ry="33"/></g><g class="cls-8"><rect class="cls-7" x="439.04" y="401.79" width="138.96" height="99.26" rx="33" ry="33"/></g></g></g></g></g></svg>