<?xml version="1.0" standalone="no"?>
<!DOCTYPE svg PUBLIC "-//W3C//DTD SVG 20010904//EN"
 "http://www.w3.org/TR/2001/REC-SVG-20010904/DTD/svg10.dtd">
<svg version="1.0" xmlns="http://www.w3.org/2000/svg"
 width="700.000000pt" height="700.000000pt" viewBox="0 0 700.000000 700.000000"
 preserveAspectRatio="xMidYMid meet">
<metadata>
Created by potrace 1.11, written by Peter Selinger 2001-2013
</metadata>
<g transform="translate(0.000000,700.000000) scale(0.100000,-0.100000)"
fill="#000000" stroke="none">
<path d="M3365 6994 c-696 -32 -1346 -254 -1894 -647 -828 -595 -1347 -1491
-1452 -2512 -14 -142 -14 -528 0 -670 64 -620 282 -1202 634 -1694 595 -828
1491 -1347 2512 -1452 61 -6 211 -11 335 -11 124 0 275 5 335 11 1021 105
1917 624 2512 1452 352 492 570 1074 634 1694 14 142 14 528 0 670 -105 1021
-624 1917 -1452 2512 -490 351 -1096 578 -1689 632 -125 11 -377 19 -475 15z
m-354 -2029 c145 -37 266 -153 311 -297 16 -52 18 -96 18 -348 0 -254 -2 -295
-19 -349 -55 -177 -193 -288 -384 -312 -55 -7 -270 -9 -584 -6 -420 3 -505 6
-544 19 -156 54 -266 167 -304 313 -21 84 -22 581 0 665 39 149 161 274 309
314 77 21 1118 22 1197 1z m2170 5 c170 -32 299 -156 344 -327 22 -83 21 -574
0 -658 -38 -143 -151 -261 -294 -305 -60 -19 -94 -20 -616 -20 -510 0 -558 1
-613 18 -158 50 -276 186 -302 349 -13 76 -13 511 0 588 28 172 179 327 346
354 73 13 1071 13 1135 1z m-2186 -1645 c127 -34 230 -120 288 -242 l32 -68 3
-310 c2 -221 0 -323 -9 -355 -45 -168 -187 -294 -362 -321 -39 -6 -272 -9
-593 -7 -526 3 -529 3 -586 26 -122 49 -215 138 -259 249 -24 57 -24 65 -24
388 l0 330 32 68 c57 120 160 208 284 241 82 22 1109 23 1194 1z m2239 -19
c148 -56 243 -153 286 -295 18 -56 20 -93 20 -345 0 -203 -4 -295 -14 -331
-46 -174 -185 -299 -362 -325 -47 -7 -253 -10 -595 -7 -452 3 -530 5 -571 20
-153 52 -269 184 -298 337 -13 69 -13 541 0 611 32 171 190 323 361 349 30 4
295 7 589 6 494 -2 539 -3 584 -20z"/>
</g>
</svg>
