<svg id="Calque_1" xmlns="http://www.w3.org/2000/svg" width="217.8" height="31.1" viewBox="0 0 217.8 31.1"><style>.st0{fill:#16a4e2}.st1{fill:#575656}</style><path class="st0" d="M2.9 24c0 .6.1 1.2.4 1.7l10.2-10.2L3.3 5.4c-.2.5-.4 1.1-.4 1.7V24z"/><path class="st1" d="M24 0H7.1C3.2 0 0 3.2 0 7.1V24c0 3.9 3.2 7.1 7.1 7.1H24c3.9 0 7.1-3.2 7.1-7.1V7.1C31.1 3.2 27.9 0 24 0zm0 2.9c.6 0 1.2.1 1.7.4L15.6 13.5 5.4 3.3c.5-.2 1.1-.4 1.7-.4H24zM3.3 25.7c-.2-.5-.4-1.1-.4-1.7V7.1c0-.6.1-1.2.4-1.7l10.2 10.2L3.3 25.7zM28.2 24c0 2.3-1.9 4.2-4.2 4.2H7.1c-.6 0-1.2-.1-1.7-.4L27.8 5.4c.2.5.4 1.1.4 1.7V24z"/><g><path class="st1" d="M42 27.6c-1.7 0-3-1.4-3-3 0-.8.3-1.6.9-2.2L56.4 6.8H41.5c-1.1 0-2-.7-2-1.6 0-.9.9-1.6 2-1.6h15.4c1.7 0 3 1.4 3 3 0 .8-.3 1.6-.9 2.2L42.5 24.4h14.9c1.1 0 2 .7 2 1.6 0 .9-.9 1.6-2 1.6H42zM74.1 27.6c-3.3 0-6.2-1.2-8.5-3.5s-3.5-5.2-3.5-8.5 1.2-6.2 3.5-8.5 5.2-3.5 8.5-3.5 6.2 1.2 8.5 3.5 3.5 5.2 3.5 8.5c0 .4-.1.8-.5 1.1-.3.3-.7.5-1.1.5H65.3v.2c.3 1.7 1.2 3.2 2.5 4.5 1.7 1.7 3.9 2.6 6.3 2.6 2.2 0 4.2-.7 5.8-2.1.3-.2.6-.3 1-.3s.8.1 1.1.5c.3.3.5.7.5 1.1 0 .4-.1.8-.4 1.1-2.4 1.8-5 2.8-8 2.8zm0-21c-2.5 0-4.6.9-6.3 2.6-1.3 1.3-2.1 2.8-2.5 4.5v.2H83v-.2c-.3-1.7-1.2-3.2-2.5-4.5-1.8-1.7-4-2.6-6.4-2.6zM100.3 27.6c-3.3 0-6.2-1.2-8.5-3.5s-3.5-5.2-3.5-8.5 1.2-6.2 3.5-8.5 5.2-3.5 8.5-3.5 6.2 1.2 8.5 3.5 3.5 5.2 3.5 8.5c0 .4-.1.8-.5 1.1-.3.3-.7.5-1.1.5H91.4v.2c.3 1.7 1.2 3.2 2.5 4.5 1.7 1.7 3.9 2.6 6.3 2.6 2.2 0 4.2-.7 5.8-2.1.3-.2.6-.3 1-.3s.8.1 1.1.5c.3.3.5.7.5 1.1 0 .4-.1.8-.4 1.1-2.3 1.8-4.9 2.8-7.9 2.8zm0-21c-2.5 0-4.6.9-6.3 2.6-1.3 1.3-2.1 2.8-2.5 4.5v.2h17.7v-.2c-.3-1.7-1.2-3.2-2.5-4.5-1.8-1.7-4-2.6-6.4-2.6z"/><path class="st0" d="M155.2 27.6c-3.3 0-6.2-1.2-8.5-3.5s-3.5-5.2-3.5-8.5 1.2-6.2 3.5-8.5 5.2-3.5 8.5-3.5 6.2 1.2 8.5 3.5 3.5 5.2 3.5 8.5-1.2 6.2-3.5 8.5c-2.4 2.3-5.2 3.5-8.5 3.5zm0-20.9c-2.5 0-4.6.9-6.3 2.6-1.7 1.7-2.6 3.9-2.6 6.3 0 2.5.9 4.6 2.6 6.3 1.7 1.7 3.9 2.6 6.3 2.6 2.5 0 4.6-.9 6.3-2.6 1.7-1.7 2.6-3.9 2.6-6.3 0-2.5-.9-4.6-2.6-6.3-1.7-1.8-3.9-2.6-6.3-2.6zM190.1 27.6c-.4 0-.8-.1-1.1-.5-.3-.3-.5-.7-.5-1.1V14.7c0-2.2-.8-4.1-2.4-5.7-1.6-1.6-3.5-2.4-5.7-2.4s-4.1.8-5.7 2.4c-1.6 1.6-2.4 3.5-2.4 5.7V26c0 .4-.1.8-.5 1.1s-.7.5-1.1.5c-.4 0-.8-.1-1.1-.5-.3-.3-.5-.7-.5-1.1V5.1c0-.4.1-.8.5-1.1s.7-.5 1.1-.5c.4 0 .8.1 1.1.5s.5.7.5 1.1V7l.3-.3c2.1-2.1 4.7-3.1 7.7-3.1 3.1 0 5.7 1.1 7.9 3.3 2.2 2.2 3.3 4.8 3.3 7.9V26c0 .4-.1.8-.5 1.1-.1.3-.5.5-.9.5zM205.8 27.6c-3.3 0-6.2-1.2-8.5-3.5s-3.5-5.2-3.5-8.5 1.2-6.2 3.5-8.5 5.2-3.5 8.5-3.5 6.2 1.2 8.5 3.5 3.5 5.2 3.5 8.5-1.2 6.2-3.5 8.5c-2.4 2.3-5.2 3.5-8.5 3.5zm0-21c-2.5 0-4.6.9-6.3 2.6-1.7 1.7-2.6 3.9-2.6 6.3 0 2.5.9 4.6 2.6 6.3 1.7 1.7 3.9 2.6 6.3 2.6 2.5 0 4.6-.9 6.3-2.6 1.7-1.7 2.6-3.9 2.6-6.3 0-2.5-.9-4.6-2.6-6.3-1.8-1.7-3.9-2.6-6.3-2.6zM141.1 22.7v-16c0-1.5-.5-2.5-1.5-2.9-.3-.1-.6-.2-1-.2-.9 0-1.8.4-2.6 1.1l-8 7.4-.1.1-.1-.1-8-7.4c-.8-.7-1.7-1.1-2.6-1.1-.4 0-.7.1-1 .2-1 .4-1.5 1.5-1.5 2.9V25c0 1.4.8 2.5 1.8 2.5s1.8-1.1 1.8-2.5V8l.3.3L128 17l9.4-8.7.3-.3v17.2c0 1.4.8 2.5 1.8 2.5s1.8-1.1 1.8-2.5l-.2-2.5z"/></g></svg>