<?xml version="1.0" encoding="UTF-8" standalone="no"?>
<!-- Generator: Adobe Illustrator 15.0.0, SVG Export Plug-In  -->

<svg
   xmlns:dc="http://purl.org/dc/elements/1.1/"
   xmlns:cc="http://creativecommons.org/ns#"
   xmlns:rdf="http://www.w3.org/1999/02/22-rdf-syntax-ns#"
   xmlns:svg="http://www.w3.org/2000/svg"
   xmlns="http://www.w3.org/2000/svg"
   xmlns:sodipodi="http://sodipodi.sourceforge.net/DTD/sodipodi-0.dtd"
   xmlns:inkscape="http://www.inkscape.org/namespaces/inkscape"
   version="1.1"
   x="0px"
   y="0px"
   width="495px"
   height="544px"
   viewBox="-0.376 -0.985 495 544"
   enable-background="new -0.376 -0.985 495 544"
   xml:space="preserve"
   id="svg2"
   inkscape:version="0.48.2 r9819"
   sodipodi:docname="regions.svg"><metadata
   id="metadata1030"><rdf:RDF><cc:Work
       rdf:about=""><dc:format>image/svg+xml</dc:format><dc:type
         rdf:resource="http://purl.org/dc/dcmitype/StillImage" /></cc:Work></rdf:RDF></metadata><sodipodi:namedview
   pagecolor="#ffffff"
   bordercolor="#666666"
   borderopacity="1"
   objecttolerance="10"
   gridtolerance="10"
   guidetolerance="10"
   inkscape:pageopacity="0"
   inkscape:pageshadow="2"
   inkscape:window-width="1440"
   inkscape:window-height="850"
   id="namedview1028"
   showgrid="false"
   inkscape:zoom="1.1640155"
   inkscape:cx="247.137"
   inkscape:cy="274.23402"
   inkscape:window-x="-8"
   inkscape:window-y="-8"
   inkscape:window-maximized="1"
   inkscape:current-layer="svg2" />
<defs
   id="defs4">
</defs>





































































































































































































































<path
   inkscape:connector-curvature="0"
   d="m 64.217186,116.88832 -2.03125,1.5625 -4.5,0.5625 -0.90625,1.25 -3.0625,-2.28125 -4.53125,3.03125 1.625,2.1875 -2.4375,3.34375 -3.1875,-1.84375 -5.84375,0.1875 0,3.90625 -1.03125,0 -0.375,-1.8125 -2.3125,0.375 -0.4375,-4.84375 -2.4375,2.6875 -2.21875,-0.9375 -4.5625,0.4375 -0.78125,1.96875 -2.09375,0.5 -0.375,-2.125 -5.03125,0.65625 0,1.34375 -2.71875,0.15625 -1.4375,-1 -1.875,0.9375 -0.375,2.25 -5.1562496,0.1875 -3.03125,3.65625 2.28125,1.71875 -3.03125,2.46875 1.0625,1.875 -0.8125,4.5 3.5625,0.4375 1.0625,-1.03125 0.46875,0.65625 7.5937496,-1 1.53125,-1.0625 -1.3125,1.25 0.5,2.46875 3.65625,-1.625 -0.71875,2.46875 4.375,0.21875 -0.09375,0.53125 -4.375,-0.15625 -3.65625,-0.9375 -4.71875,-2.25 -3.1562496,3.625 3.7187496,1.25 -0.21875,5.6875 1.5,-1.1875 2.0625,-3.15625 3.84375,2.21875 1.875,0.40625 0.71875,2.8125 -1.0625,1.84375 -2.34375,-0.15625 -2.40625,0 -3.875,0.59375 -6.7812496,0.375 -1.625,2.15625 2.3125,1.375 2.125,-0.1875 1.75,1.5625 2.4999996,-0.1875 3.96875,4.53125 0.9375,4.875 -1.5,3 4.53125,0.875 4.6875,-0.21875 1.125,-2.0625 -1.15625,-1.59375 0.75,0.34375 1.78125,-0.1875 3.125,1.75 2.3125,-0.4375 0,-0.96875 0.1875,0.8125 2.625,4.3125 5.90625,0.40625 0.125,-0.71875 1,1.4375 3.53125,0.625 2.375,0 0.03125,0.0312 2.28125,3.65625 3.4375,0.84375 0.28125,-0.375 -0.1875,0.59375 2.90625,1.28125 3.46875,3.40625 1.09375,2.03125 -0.8125,5.1875 2.71875,2 1.53125,-1.75 -1.28125,-1.6875 0,-3 2.25,0.53125 0.625,-1.875 0.28125,0.65625 2.875,2.5 1.46875,-2.40625 -0.1875,-0.375 0.65625,0.90625 0.15625,-0.0312 -1.875,2.375 2.625,0.875 1.8125,2.78125 10.6875,-0.96875 2.09375,0.46875 -1,0.84375 0.21875,2.0625 0.5625,0.4375 1.0625,-0.1875 1.59375,-1.5625 1.03125,1.1875 3.28125,0 3.8125,-1.96875 5.656254,-2.21875 0.1875,-5.5 1.25,-0.6875 3.625,-1.90625 12.25,-0.625 0.8125,-2.28125 1.84375,-1.8125 4.4375,-0.59375 0.1875,-2.09375 2.5,0.34375 1.71875,2.34375 4.28125,1.03125 0.875,-1.8125 1,-3.5 2.46875,-6.15625 1.21875,-0.6875 3.53125,0.4375 0,-5.75 -1.375,-1.375 0,-5.53125 -0.59375,-1.96875 0,-2.96875 1.96875,-1.96875 0,-4.15625 -0.96875,-0.78125 0.1875,-5.53125 -1.71875,-0.84375 -2.375,-0.0312 -2.125,-1.6875 -2.21875,2.65625 -1.78125,0.21875 -1.5,2.0625 -1.3125,-0.3125 -3.21875,-2.8125 -1.125,-3.625 -0.65625,-2.6875 -9.75,0 -3.15625,-1.93755 2.46875,-3.34375 -5.40625,-0.21875 -2.0625,2.34375 0,0.0312 -1.03125,1.15625 -3.84375,-0.40625 -0.40625,2.1875 -1.78125,0.15625 -0.1875,-2.625 -2.375004,-0.71875 -0.96875,1.125 0,-3.71875 -2.71875,2.03125 -3.59375,-0.59375 -1.25,2.4375 -7.28125,3.96875 0,1.84375 -0.96875,0 0,-3.4375 -4.0625,-1.90625 0.375,-3.5 -3.71875,-2.71875 0,-3.40625 -2.71875,-0.59375 0.1875,-3.15625 -2.125,-0.1875 0.1875,-2.1875 -4.4375,0 -0.4375,1.34375 -0.96875,-2.3125 z m 9.75,73.15625 1.84375,0.4375 1.75,2.09375 -0.75,1.1875 -2.25,-0.6875 -3,-1.40625 2.875,-0.4375 -0.46875,-1.1875 z"
   id="path386"
   style="fill:none;fill-opacity:1;stroke:#000000;stroke-opacity:1;stroke-width:0.9;stroke-miterlimit:4;stroke-dasharray:none"
   inkscape:export-xdpi="600.04968"
   inkscape:export-ydpi="600.04968" /><path
   inkscape:connector-curvature="0"
   d="m 176.90469,140.23207 -2.25,0.21875 -0.84375,2 -2.6875,1.09375 -5.3125,-0.78125 -5.21875,3.09375 -1.9375,-1.375 -2.9375,1.96875 -1.9375,-1.40625 -1.40625,-2.375 -3.15625,-1.3125 -2,1.59375 -3.53125,-0.40625 -0.1875,5.5625 0.96875,0.78125 0,3.625 -1.96875,1.96875 0,3.25 0.59375,2 0,5.71875 1.375,1.375 0,4.8125 -3.0625,-0.375 -1.5625,0.90625 -2.59375,6.375 -0.96875,3.46875 -0.3125,0.65625 -0.34375,0.6875 -0.3125,-0.0625 -3.28125,-0.8125 -1.75,-2.375 -3.375,-0.4375 -0.1875,2.21875 -4.15625,0.5625 -2.03125,2.03125 -0.78125,2.0625 -11.90625,0.59375 -5.375,2.84375 -0.1875,5.4375 -5.312504,2.09375 -3.65625,1.90625 -2.90625,0 -1.28125,-1.5 -1.90625,1.90625 -1.46875,0.28125 1.28125,0.875 -3.65625,3.28125 0.96875,0.96875 0.6875,1.375 -2.0625,2.875 2.4375,1.3125 4.09375,0.875 0.28125,-1.25 1.875,2.375 3.8125,0 2.53125,-2.75 1.90625,0 -2.53125,1.28125 0.1875,2.15625 0.71875,1.65625 -1.90625,1.9375 -2.5625,0 0.5,3.59375 4.4375,-0.8125 4.781254,4.375 -0.0625,0.0937 -0.21875,0.28125 -5.687504,7.3125 -0.1875,4.90625 6.031254,5.84375 -0.21875,1.9375 1.875,0 3.6875,11.0625 3.96875,1.96875 3.96875,3.96875 4.40625,0 1.75,3.90625 4.34375,0 1.90625,2.875 4.78125,2.375 0.1875,-2.5625 0.78125,0.75 6.125,-3.6875 2.4375,-0.15625 1.1875,3.1875 3.84375,-1.625 3.15625,2.375 2.625,-1.25 2.25,-0.625 1,-1.1875 3,-1.9375 -2.375,-2.40625 -1.375,1.03125 -0.0937,-0.96875 1.40625,-2.625 -1.375,-2.3125 1.125,-1.5 -0.625,-5.59375 -1.84375,-2.84375 1.375,-1.8125 -3.15625,-3.53125 1.15625,-2.5625 -4.75,-3.96875 0,-2.3125 -1.78125,-2.5 0.5,-0.21875 3.1875,-1.375 6.09375,1.40625 2.9375,-1.96875 0,-2.59375 5.0625,-0.375 4.8125,-0.96875 5.0625,-0.1875 0.53125,1.1875 1.71875,1.5 1.5,-2.59375 3.625,-3.8125 1.59375,0 2.25,-8.15625 3.15625,-3.75 -0.21875,-4.3125 1.96875,-2.5625 0,-1.34375 -0.90625,-1.125 0.5625,-1.15625 1.125,-2.25 3.71875,2.59375 2.65625,0 -1.0625,-3.5 1.90625,1.28125 1.46875,-2.125 5.875,-1.625 -1.03125,-2.5 1.21875,-1.5625 2.9375,-1.15625 2.8125,-3.65625 0,-3.53125 1.90625,0 0.84375,-3 0.1875,-4.25 -1.84375,-1.71875 1.40625,-2.46875 2.5,-3.1875 -2.96875,-2.09375 -2.53125,-0.4375 -2.75,-4.125 -1.21875,0 -0.0625,0.59375 -3.96875,0 -1.9375,-2.90625 -3.25,-1.15625 -0.9375,-6.84375 -1.71875,-2.375 -5.5313,0.18755 -5.28125,4.875 -2.6875,-0.15625 -0.28125,-0.0312 -0.96875,-3.46875 -2.53125,-0.9688 -0.75,-4.21875 -1.9375,-1.71875 z"
   id="polygon388"
   style="fill:none;fill-opacity:1;stroke:#000000;stroke-opacity:1;stroke-width:0.9;stroke-miterlimit:4;stroke-dasharray:none"
   inkscape:export-filename="C:\Users\Romain\Desktop\path386.png"
   inkscape:export-xdpi="600.04968"
   inkscape:export-ydpi="600.04968" /><path
   inkscape:connector-curvature="0"
   d="m 182.90469,219.54457 -3.84375,4.03125 -0.4375,0.78125 -0.71875,1.25 -1.0625,-0.875 -0.625,-1.5 -5.53125,0.21875 -4.84375,0.96875 -5.5625,0.40625 0,2.84375 -2.46875,1.625 -6.03125,-1.375 -4.53125,1.9375 2.09375,2.96875 0,2.40625 4.625,3.84375 -1.15625,2.5 3.09375,3.46875 -1.34375,1.75 2,3.03125 0.59375,5.28125 -1.21875,1.625 1.375,2.34375 -1.3125,2.5 0.25,2.1875 1.78125,-1.34375 1.46875,1.53125 -2.40625,1.53125 -0.96875,1.15625 -2.125,0.59375 -2.34375,1.09375 -0.0312,-0.0312 -0.53125,-0.4375 0,0.0625 -2.5625,-1.9375 -3.59375,1.53125 -1.125,-3.0625 -2.9688,0.2187 -6.4375,3.875 1.46875,1.34375 -2.9375,2.375 -0.34375,1.875 -2.5625,0.3125 -1.53125,-1.71875 -3.8125,-0.34375 -0.40625,-1.875 -2.5625,-1.71875 -3.8125,1.375 2.46875,3.5625 2.78125,0 2.65625,1.6875 2.25,1.8125 4,-0.1875 0.75,1.71875 2.71875,0.59375 0.96875,2.6875 1.6875,0.71875 -0.15625,1.625 -2.21875,-0.34375 -1,1.46875 1.78125,2.59375 -0.875,3.9375 -2.40625,-0.1875 -0.625,-1.34375 -0.9375,-0.8125 -0.40625,-4.8125 -3.4375,-0.4375 -3.125,-3.8125 -0.46875,7.78125 4.5,3.34375 0.375,3.59375 0.78125,4.25 0.4375,4.625 2.53125,-0.25 4.03125,3.3125 2.59375,1.46875 0.21875,2.03125 2.28125,0.40625 6.125,6.125 1.375,6.3125 0.125,0.59375 0.0312,0 1.5625,6.625 0.375,5.5625 -0.53125,0.84375 -0.8125,-3.96875 -2.78125,-10.8125 -9.9375,-8.96875 0.25,-4.21875 -2.4375,-0.25 -3.28125,4.90625 -0.9687,16.46875 -2.53125,16.59375 -1.78125,12.90625 -0.1875,3.34375 0.59375,0.0937 1.34375,-4.4375 2.5,-3.25 3.59375,3.28125 0.40625,1.09375 0.84375,1.1875 -4.125,0.1875 -0.84375,-1.25 -2.3125,0.9375 -0.4375,3.03125 -2.15625,2.9375 0,4.53125 -0.0312,0.125 -3.46875,18.59375 -4.5,17.1875 -1.375,6.65625 -1.125,4.65625 -2.75,4.71875 -0.125,0.21875 -0.1875,0.28125 -0.625,1.125 -4.4375,5.40625 -3.375,1.34375 -2.78125,0.40625 0,2.5625 2.53125,2.3125 3.34375,0.15625 0.1875,2.53125 3.21875,0.25 0.75,-1.6875 3.46875,1.46875 2.1875,0.53125 0.46875,2 -1.3125,1.15625 0,3.625 -2.71875,1.375 -0.21875,2.0625 1.875,2.125 3.53125,1.09375 0.65625,-3.1875 1.09375,-1.21875 -0.125,1.75 1.53125,2.1875 3.5,0 1.53125,2.09375 4.75,0.78125 4.53125,2.78125 7.21875,0 0.40625,3.9375 5.09375,3.96875 2.125,2.5 2.34375,-1.25 1.75,-0.34375 1,1 5.53125,-3.03125 0.3125,-4.0625 1.5625,-1.15625 0.78125,-6.25 2.71875,0.53125 1.5,-0.96875 -1.375,-2.78125 5.09375,-4.34375 3.15625,-7.09375 2.0625,-2.6875 -3.875,-5.8125 2.15625,-1.96875 -3.53125,-5.8125 -5.25,-0.375 -0.0625,-0.0625 -0.21875,-0.40625 -1.15625,-2 1.3125,-3.5625 2,-2.59375 -0.59375,-3.28125 1.625,-1.625 -2.34375,-3.9375 1.75,-2.09375 1.96875,-0.375 2,0.84375 2.5625,-2.1875 0.84375,2.5 1.125,1.625 2.59375,-0.6875 -0.21875,-2.71875 0.65625,-1.40625 0.53125,-1.09375 2.21875,1.875 3.0625,-3.0625 1.28125,1.8125 3.5,-0.625 3.6875,-0.40625 1.5625,-2.75 5.53125,-0.53125 3.0625,3.03125 1.15625,-1.125 2.15625,-0.65625 -0.78125,-2.71875 2.625,-0.6875 4.03125,-0.875 -0.84375,-2.5 1.0625,-1.21875 1.0625,-4 -2.15625,-2.34375 1.21875,-3.9375 2.71875,1.625 4.8125,-0.875 -2.125,-4.625 -1.46875,-5.5 3.71875,-0.15625 0.96875,-2.53125 0.0625,-0.15625 1.8125,-1.78125 0.1875,-2.8125 4.15625,-0.375 3.0625,-4.34375 -1.375,-0.46875 -0.15625,-1.625 3.25,-0.40625 0.25,-2.03125 1.4375,-0.9375 1.9375,-3.40625 -1.8125,-2 0,-1.90625 1.4375,-1.25 0.125,-0.0312 4.125,-1.90625 4.75,2.125 3.90625,5.59375 2.5,-0.34375 3.09375,-3.09375 1.09375,1.9375 2.375,-2.34375 2.6875,0.71875 0.125,0.9375 3.125,-2.1875 -0.875,-2.15625 -1.0625,-1.09375 1.3125,-1.625 1.65625,0 1.03125,-3.28125 0.84375,-1.65625 -0.59375,-3.5 2.40625,-3.34375 3.625,-2.21875 0.1875,-5.15625 1.25,0.71875 2.03125,2.21875 2.21875,0 1.40625,-1.625 -1,-2.40625 0.9375,-3.46875 -0.625,-3.46875 -1.15625,-1.34375 0,-2.5625 1.78125,-2.9375 -0.4375,-2.9375 -0.25,-0.28125 -4.21875,-4.25 -0.3125,-1.4375 3.5,-2.03125 2.28125,-1.25 0.5625,-2.75 2.40625,-1.8125 -0.8125,-3.90625 -1.5625,-2 -0.375,-5.96875 -2.21875,-5.28125 -2.1875,-0.78125 -1.71875,-3.03125 -1.40625,1.78125 -1.0625,-1.34375 0,-2.34375 -2.5,-3.53125 -6.5625,0.78125 -3.6875,-0.9375 -10.03125,-1.21875 -1.15625,3.125 -3.25,-0.15625 -0.78125,-0.4375 -2.34375,0.21875 -1.875,-1.28125 -3.03125,3.5 -0.4375,0.5 -0.15625,0.1875 -0.25,0.28125 -3.09375,-3.09375 -1.875,1.84375 -3.53125,-0.25 0.4375,-3.3125 -2.1875,-1.1875 -1.21875,-4.15625 -3.21875,-0.4375 -1.875,-1.875 -3.5625,-2.8125 0.71875,-2.15625 0,-3.9375 -3.53125,-3.5 -0.375,-2.75 -3.375,-3.53125 -1.15625,-4.75 -1.4375,-0.625 -1.6875,-2.3125 -1.96875,1.25 0.375,2.0625 -4.71875,1.125 -5.53125,0 0.15625,-2.0625 0,-3.9375 -4.6875,-1.375 0,-2.375 -3.78125,-0.78125 -0.78125,-3.15625 -2.125,0 z m -49.59375,72.53125 0.1875,2.84375 0.34375,0.65625 -1.96875,0 -0.28125,-1.21875 1.71875,-2.28125 z"
   id="polygon392"
   style="fill:none;fill-opacity:1;stroke:#000000;stroke-opacity:1;stroke-width:0.9;stroke-miterlimit:4;stroke-dasharray:none"
   inkscape:export-filename="C:\Users\Romain\Desktop\path386.png"
   inkscape:export-xdpi="600.04968"
   inkscape:export-ydpi="600.04968" /><path
   inkscape:connector-curvature="0"
   d="m 249.93594,103.26332 -1.875,2.3125 -1.21875,4.40625 -1.15625,1.9375 -0.0312,0 -0.125,0.25 -5.4375,1.5625 -0.96875,1.21875 1.0625,1.65625 0,1.71875 1.4375,0.3125 -0.6875,0.71875 0.15625,1.53125 0.34375,-0.25 1.6875,1.6875 0.59375,2.34375 1.5,1.5 -0.71875,1.96875 -0.0312,2.15625 1.3125,1.46875 -1.34375,2.3125 1.46875,3.5625 2.6875,1.90625 0.40625,2.25 2.34365,0.375 0.5625,4.15625 1.875,2.3125 3.28125,0.625 0.71875,0.125 0.34375,2.34375 0.40625,0.65625 0.4375,5.46875 6.65625,-0.59375 2.40625,-2.25 2.03125,1.65625 5.1875,0.375 1.21875,1.8125 0.71875,1.0625 2.25,1.125 0.1875,2.96875 -3.3125,2.28125 2.21875,1.96875 2.25,-1.4375 5.28125,0.1875 2.09375,-0.40625 0.5625,-1.53125 1.71875,0.15625 0.40625,1.75 5.21875,-2.9375 4.375,-5.15625 -1.59375,-1.78125 1.25,-2.6875 3.34375,-1.65625 7.65625,0.375 1.625,-1.25 0.40625,0.40625 0.5,-3.875 0.78125,-3.84375 1.375,-1.78125 0.1875,-2.25 2.71875,-1.15625 0,-2.09375 -3,0.1875 -0.46875,-1.03125 0.96875,-1.71875 -0.84375,-3.1875 -1.5,-0.9375 0.375,-2.375 1.59375,-1.03125 -0.21875,-1.21875 0.78125,-0.96875 -3.59375,-0.75 -1,-2.3125 -1.8125,-0.625 -5.125,-4.9375 -0.59375,-4.34375 -2.40625,-1.75 -1.40625,0.71875 -1.8125,1.46875 -1.90625,-0.59375 -3.3125,1.375 -2.8125,-1.625 -1.25,1.65625 -1.5,0.15625 -1.125,-0.90625 -2.125,-1.25 -2.28125,1.53125 -0.34375,-0.34375 -0.875,-0.84375 -4.34375,-2.59375 -4.25,-2.21875 -2.21875,1 -2.1875,0.5625 -1.46875,-1.125 -3.3125,-2.03125 -2.625,2 -3.59375,0.40625 -5.125,-0.40625 -1.09375,-1.75 -0.9375,-2.21875 z"
   id="polygon398"
   style="fill:none;fill-opacity:1;stroke:#000000;stroke-opacity:1;stroke-width:0.9;stroke-miterlimit:4;stroke-dasharray:none"
   inkscape:export-filename="C:\Users\Romain\Desktop\path386.png"
   inkscape:export-xdpi="600.04968"
   inkscape:export-ydpi="600.04968" /><path
   inkscape:connector-curvature="0"
   d="m 280.21719,-2.1741801 -6.46875,3.03125 -9.71875,1.5625 -0.34375,0.0625 -0.0625,0 -0.5625,0.09375 0,0.03125 -10.375,1.96875 -8.84375,6.7812501 0,26.5 -0.0312,0.40625 -0.0625,0.625 -0.5,6.3125 4.3125,3.90625 0,1.34375 -5.03125,-3 -6.78125,8.3125 2.125,0.90625 2.03125,-0.1875 0.875,1.78125 8.59375,8.40625 0.5625,3.40625 1.875,3.4375 -0.5313,0.65625 -1.28125,1.53125 -0.96875,2.4375 1.5625,0 -0.65625,1.59375 -0.78125,4.03125 1.15625,1.96875 0,3.5625 1.75,0 -1.90625,3.5 -0.625,1.9375 1.8125,1.625 0.53125,4.40625 0.84375,1.34375 -0.875,0.21875 -2.03125,-1.125 -0.5,3.8125 0.46875,-0.59375 0.5625,1.3125 1.28125,2.09375 5.5,0.40625 3.78125,-0.40625 2.4375,-1.875 2.9375,1.8125 1.6875,1.28125 2.53125,-0.65625 1.96875,-0.90625 4,2.09375 4.25,2.5 1.5,1.53125 2.40625,-1.59375 1.75,1.03125 1.28125,1.03125 2,-0.21875 1.09375,-1.4375 2.625,1.5 3.375,-1.40625 2,0.625 2,-1.625 1.03125,-0.53125 0.0625,0.0625 0,0.0312 0.3125,0.21875 0.25,0.15625 1.28125,0.9375 0.59375,4.28125 5.3125,5.125 1.71875,0.625 1.03125,2.375 3.59375,0.75 0.5625,-0.71875 0.96875,-2 2.9375,-1.375 1.5625,-4.125 1.9375,-1.3125 -1.28125,-1.75 -2.4375,0 -0.25,-0.875 1.59375,-0.71875 1,-1.5 -1.8125,-1.21875 0.4375,-1.375 4.71875,-0.375 -1,-2.21875 -2.65625,-1.75 0,-4.9375 3.5,-2.59375 4.375,0 -0.40625,-2.0625 1.96875,-0.84375 3.28125,2.15625 1.71875,-0.46875 -0.1875,-6.875 0.59375,-2.28125 0.84375,-2.96875 -2.53125,-1.34375 0.4375,-1.15625 3.78125,-0.8125 0,-2.59375 2.90625,-1.5312 0.84375,-2.59375 -1,-1.59375 0.1875,-2.71875 1.84375,-1.625 -1.8125,-3.4375 0.5625,-3.71875 -3.34375,0 -1.03125,0 -0.125,-1.5 3.90625,-2.34375 -0.65625,-4.09375 -3.40625,-0.90625 0.6875,-0.71875 0,-2.6875 3.03125,-2.21875 -0.90625,-1.78125 -6.40625,-5.03125 -11.21875,0.59375 -1.15625,1.9375 -0.90625,0 0.1875,-6.65625 -3.3125,-3.90625 -2.34375,0.375 -1.40625,-1.59375 -3.90625,1.75 -1.28125,-1.28125 -2.65625,-0.375 -0.71875,-2.3125 -0.1875,-7.96875 -1.78125,-0.78125 -0.21875,-1.28125 -1.15625,0 -0.40625,-2.375 -2.875,0.25 -4.96875,1.59375 -2.3125,2.875 -2.0625,0 -1.4375,-1.78125 -0.5625,-2.09375 -2.09375,-2.375 -2.71875,0 -1.03125,-1.90625 0,-3.1875001 1.375,-2.15625 -0.84375,-3.125 -2.65625,-5.34375 z"
   id="polygon400"
   style="fill:none;fill-opacity:1;stroke:#000000;stroke-opacity:1;stroke-width:0.9;stroke-miterlimit:4;stroke-dasharray:none"
   inkscape:export-filename="C:\Users\Romain\Desktop\path386.png"
   inkscape:export-xdpi="600.04968"
   inkscape:export-ydpi="600.04968" /><path
   inkscape:connector-curvature="0"
   d="m 441.59219,333.01332 -1.96875,0.875 -0.40625,2.875 -3,0.34375 -0.5625,-2.5625 -1.3125,-1.34375 -3.75,0.40625 -1.53125,1.3125 -0.8125,4.3125 0.71875,1.1875 4.03125,0.40625 0.78125,2.46875 1.5,0.75 0,3.78125 -3.53125,-0.15625 -1.5625,1.71875 -4.4375,-0.78125 -2.5,2.125 -1.78125,-0.78125 -2.875,2.25 1,1.78125 -1.3125,1.3125 -5.0625,0 0,2.8125 1.46875,0.75 -0.4375,1 -3.15625,1.28125 -4.21875,0.40625 -1.28125,4 -0.1875,2.5 2.03125,1.625 -1.8125,2.125 -2.5,-1.25 -3.5,-0.25 -0.5,2.1875 1.78125,1.25 -2.1875,1.4375 0.90625,3.6875 6.65625,1.78125 1.1875,2.5625 1.8125,0.34375 -0.625,5.96875 -0.0312,0.3125 -0.75,-0.875 -1.90625,-1.65625 -1.125,3.28125 -1.59375,1.40625 -0.375,-0.0312 -0.28125,0 -0.34375,-0.0312 -1.3125,-0.0937 -2.78125,-2.0625 -0.8125,-2.625 -5.65625,-0.40625 -3.875,-0.375 -0.34375,-2 1.3125,-2.875 -0.46875,-0.34375 -2.40625,2.0625 -3.625,-0.375 -0.625,-1.0625 2.75,-3.75 -3,-2.84375 -3.03125,0.25 -2.25,3.53125 0.59375,3.84375 3.1875,0.375 -0.375,1.03125 -2.5,0.1875 -2.75,2.78125 -0.46875,-0.625 0.5625,-3.90625 -1.34375,-1.59375 -5.625,0.84375 -1.21875,2.46875 0.75,0.40625 3.21875,5.375 0,4.46875 5.8125,5.78125 0,2.21875 -2.625,1.5 -5.0625,2.875 -1.40625,10.34375 -5.71875,-0.78125 -1.78125,4.78125 1.28125,1.78125 -6.15625,3.78125 -1.96875,4.53125 6.625,0.3125 8.09375,0.59375 0.96875,0.96875 -2.375,0 -2.21875,3.8125 8.8125,1.84375 7.3125,-1.28125 -3.71875,-3.5 1.9375,-1.625 3.46875,1.46875 1.75,3.78125 11.40625,0.1875 2.6875,-1.09375 0.40625,1.28125 -3.53125,3.09375 4.65625,0.1875 -0.625,1.53125 -1.5625,1.84375 10.15625,0 4.5625,1.5 0.34375,0.46875 0.625,0.875 3.46875,1.53125 0.96875,3.96875 2.46875,0.4375 2.0625,-1.4375 3.40625,-2.09375 5.65625,0.5625 -0.125,1.09375 -1.84375,0.90625 0.125,0.5625 5.4375,0.25 -1.5938,-1.6564 -0.375,-2.25 2.25,-1.5625 2.8125,0.90625 1.09375,0.375 1.09375,1.3125 1.71875,-1.1875 0.375,-2.59375 1.375,-1.1875 4.15625,0 1.15625,-1.75 2.59375,0.78125 3.40625,-1.46875 0,-5.625 -3.25,0.15625 2.15625,-1.34375 1.625,-2.21875 0.4375,-3.03125 5.5625,-0.78125 3,-3.34375 0,-0.0312 0.1875,-0.1875 0.21875,-0.25 0.0312,-0.0625 0.1875,-4.21875 3.75,0.75 1.375,-1.78125 2.125,0.4375 0.1875,-6.15625 4.34375,-0.34375 3.875,-3.53125 3.65625,0 0.21875,-2.28125 3.625,-2.1875 -2,-4.53125 2.90625,-2.5 -0.5625,-2.84375 4.21875,-1.34375 1.21875,-4.5 -0.59375,-3 -1,-1.8125 -0.84375,-2.78125 -3.15625,0.25 -9.21875,3.3125 -2.78125,0 -4.96875,-4.03125 -5.21875,-1.4375 -2.71875,0 0,-3.40625 -4.09375,-2.53125 0,-3.46875 3.15625,-0.4375 -2.0625,-1.8125 -1.9375,-0.59375 -0.875,-2.28125 0.71875,-1.59375 3.5625,-3.8125 -0.5625,-2.75 0.3125,-0.3125 0.0625,-0.0625 0.46875,-0.5 1.3125,-1.4375 2.28125,0.21875 0,-2.28125 -2.71875,-1.375 -0.59375,-5.6875 -2.40625,-0.875 -2.71875,0.40625 -4.84375,-2.4375 -0.8125,-5.875 -2.96875,-0.96875 -0.9375,-1.875 -1.34375,-2.96875 -4,-0.1875 z"
   id="polygon410"
   style="fill:none;fill-opacity:1;stroke:#000000;stroke-opacity:1;stroke-width:0.9;stroke-miterlimit:4;stroke-dasharray:none"
   inkscape:export-filename="C:\Users\Romain\Desktop\path386.png"
   inkscape:export-xdpi="600.04968"
   inkscape:export-ydpi="600.04968" /><path
   inkscape:connector-curvature="0"
   d="m 472.24844,443.70082 -3.25,2.1875 0.4375,2.125 1.4375,1.84375 -1.71875,1.3125 0.40625,0.8125 0.40625,0.8125 -1.125,1.28125 0,2 1.96875,1.78125 0,2.53125 -1.125,2.375 -1,0.4375 -0.59375,-0.78125 -0.9375,-1.3125 -2.8125,0.21875 -0.59375,-0.40625 -2.53125,0 -2.28125,2.125 -0.78125,3.21875 -4.96875,0.9375 -4.03125,3.40625 -0.71875,2.03125 -1.59375,-0.15625 -1.34375,-1.59375 -0.625,3.8125 -1.40625,0.5625 -0.4375,3.375 0.53125,1.25 -2.03125,1.46875 -0.53125,1.4375 -1.65625,0 0,2.625 2.09375,1.46875 3.21875,1.875 0.15625,1.15625 -1.6875,0.53125 -3.375,0.625 0,1.71875 1.15625,1.1875 0.21875,4 4.5,1.4375 1.4375,0.34375 1.21875,1.90625 -0.8125,1.125 -1.5625,0.5625 -1.21875,2.21875 -1.25,1.46875 0.625,3.90625 3.09375,-0.1875 0.84375,0.625 2.75,-1.34375 0.46875,0.46875 -1.375,2.9375 1.28125,1.28125 -2.125,1.59375 -1.75,3.90625 4.6875,1.09375 5.46875,0.5 -2.03125,2.34375 c -0.411,-0.139 -1.25,-0.354 -1.75,-0.125 -0.03,0.015 -0.058,0.006 -0.125,0.0625 -0.007,0.006 -0.0408,0.0377 -0.0937,0.0937 -0.018,0.014 -0.0668,0.0477 -0.0937,0.0937 l -0.0625,0.125 c -0.002,0.004 0,0.0293 0,0.0312 l 0,0.0312 c -0.013,0.026 -0.0213,0.069 -0.0312,0.125 l 0,0.0937 c 0,0.734 -0.9475,2.5515 -1.3125,3.1875 l -0.125,0.1875 2.09375,2.28125 3.59375,2.21875 6.6875,1.78125 1.90625,0.78125 1.5,0.625 -1.28125,2.375 3.4375,-0.21875 0.59375,1.34375 3.5625,0 0.90625,-4.25 -1.75,-0.34375 2.59375,-2.71875 -1.09375,-1.09375 0.15625,-1.46875 3.53125,-1.9375 0.25,-2.625 -2.78125,-0.21875 -1.15625,1 0,-1 3.03125,-0.1875 1.03125,-2.5 0.8125,-6.9375 0,-0.0625 -0.59375,-2.90625 -0.0625,-2.65625 -0.125,-5.84375 4.6875,-6.625 0,-11.03125 -0.0937,-0.15625 -1.84375,-3.65625 -0.59375,-11.71875 -1.40625,-2.21875 -2.5,-1.9375 -0.40625,-7.0625 1.21875,-3.34375 -1.59375,-5.34375 -0.96875,-4.28125 -0.875,-1.3125 -2,-1.125 z"
   id="path416"
   style="fill:none;fill-opacity:1;stroke:#000000;stroke-opacity:1;stroke-width:0.9;stroke-miterlimit:4;stroke-dasharray:none"
   inkscape:export-filename="C:\Users\Romain\Desktop\path386.png"
   inkscape:export-xdpi="600.04968"
   inkscape:export-ydpi="600.04968" /><path
   inkscape:connector-curvature="0"
   d="m 236.15469,55.26332 -1.375,1.6875 -8.34375,6.40625 -14.8125,3.71875 -9.8125,3.53125 -8,4.3125 -4.78125,7.125 -1.0625,5.75 4.0625,3.0625 4.21875,0.90625 -3.90625,0.6875 -7.5,4.34375 -8.25,3.25 -6.53125,-3.65625 -16.03125,-2.375 -3.78125,-1.96875 -5.5625,1.4375 -1.8125,0.4375 -0.1875,-4.40625 -5.03125,-5.96875 1.40625,-3.5625 2.375,0 -2.125,-5.875 -8.71875,-0.40625 -4.40625,3.0625 -4.90625,-3.21875 -7.59375,-2.25 -0.96875,2.40625 4.1875,3.375 0,4.0625 -1.65625,2.0625 1.1875,1.1875 0.4375,0.3125 -0.375,3.625 1.40625,3.1875 4.5,5.09375 0.9375,4.40625 0.96875,1.40625 0,6.9375 2.34375,4.78125 0,5.3125 -2.5625,5.125 2.84375,7.3125 4.25,0.9375 0.3125,1.5625 -1.875,0.84375 -4,0 0.6875,2.84375 1.1875,3.8125 3.40625,3 1.90625,0.46875 1.59375,-2.15625 1.75,-0.21875 2,-2.40625 1.8125,1.4375 2.375,0 1.34375,0.65625 0,0.46875 3.6875,0.4375 1.9375,-1.5 2.65625,1.0625 0,0.0312 0.1875,0.34375 1.125,1.875 2.40625,1.78125 2.9375,-1.96875 1.9375,1.375 5.375,-3.1875 5.25,0.78125 3.09375,-1.25 0.78125,-1.90625 1.625,-0.15625 1.59375,1.40625 0.78125,4.34375 2.5625,1 1,3.59375 3.65625,0.1875 5.28125,-4.875 5.03125,-0.1875 1.4375,1.9375 0.96875,7.15625 3.375,1.1875 2.03125,3 3.96875,0 0.15625,1.09375 0.59375,-0.0312 0.15625,-1.65625 0.375,0 2.71875,4.0625 2.59375,0.4375 0,-5.09375 -1.34375,-1.8125 -0.34375,-1.28125 2.6875,-1.625 3,-0.59375 2.09375,-2.5 -0.40625,-7.46875 -4.125,-3.5 -0.1875,-3.375 -0.46875,-0.3125 2.4375,-2.34375 2.625,0 7.0625,-3.65625 2.1875,0.90625 5.15625,0.0312 1.3125,-1.5625 0,-2.875 3.90625,-1.9375 0,-3.15625 1.09375,-0.90625 -0.0937,-0.875 1.28125,-1.28125 -2.0625,-0.4375 0,-1.40625 -0.9375,-1.46875 0.59375,-0.71875 5.5,-1.5625 1.4375,-2.46875 1.1875,-4.3125 1.46875,-1.8125 0.25,-1.9375 1.46875,0.8125 1.90625,-0.53125 -1.1875,-1.84375 -0.5625,-4.53125 -1.6875,-1.53125 0.46875,-1.5 1.375,-2.5625 1.03125,-1.78125 -2.1875,0 0,-3.15625 -1.125,-1.90625 0.75,-3.71875 0.9375,-2.375 -1.5625,0 0.59375,-1.5 2.03125,-2.46875 -2,-3.65625 -0.59375,-3.5625 -8.625,-8.4375 -1.0625,-2.0625 -2.28125,0.1875 -1.8125,-0.78125 z"
   id="polygon418"
   style="fill:none;fill-opacity:1;stroke:#000000;stroke-opacity:1;stroke-width:0.9;stroke-miterlimit:4;stroke-dasharray:none"
   inkscape:export-filename="C:\Users\Romain\Desktop\path386.png"
   inkscape:export-xdpi="600.04968"
   inkscape:export-ydpi="600.04968" /><path
   inkscape:connector-curvature="0"
   d="m 361.77969,49.70082 -2.03125,3 -1.84375,1.84375 0,4.0625 -2.1875,1.46875 -4.25,1.34375 -2.1875,0.90625 -2.6875,-2.09375 -4.09375,0 -0.5625,3.8125 1.6875,3.1875 -1.6875,1.5 -0.1875,3.15625 0.9375,1.5 -0.6875,2.09375 -3,1.59375 0,2.46875 -3.65625,0.78125 -0.71875,1.96875 2.5625,1.375 -0.71875,2.5 -0.59375,2.375 0.125,5.21875 0.0625,1.25 -1.03125,0.28125 -3.3125,-2.15625 -2.71875,1.15625 0.375,1.8125 -3.84375,0 -3.90625,2.90625 0,5.5625 2.78125,1.8125 0.5625,1.28125 -4.28125,0.34375 -0.6875,2.1875 1.6875,1.125 -0.5625,0.875 -1.90625,0.84375 0.5,1.8125 2.625,0 0.71875,1 -1.5625,1.0625 -1.5625,4.0625 -2.90625,1.375 -1.03125,2.15625 -1.0625,1.3125 0.21875,1.09375 -1.5,0.96875 -0.46875,3.03125 1.625,1.03125 0.71875,2.6875 -0.96875,1.78125 0.75,1.6875 2.78125,-0.15625 0,0.40625 0,0.625 -2.71875,1.15625 -0.1875,2.4375 -1.3125,1.6875 -0.84375,4.0625 -0.46875,3.4375 1.4375,1.1875 2.3125,0 4.90625,5.09375 -0.625,5.3125 3.84375,2.9375 1.9375,-1.34375 2.875,3.4375 0.375,3.53125 2.1875,2.90625 1.03125,2.34375 8.09375,0.40625 3.71875,-1.875 1.0625,2.03125 1.75,0.25 1.03125,-2.1875 6.25,-0.1875 2.78125,-1.46875 0.40625,-2.4375 5.3125,0 1.34375,0.75 1.6875,0.9375 3.4375,3.65625 4.34375,5.875 -2.59375,2.78125 1.90625,1.3125 0.21875,3.4375 3.21875,-0.1875 0.78125,1.5625 2.59375,0.1875 1.59375,-0.875 2.9375,3.65625 0.5,1.15625 4.6875,-1.03125 0.78125,-1.90625 0.3125,0.0625 0,-2.125 2.40625,-1.0625 3.125,1.1875 3,-1.21875 1.9375,0 0.625,-4.09375 1.28125,-1.5 -2.0625,-0.21875 -0.15625,-1.84375 2.6875,-0.59375 0.15625,-1.5 2.78125,0 0,-2.625 2.25,-0.8125 -0.59375,-1.625 0.1875,-0.125 0.0625,-0.0312 0.46875,-0.3125 1.25,-0.75 -0.75,-1.15625 0.5,-0.28125 1.34375,1.5625 2.28125,-1.59375 0.5625,-1.84375 3.375,-0.5625 0.78125,0.625 -0.1875,2.15625 2.75,2.09375 1.78125,-0.1875 1.71875,-1.375 3.84375,0 2.9375,3.3125 1.1875,0 1.75,-1.09375 0.21875,-1.125 1.28125,-0.65625 1.5625,1.0625 1.71875,1.9375 6.21875,3.28125 0.875,1.6875 3.1875,0.1875 3.40625,2.625 0.5,1.21875 -0.1875,2.21875 -0.96875,1.8125 0.4375,2.71875 2.78125,-0.40625 0.5,1.90625 1.03125,4.40625 2.1875,-0.34375 -0.375,1.875 1.59375,1.375 7.4375,-0.1875 3.90625,-3.09375 0.1875,-4.34375 2.0625,-2.65625 -2.6875,-3.09375 -1.25,-2.90625 1.5,-2.09375 0,-4.9375 0.96875,-2.28125 0,-3.9375 1.8125,-2.625 -2,-2.8125 -0.15625,-5.0625 -0.0312,-0.4375 0,-0.21875 -0.0312,-0.34375 5.0625,-9.90625 0.0625,-0.0937 -0.625,-5.6875 2.34375,-7.625 0.59375,-6.5 5.0625,-3.71875 0,-2.375 1.8125,-2.375 1.5625,0 1.9375,-1.9375 -0.40625,-3.375 1.6875,-4.46875 3.15625,-0.71875 -3.28125,-2.59375 -4.90625,-0.5625 -4.40625,-2.21875 -2.84375,1.71875 -1.5,-1.65625 -2.25,0 -3.09375,0.84375 0,-0.0312 -0.5625,0.15625 -0.28125,0.0937 -0.0625,0.0312 -1.21875,-1.75 -3.9375,-2.40625 -1.4375,-2.25 -4.96875,0.4375 -2.75,2.53125 -6.40625,0.1875 -1.84375,-1.28125 c -0.249,-0.443 -1.17125,-1.98975 -2.03125,-2.46875 -0.039,-0.021 -0.071,-0.0738 -0.125,-0.0937 -0.038,-0.019 -0.092,-0.0152 -0.125,-0.0312 l -0.1875,-0.0312 0,0.28125 -0.0937,-0.28125 c -0.69,0 -2.1,-0.739 -2.75,-1.125 l -0.125,-0.0625 -3.0625,1.28125 -0.1875,2.28125 -2.875,0.34375 -1.90625,-3.625 -1.09375,-0.375 0,-2.71875 -2.75,-1.1875 -0.1875,-4.625 -2.0625,-2 -4.15625,-2.03125 -2.15625,-0.03125 -0.59375,0.40625 -1.78125,0 -2.71875,-2.34375 -3.1564,0.1873 -2.4375,2.03125 -0.5625,0.90625 -3,0 -1.15625,-1.1875 -0.34375,0 -2.78125,0 -3.53125,-3.90625 -4.75,0 -2.34375,2.15625 -3.34375,0.1875 -1.15625,1.1875 -0.375,0 -0.4375,0 -0.75,-3.5625 -1.6875,-1.6875 -0.78125,-0.125 -0.625,-0.09375 -1,-0.15625 -0.78125,-3.8125 -1.71875,-1.3125 -5.375,-0.59375 -0.9375,-2.4375 -1.84375,-1.21875 -6.15625,-0.78125 -0.34375,-4.125 0.78125,-0.78125 0,-2.03125 -3.0625,-1.9375 0.5,-1.90625 0.875,-2.15625 -1.28125,-1.09375 2,-1.8125 0,-3.8125 -0.96875,-0.6875 -3.1875,0 z"
   id="polygon424"
   style="fill:none;fill-opacity:1;stroke:#000000;stroke-opacity:1;stroke-width:0.9;stroke-miterlimit:4;stroke-dasharray:none"
   inkscape:export-filename="C:\Users\Romain\Desktop\path386.png"
   inkscape:export-xdpi="600.04968"
   inkscape:export-ydpi="600.04968" /><path
   inkscape:connector-curvature="0"
   d="m 241.74844,341.13832 -4.21875,1.96875 -1.03125,0.15625 0.25,0.375 -1.25,1.0625 0,2.40625 1.6875,1.875 -1.625,2.84375 -1.625,1.0625 -0.1875,1.84375 -3.375,0.40625 0.21875,2.59375 1,0.34375 -2.4375,3.46875 -4.375,0.375 -0.21875,3.09375 -1.6875,1.65625 -0.96875,2.5 -4.09375,0.1875 1.6875,6.25 1.71875,3.75 0.0937,0.21875 -3.84375,0.6875 -3.15625,-1.875 -1.53125,5 2.15625,2.34375 -0.90625,3.5 -1.25,1.4375 0.75,2.1875 -3.40625,0.71875 -3.21875,0.84375 0.78125,2.75 -1.03125,0.28125 -0.5,0.15625 -0.15625,0.0625 -0.875,0.8125 -2.84375,-2.78125 -6.125,0.59375 -1.5625,2.75 -3.40625,0.375 -3.125,0.53125 -1.46875,-2.0625 -3.1875,3.1875 -2.40625,-2.03125 -1.5625,3.34375 0.15625,2.375 -1.6875,0.46875 -0.84375,-1.15625 -1.09375,-3.34375 -2.9375,2.53125 -1.84375,-0.75 -2.375,0.4375 -2.125,2.59375 2.28125,3.90625 -1.5,1.5 0.59375,3.34375 -1.84375,2.40625 -1.46875,3.9375 1.71875,3 4.78125,0.34375 0.5,0.0625 3.09375,5.125 -2.15625,1.96875 3.9375,5.875 -1.84375,2.40625 -3.09375,7 -5.40625,4.59375 1.34375,2.71875 -0.84375,0.5625 -3.125,-0.625 -0.8125,6.625 -1.59375,1.1875 -0.34375,4.75 0.8125,-0.5 3.15625,1.875 3.8125,2.875 0.375,2.3125 3.28125,2.6875 2.6875,0 6.34375,-2.6875 2.625,3.03125 4.03125,1.0625 1.375,-2.28125 1.5,0.65625 3.59375,0.25 8.53125,0.59375 0.40625,-9.59375 2.34375,0.34375 3.59375,2.125 1.4375,0.8125 6.1875,1.1875 2.40625,0 3.3125,4.3125 8.375,-0.40625 3.375,5.34375 3.09375,-1.25 8.28125,1.15625 0.5625,3.09375 0.0937,0.59375 0.3125,1.84375 3,2.8125 5.75,1.59375 0.1875,3.40625 3.34375,2.9375 2.59375,-0.46875 3.34375,-4.09375 3.90625,-0.75 6.3125,2.125 5.65625,4.84375 1.65625,-2.09375 1.125,0 1.4375,1.03125 1.5,-0.71875 0.1875,-2.71875 5.75,-1.34375 1.9375,-2.53125 2.8125,-0.9375 3.90625,0 2.5625,2.71875 3.5625,0.25 0,-3.5625 -1.65625,-2.28125 -2.65625,-1.15625 -0.40625,-16.375 -0.1875,-6.0625 0.25,-6.78125 -2.53125,0.1875 -1.75,-2.59375 1.28125,-2.0625 3.21875,3.03125 3.15625,-2.53125 2.0625,-2 0.21875,-1.90625 0.15625,-1.125 6.96875,-2.15625 0.75,-1.6875 5.4375,-0.1875 1.78125,-2.21875 10.53125,-8.40625 6.5625,-4.625 1.84375,0.125 3.4375,0.25 0,3.9375 4.75,-0.21875 2.625,0.125 1.78125,-4.15625 6.53125,-4 -1.46875,-2.0625 1.53125,-4.03125 5.84375,0.8125 1.40625,-10.65625 7.75,-4.40625 0,-2.8125 -5.8125,-5.78125 0,-4.375 -3.40625,-5.65625 -7.34375,-4.125 -0.5625,3.25 -2.28125,0.21875 -0.84375,-3.0625 -3.25,0.625 -0.5,3.71875 -1.8125,-0.65625 -4.84375,-3.15625 -1.9375,1 0,-5.21875 -3.28125,-1.96875 -0.84375,-0.5 0.5625,-4.09375 -3.34375,-3.625 -1.375,-7.09375 -5.15625,-6.625 -3.53125,0.84375 -0.75,-2.65625 -2.46875,0 -0.375,2.40625 -4.625,1.4375 -3.53125,-9.03125 -5.84375,2.125 -1.46875,3.28125 -3.5625,-2.375 -2.84375,8.96875 -2.625,6.03125 -1.34375,-1.6875 -0.59375,-5.71875 -1.90625,0 -0.875,-5.5625 -3.84375,0.5625 -0.5,-3.3125 -0.78125,-1.25 -5.90625,5.03125 0,4.53125 -1.34375,0 -0.5625,4.5 -1.34375,0.53125 -1.0625,2.40625 -5.71875,0 -0.53125,-0.8125 -3.125,0 -1.65625,2.71875 -0.28125,-0.0312 -1.34375,-0.1875 1.0625,-3.21875 -2.46875,-1.09375 2.46875,-5.75 -3.40615,-2.5313 -1.125,-7.25 -3.375,-0.90625 -2.0625,2.03125 -1.09375,-1.9375 -3.53125,3.5 -1.9375,0.25 -3.78125,-5.40625 -5.1875,-2.3125 z"
   id="polygon432"
   style="fill:none;fill-opacity:1;stroke:#000000;stroke-opacity:1;stroke-width:0.9;stroke-miterlimit:4;stroke-dasharray:none"
   inkscape:export-filename="C:\Users\Romain\Desktop\path386.png"
   inkscape:export-xdpi="600.04968"
   inkscape:export-ydpi="600.04968" /><path
   inkscape:connector-curvature="0"
   d="m 295.77969,241.79457 -2.71875,3.53125 -1.5625,0.1875 -1.59375,1.65625 -1.96875,-2.15625 -5.5625,5.59375 0,3.375 0.96875,0.8125 0.15625,1.25 -2.46875,1.9375 -2.46875,-0.75 -5.0625,1.03125 -2.59375,2.96875 -1.21875,2.625 0.53125,-0.125 2.1875,3.09375 0,2.34375 1.625,2.125 1.34375,-1.6875 1.40625,2.4375 2.125,0.78125 2.09375,4.90625 0.0937,1.53125 0,0.0312 0.28125,4.53125 1.59375,1.9375 0.71875,3.46875 -2.28125,1.71875 -0.5625,2.71875 -2.03125,1.09375 -3.90625,2.25 0.4375,2.0625 4.5,4.5 0.375,2.53125 -1.78125,2.90625 0,2.9375 1.21875,1.40625 0.5625,3.15625 -0.4375,1.5625 -0.5625,1.96875 0.96875,2.25 -1,1.15625 -1.65625,0 -1.875,-2.0625 -2.25,-1.28125 -0.21875,5.8125 -3.375,2.0625 -2.71875,3.6875 0.625,3.5625 -0.78125,1.5 -0.90625,2.9375 -1.5,0 -1.8125,2.25 1.34375,1.34375 0.65625,1.65625 -2.5,1.75 1.09375,6.84375 3.21875,2.40625 -2.53125,5.84375 2.53125,1.125 -1.125,3.375 2.75,0.375 1.65625,-2.78125 2.4375,0 0.53125,0.8125 6.46875,0 1.125,-2.53125 1.40625,-0.59375 0.5625,-4.3125 1.40625,0 0,-4.84375 5.1875,-4.40625 0.3125,0.5 0.5625,3.8125 3.90625,-0.5625 0.8125,5.5 1.90625,0 0.53125,5.25 0,0.0937 2.09375,2.59375 3.03125,-6.96875 2.625,-8.21875 3.46875,2.34375 1.65625,-3.71875 4.9375,-1.78125 0.125,-0.0625 3.53125,9 5.5,-1.6875 0.375,-2.28125 1.46875,0 0.8125,2.78125 3.71875,-0.90625 4.25,5.4375 0.375,0.46875 0.1875,0.21875 1.34375,7.125 0.0312,0.0937 3.28125,3.53125 -0.59375,4.1875 4.1875,2.53125 0,5.84375 2.5,-1.28125 4.625,3 2.5625,0.96875 0.53125,-4.0625 2.3125,-0.4375 0.8125,3.03125 3.25,-0.34375 0.5,-2.84375 6.25,3.53125 1.09375,-2.25 2.78125,-0.40625 2.1875,-0.3125 0.96875,1.125 -0.5625,3.90625 1.0625,1.34375 3.0625,-3.09375 2.65625,-0.21875 0.75,-2.09375 -3.46875,-0.40625 -0.5,-3.1875 1.96875,-3.09375 2.46875,-0.1875 2.4375,2.28125 -2.6875,3.65625 0.96875,1.65625 4.1875,0.4375 1.5625,-1.34375 -0.8125,1.78125 0.46875,2.65625 4.3125,0.40625 5.28125,0.375 0.75,2.4375 3.0625,2.28125 2.75,0.1875 1.90625,-1.6875 0.875,-2.59375 1.1875,1.0625 1.625,1.90625 0.875,-8.21875 -2.0625,-0.40625 -1.1875,-2.53125 -6.5625,-1.75 -0.71875,-2.9375 2.5625,-1.6875 -2.1875,-1.53125 0.3125,-1.3125 2.8125,0.1875 2.875,1.4375 2.5,-2.9375 -2.25,-1.84375 0.15625,-2.125 1.125,-3.53125 3.90625,-0.375 3.5,-1.40625 0.3125,-0.6875 0.0625,-0.1875 0.1875,-0.40625 -0.0312,0 0.21875,-0.46875 -1.65625,-0.84375 0,-1.84375 4.6875,0 1.8125,-1.8125 -0.9375,-1.71875 2.1875,-1.71875 1.7813,0.7814 2.5625,-2.1875 4.5,0.8125 1.5625,-1.78125 3.90625,0.1875 0,-4.78125 -1.625,-0.8125 -0.78125,-2.59375 -4.15625,-0.40625 -0.4375,-0.75 0.71875,-3.875 1.21875,-1.03125 3.3125,-0.375 1,1 0.625,2.9375 4,-0.46875 0.40625,-3 1.53125,-0.6875 4.21875,0.21875 -0.15625,-0.3125 5.40625,-2.15625 2.09375,1.34375 2.5,0 0.21875,-2.46875 2.375,-1.28125 1,-1.1875 5.1875,-2 0.65625,-3.59375 -0.96875,-1.5 2.84375,-4.84375 -2.75,-1.03125 -0.75,-2.71875 -5.25,-3.09375 c 0.052,-1.122 0.25825,-5.88525 -0.21875,-7.03125 l 0.375,-0.3125 -0.9375,0 c -0.646,0.162 -2.86675,0.329 -3.46875,0.375 l -2.78125,-3.125 0.0937,-3.375 0.0937,-2.9375 6.59375,-2.75 0.84375,-2.09375 -0.40625,-4.5 -4.53115,-4.71875 -1.125,0.65625 0,-4.375 -3.75,-1.78125 -0.125,-1.28125 2.125,-2.3125 0,-2.96875 -3.53125,-3.71875 -0.1875,-2.6875 -7,0 -4.53125,0.78125 -4.125,3.34375 -1.0625,-1.625 -2.53125,0.21875 -2.03125,4.46875 -0.0312,0.0937 0.25,1.9375 1.90625,1.5625 -3.625,2.375 -2.4375,2.28125 -4.28125,0 -0.0312,0 -1.71875,0 0,-3.25 2.15625,-1.25 3.65625,-0.40625 0.28125,-2.375 -1.0625,-0.71875 2.84375,-3.59375 -0.5,-1.40625 -3.65625,-1.96875 -8.1875,9.03125 -5.25,0 0,-2.25 -3.46875,-1.71875 -3.8125,4.15625 -2.5,0.34375 0,-2.59375 -2.625,-1.1875 -3.90625,-5.5 -3.5,-1.34375 -1.15625,-2.5625 -2.25,-0.46875 -2,1.40625 -1.375,0.375 -2.125,-1.78125 -2.4375,0.25 -1.46875,2.75 -3.6875,14.375 -0.53125,1.1875 0,0.0312 -0.5625,1.34375 -0.9375,-0.125 -0.71875,-3.75 -1.09375,-3.34375 -2.46875,0.21875 -1.59375,1.59375 -1.15625,-1.5625 -1.8125,1.625 -2.28125,-1.46875 -2.125,0 -0.9375,0.71875 -0.46875,2.53125 -0.65625,3.59375 -2.03125,0 -1.4375,1.4375 -1.0625,-1.0625 -6.34375,-0.96875 -0.0937,-0.0312 -2.375,1.40625 -1.25,0 -0.34375,-1.34375 -2.90625,-0.59375 -0.1875,-3.09375 -0.53125,-0.1875 3.84375,-2.9375 0.1875,-7.84375 -1.53125,-2.15625 -3.125,0 -1.15625,-1.5625 -3.3125,0 -0.8125,-1 0,-2.84375 -3.96875,-7.53125 -2.28125,-1.65625 -3.8125,5.25 -1.15625,0.28125 -0.5625,-2.375 -2.1564,-0.9687 -0.8125,1.65625 -2.5,0 -0.4375,-1.90625 -2.3125,1.34375 -1.90625,1.0625 -2.1875,-2.375 -3.28125,-1.5625 -0.1875,-2.59375 -4.9375,-0.4375 z"
   id="path436"
   style="fill:none;fill-opacity:1;stroke:#000000;stroke-opacity:1;stroke-width:0.9;stroke-miterlimit:4;stroke-dasharray:none"
   inkscape:export-filename="C:\Users\Romain\Desktop\path386.png"
   inkscape:export-xdpi="600.04968"
   inkscape:export-ydpi="600.04968" /><path
   inkscape:connector-curvature="0"
   d="m 241.46719,119.82582 -1.5,1.25 0,3.0625 -3.90625,1.9375 0,3.03125 -1,1.1875 -4.6875,0 -2.40625,-1 -7.125,3.71875 -2.75,0 -3.1875,3.03125 0.84375,0.5625 0.1875,3.3125 4.125,3.5 0.375,6.96875 -1.78125,2.1875 -2.84375,0.5625 -3.21875,1.90625 0.4375,1.78125 1.34375,1.78125 0,4.8125 0.59375,0.0625 2.40625,1.71875 -0.65625,0.8125 -0.21875,0.28125 -0.15625,0.21875 -1.125,1.40625 -1.65625,2.9375 2,1.84375 -0.1875,3.90625 -0.71875,2.5 -2.03125,0 0,3.90625 -2.59375,3.375 -2.9375,1.15625 -1.53125,1.96875 0.46875,1.1875 0.15625,0.375 0.0937,0.25 0.1875,0.375 -5.4375,1.5 -1.25,1.8125 -2.81245,-1.84375 1.3125,4.3125 -1.65625,0 -4.125,-2.90625 -2.1875,4.40625 1.03125,1.25 0,0.9375 -1.96875,2.5625 0.21875,4.28125 -3.0625,3.625 -2.375,8.5 0.40625,0 0.78125,3.09375 3.65625,0.75 0,2.34375 4.6875,1.375 0,3.46875 -0.21875,2.65625 6.25,0 5.375,-1.25 -0.4375,-2.25 1.15625,-0.71875 1.4375,2 1.3125,0.5625 1.15625,4.625 3.34375,3.5 0.375,2.75 3.1875,3.15625 0.3125,0.3125 0,3.5625 -0.84375,2.5 3.875,3.03125 2,2 3.03125,0.40625 1.1875,4.03125 2.03125,1.125 -0.3125,2.5 -1.34375,0.25 0,0.59375 0.59375,0.125 5.03125,0.375 1.65625,-1.625 3.125,3.125 3.9375,-4.53125 1.625,1.09375 2.34375,-0.21875 0.71875,0.375 3.875,0.21875 1.15625,-3.09375 9.5,1.15625 3.78125,0.96875 1.375,-0.15625 0.5,-0.0625 0.0937,0 4.53125,-0.5625 1,-2.125 2.4375,-2.78125 4.6875,-0.96875 2.65625,0.8125 2.96875,-2.34375 -0.21875,-1.84375 -0.96875,-0.75 0,-2.875 4.96875,-4.96875 1.96875,2.15625 1.875,-1.9375 1.59375,-0.1875 2.6875,-3.46875 4.09375,0.34375 0.0312,0.8125 0.59375,0.0625 1.53125,-4.90625 -0.96875,-1.78125 0.15625,-2.4375 0.625,-5.21875 -2.15625,-2.15625 0.40625,-4.625 -2,-4.125 -0.1875,-2.8125 -3.5625,-2.75 -0.5,-2.125 1.71875,-2.5 0,-3.90625 -1.8125,-2.15625 -0.375,-0.4375 -0.0312,-0.0312 -0.125,-0.125 -0.1562,-1.62505 3.96875,-1.15625 -0.6875,-2.4375 -0.59375,-3.125 -2.53125,-3.5625 -0.46875,-1.71875 3.59375,0 2.9375,-2.09375 0.40625,-3.1875 -1.625,-1.84375 4.9375,-4.15625 0,-3.8125 -2.59375,-2.75 -0.96875,-3.125 -3.75,-3.5625 -4.71875,2.65625 -0.34375,-1.375 -2.59375,-0.21875 -0.59375,1.625 -1.71875,0.3125 -5.375,-0.1875 -2.03125,1.3125 -1.3125,-1.15625 2.96875,-2.03125 -0.21875,-3.65625 -2.4375,-1.21875 -2,-3 -5.3125,-0.375 -2.28125,-1.875 -2.625,2.46875 -5.0625,0.4375 0.0312,-0.0312 -0.53125,0.0625 -0.2187,0.0312 -0.0625,0.0312 -0.40625,-5.03125 -0.40625,-0.59375 -0.40625,-2.6875 -4.1875,-0.8125 -1.65625,-2 -0.59375,-4.4375 -2.34375,-0.375 -0.375,-2.0625 -2.75,-1.96875 -1.3125,-3.125 1.4375,-2.40625 -1.46875,-1.625 0,-1.78125 0.84375,-2.28125 -1.65625,-1.65625 -0.59375,-2.34375 -2.1875,-2.1875 z"
   id="polygon452"
   style="fill:none;fill-opacity:1;stroke:#000000;stroke-opacity:1;stroke-width:0.9;stroke-miterlimit:4;stroke-dasharray:none"
   inkscape:export-filename="C:\Users\Romain\Desktop\path386.png"
   inkscape:export-xdpi="600.04968"
   inkscape:export-ydpi="600.04968" /><path
   inkscape:connector-curvature="0"
   d="m 312.74844,151.10707 -1.84375,1.40625 -7.59375,-0.375 -3.6875,1.84375 -1.5,3.21875 1.53125,1.6875 -4.15625,4.90625 3.6875,3.46875 0.9375,3.0625 2.5625,2.75 0,3.28125 -5.21875,4.375 1.84375,2.09375 -0.34375,2.65625 -2.5625,1.84375 -4.1875,0 0.6875,2.53125 2.53125,3.53125 0.59375,3.09375 0.53125,1.875 -1.96875,0.5625 -1.90625,0.5625 0.21875,2.3125 2.34375,2.71875 0,3.53125 -1.78125,2.5625 0.625,2.5625 3.5,2.71875 0.1875,2.59375 1.96875,4.15625 -0.40625,4.75 2.15625,2.125 -0.59375,4.96875 -0.1875,2.625 0.9375,1.71875 -1.46875,4.6875 0.15625,1.71875 3.4375,1.59375 2.46875,2.71875 2.34375,-1.3125 1.59375,-0.96875 0.375,1.59375 3.34375,0 0.71875,-1.46875 1.34375,0.59375 0.625,2.6875 1.96875,-0.46875 3.625,-4.9375 1.625,1.15625 0.4375,0.8125 3.4375,6.46875 0,2.96875 1.125,1.375 3.3125,0 1.15625,1.5625 3.125,0 1.21875,1.71875 -0.1875,7.375 -4.03125,3.09375 -0.34375,0.78125 0.75,-0.0937 0.34375,0.0937 0.1875,3.15625 2.96875,0.59375 0.375,1.4375 1.875,0 2.34375,-1.375 6.03125,0.9375 1.34375,1.34375 1.6875,-1.6875 2.28125,0 1.1875,-6.375 0.59375,-0.46875 1.75,0 2.5,1.65625 1.65625,-1.5 1.1875,1.5625 1.9375,-1.90625 1.78125,-0.15625 0.90625,2.84375 0.8125,4.125 1.8125,0.25 1.28125,-3 3.65625,-14.375 1.3125,-2.40625 1.875,-0.1875 2.15625,1.8125 1.71875,-0.4375 1.9375,-1.34375 1.6875,0.34375 1.15625,2.5 1.21875,0.46875 0.0937,0.0312 2.21875,0.875 3.90625,5.46875 2.4375,1.09375 0,2.90625 3.40625,-0.46875 3.625,-4 2.75,1.375 0,2.46875 6.09375,0 8.46875,-9.3125 -0.5,-0.28125 0.34375,-3.8125 3.15625,-3.75 -2.125,-0.84375 0.15625,-1.03125 12.03125,-11.28125 0.0937,-0.0937 -0.375,-9.3125 4.09375,-2.03125 2.9375,-1.375 2.875,-2.65625 0.21875,-3.65625 2.5625,-1.3125 6.46875,-7.4375 -0.9375,-2.25 1.90625,-0.84375 2.8125,-3.40625 -1.6875,-1.6875 -4.5625,0.9375 -0.0625,-0.34375 4.46875,-5.15625 -0.0312,0 0.4375,-0.5 2.78125,-0.4375 -1.03125,-4.46875 -0.65625,-2.4375 -2.71875,0.40625 -0.3125,-1.9375 0.90625,-1.6875 0.21875,-2.53125 -0.625,-1.5 -3.65625,-2.84375 -3.03125,-0.1875 -0.65625,-1.3125 -0.0937,-0.1875 -6.28125,-3.3125 -1.71875,-1.9375 -1.96875,-1.3125 -1.84375,0.9375 -0.21875,1.15625 -1.375,0.875 -0.75,0 -2.9375,-3.3125 -4.34375,0 -1.75,1.375 -1.375,0.15625 -2.3125,-1.75 0.1875,-2.15625 -1.21875,-0.96875 -4,0.65625 -0.625,2 -1.65625,1.1875 -1.34375,-1.5625 -1.4375,0.875 0.75,1.15625 -1.875,1.15625 0.5625,1.53125 -2.0625,0.75 0,2.4375 -2.71875,0 -0.1875,1.59375 -2.78125,0.625 0.25,2.84375 1.4375,0.15625 -0.6875,0.78125 -0.5625,3.75 -1.5,0 -2.9375,1.15625 -3.125,-1.1875 -3,1.3125 0,1.78125 -0.0625,0 -0.84375,2.0625 -3.875,0.875 -0.3125,-0.71875 -3.34375,-4.1875 -1.875,1.0625 -2.09375,-0.1875 -0.78125,-1.59375 -3.03125,0.1875 -0.1875,-3.15625 -1.59375,-1.0625 2.46875,-2.65625 -4.65625,-6.28125 -3.5,-3.71875 -3.28125,-1.84375 -5.96875,0 -0.4375,2.625 -2.34375,1.28125 -6.09375,0.1875 -0.15625,-0.6875 -0.3125,0.6875 -0.15625,0 0.0625,0.25 -0.875,1.875 -1,-0.15625 -1.21875,-2.28125 -4.09375,2.0625 -7.5625,-0.375 -0.9375,-2.0625 -2.09375,-2.84375 -0.375,-3.53125 -3.375,-4 -2,1.40625 -3.21875,-2.46875 0.59375,-5.25 -5.25,-5.5 -2.375,0 -1.46875,-1.21875 z"
   id="polygon464"
   style="fill:none;fill-opacity:1;stroke:#000000;stroke-opacity:1;stroke-width:0.9;stroke-miterlimit:4;stroke-dasharray:none"
   inkscape:export-filename="C:\Users\Romain\Desktop\path386.png"
   inkscape:export-xdpi="600.04968"
   inkscape:export-ydpi="600.04968" />

























































































































































































































































































</svg>
