<?xml version="1.0" standalone="no"?>
<!DOCTYPE svg PUBLIC "-//W3C//DTD SVG 20010904//EN"
 "http://www.w3.org/TR/2001/REC-SVG-20010904/DTD/svg10.dtd">
<svg version="1.0" xmlns="http://www.w3.org/2000/svg"
 width="512.000000pt" height="512.000000pt" viewBox="0 0 512.000000 512.000000"
 preserveAspectRatio="xMidYMid meet">
<metadata>
Created by potrace 1.11, written by Peter Selinger 2001-2013
</metadata>
<g transform="translate(0.000000,512.000000) scale(0.100000,-0.100000)"
fill="#000000" stroke="none">
<path d="M2374 5096 c-150 -40 -299 -129 -383 -230 -9 -10 -28 -33 -42 -50
-32 -39 -103 -168 -119 -219 -13 -40 -21 -42 -80 -12 -51 26 -176 47 -275 47
-321 -1 -606 -201 -718 -502 -65 -176 -57 -420 20 -576 l20 -41 -56 -29 c-75
-39 -149 -93 -214 -156 -77 -75 -123 -139 -178 -248 -18 -37 -49 -130 -60
-185 -7 -33 -14 -67 -16 -75 -5 -26 -4 -194 2 -225 51 -267 181 -470 385 -603
111 -71 271 -128 382 -134 47 -3 48 -4 68 -53 124 -298 519 -439 858 -306 29
11 70 32 92 46 l39 25 50 -85 c28 -46 60 -113 71 -147 23 -68 33 -196 20 -256
-5 -20 -11 -64 -15 -97 -3 -32 -8 -62 -10 -65 -1 -3 -5 -27 -9 -55 -6 -56 -39
-213 -57 -278 -7 -23 -13 -46 -15 -52 -1 -5 -16 -50 -34 -100 -42 -118 -119
-266 -186 -355 -30 -39 -54 -73 -54 -76 0 -2 315 -4 700 -4 395 0 700 4 700 9
0 5 -6 14 -14 20 -34 29 -149 217 -190 311 -70 162 -112 311 -146 515 -28 175
-30 187 -35 335 -4 107 -2 147 11 190 19 63 63 154 92 190 l20 25 24 -21 c34
-32 163 -89 242 -108 302 -73 647 81 746 334 18 48 20 49 70 55 79 10 104 15
169 36 438 139 690 595 576 1039 -35 135 -107 266 -206 373 -69 75 -191 166
-255 189 -24 8 -34 17 -30 28 2 8 19 56 37 105 26 74 33 110 37 200 10 230
-59 411 -218 575 -109 112 -227 180 -376 216 -83 20 -260 22 -324 4 -25 -7
-55 -14 -67 -16 -12 -2 -43 -13 -69 -24 -48 -21 -63 -17 -64 18 0 23 -71 156
-112 211 -95 125 -230 222 -381 273 -77 25 -111 31 -212 34 -103 4 -133 1
-211 -20z"/>
</g>
</svg>
